<?xml version="1.0" encoding="UTF-8"?>
<!DOCTYPE svg PUBLIC "-//W3C//DTD SVG 1.1//EN" "http://www.w3.org/Graphics/SVG/1.1/DTD/svg11.dtd">
<!-- Creator: CorelDRAW X8 -->
<svg xmlns="http://www.w3.org/2000/svg" xml:space="preserve" width="4082px" height="386px" version="1.1" style="shape-rendering:geometricPrecision; text-rendering:geometricPrecision; image-rendering:optimizeQuality; fill-rule:evenodd; clip-rule:evenodd"
viewBox="0 0 4413 418"
 xmlns:xlink="http://www.w3.org/1999/xlink">
 <defs>
  <style type="text/css">
   <![CDATA[
    .fil2 {fill:#FEFEFE}
    .fil1 {fill:#FEFEFE;fill-rule:nonzero}
    .fil0 {fill:#FEFEFE;fill-rule:nonzero}
   ]]>
  </style>
 </defs>
 <g id="Слой_x0020_1">
  <metadata id="CorelCorpID_0Corel-Layer"/>
  <g id="_2405555470752">
   <g>
    <path class="fil0" d="M4 0l1699 0 0 418 -1703 0 0 -418 4 0zm1690 9l-1685 0 0 400 1685 0 0 -400z"/>
    <path class="fil0" d="M1454 113c5,12 17,21 34,21 17,0 28,-9 33,-21l-16 -7c-4,10 -15,11 -17,11 -2,0 -13,-1 -17,-11l-17 7 0 0 0 0zm-21 33l0 126 17 0 68 -86 0 84 25 0 0 -127 -17 0 -69 86 0 -83 -24 0zm-137 0l0 126 16 0 69 -86 0 84 24 0 0 -127 -17 0 -68 86 0 -83 -24 0zm-95 0l-24 0 0 124 24 0 0 -53 3 -3 44 56 32 0 -55 -67 53 -57 -31 0 -46 52 0 -52 0 0zm-46 91c-7,8 -18,13 -29,13 -21,0 -42,-14 -42,-42 0,-23 16,-43 41,-43 4,0 18,1 30,14l0 -29c-12,-6 -22,-7 -31,-7 -17,0 -33,4 -45,16 -11,10 -20,26 -20,49 0,18 5,33 20,47 10,10 23,17 45,17 14,0 24,-3 31,-7l0 -28 0 0zm-207 -124c5,12 17,21 34,21 17,0 28,-9 33,-21l-16 -7c-4,10 -15,11 -17,11 -2,0 -13,-1 -17,-11l-17 7 0 0 0 0zm-21 33l0 126 17 0 68 -86 0 84 25 0 0 -127 -17 0 -69 86 0 -83 -24 0z"/>
    <path class="fil0" d="M606 147l0 124 24 0 0 -103 50 0 0 103 24 0 0 -124 -98 0 0 0zm-89 105c-24,0 -41,-17 -41,-42 0,-26 17,-43 41,-43 25,0 42,17 42,43 0,25 -17,42 -42,42l0 0zm0 -107c-39,0 -66,27 -66,65 0,37 27,64 66,64 40,0 67,-27 67,-64 0,-38 -27,-65 -67,-65l0 0zm-135 23l8 0c6,0 13,1 17,4 4,3 8,7 8,14 0,6 -3,11 -7,15 -5,4 -11,4 -16,4l-10 0 0 -37zm-24 -21l0 124 24 0 0 -45 16 0c14,0 24,-4 31,-12 10,-9 10,-22 10,-27 0,-9 -2,-21 -12,-30 -9,-8 -19,-10 -33,-10l-36 0zm-82 70l9 0c5,0 11,1 17,3 7,3 9,10 9,14 0,5 -2,11 -8,14 -5,4 -12,4 -17,4l-10 0 0 -35 0 0zm0 -50l7 0c10,0 19,4 19,16 0,16 -15,16 -19,16l-7 0 0 -32zm-24 -20l0 124 41 0c11,0 23,-1 32,-10 9,-7 11,-17 11,-25 0,-6 -2,-16 -9,-23 -3,-3 -8,-6 -16,-8 3,-2 13,-8 13,-24 0,-11 -4,-20 -11,-26 -10,-8 -24,-8 -30,-8l-31 0 0 0zm-24 0l-68 0 0 124 68 0 0 -20 -44 0 0 -34 43 0 0 -21 -43 0 0 -28 44 0 0 -21 0 0z"/>
    <path class="fil0" d="M873 151c0,1 1,9 2,18 1,10 1,23 -1,33 -3,13 -7,27 -17,36 -11,11 -28,17 -43,17 -15,0 -31,-5 -42,-16 -10,-10 -13,-23 -13,-37 0,-8 1,-15 4,-22 5,-13 17,-18 30,-17 7,0 19,1 24,6 6,7 5,20 2,28 0,1 -1,4 -5,5 -3,0 -8,-1 -11,-1 -1,-1 -2,-3 -2,-4 0,-4 2,-7 2,-10 0,-2 -1,-3 -2,-3 -4,-2 -13,-4 -17,2 -2,2 -4,10 -3,15 1,7 5,12 9,15 4,3 11,4 18,5 9,0 17,-1 22,-5 10,-8 12,-16 13,-28 2,-19 -7,-37 -26,-44 -29,-10 -64,-4 -76,28 -10,27 -7,61 14,83 23,24 63,28 93,16 22,-8 35,-24 43,-46 5,-12 6,-25 7,-38 0,-6 -1,-12 -1,-18 0,-5 -1,-11 -2,-15 0,-2 -2,-2 -3,-3l-14 -3c-2,0 -5,0 -5,3l0 0 0 0z"/>
    <polygon class="fil1" points="1841,221 3304,221 3304,234 1841,234 "/>
   </g>
   <path class="fil2" d="M3583 311l41 0 0 -235 -59 0c-60,0 -92,31 -92,76 0,36 18,57 48,79l-53 80 44 0 60 -89 -21 -14c-25,-17 -37,-30 -37,-58 0,-25 17,-42 51,-42l18 0 0 203zm788 3c19,0 32,-3 42,-11l0 -32c-10,7 -23,11 -40,11 -28,0 -40,-22 -40,-57 0,-37 14,-56 41,-56 15,0 30,5 38,10l0 -34c-8,-4 -23,-8 -43,-8 -51,0 -78,37 -78,89 0,56 26,88 80,88zm-251 -15l0 -33c-13,9 -34,16 -53,16 -30,0 -41,-13 -42,-42l97 0 0 -21c0,-59 -26,-81 -66,-81 -50,0 -73,37 -73,88 0,60 29,88 81,88 25,0 44,-7 56,-15zm-368 -158l0 67 -54 0 0 -67 -40 0 0 170 40 0 0 -71 54 0 0 71 40 0 0 -170 -40 0zm221 138l-18 0 0 -138 -117 0 0 14c0,42 -2,95 -17,124l-12 0 0 71 37 0 0 -39 90 0 0 39 37 0 0 -71zm275 32l46 0 -65 -92 57 -78 -41 0 -56 78 0 -78 -41 0 0 169 41 0 0 -83 59 84zm-193 -142c20,0 26,17 26,38l0 3 -56 0c1,-27 10,-41 30,-41zm-140 110l-57 0c11,-26 15,-72 15,-102l0 -5 42 0 0 107z"/>
  </g>
 </g>
</svg>
