<?xml version="1.0" encoding="UTF-8"?>
<!DOCTYPE svg PUBLIC "-//W3C//DTD SVG 1.1//EN" "http://www.w3.org/Graphics/SVG/1.1/DTD/svg11.dtd">
<!-- Creator: CorelDRAW X8 -->
<svg xmlns="http://www.w3.org/2000/svg" xml:space="preserve" width="3145px" height="1438px" version="1.1" style="shape-rendering:geometricPrecision; text-rendering:geometricPrecision; image-rendering:optimizeQuality; fill-rule:evenodd; clip-rule:evenodd"
viewBox="0 0 3551 1623"
 xmlns:xlink="http://www.w3.org/1999/xlink">
 <defs>
  <style type="text/css">
   <![CDATA[
    .fil0 {fill:#FEFEFE;fill-rule:nonzero}
   ]]>
  </style>
 </defs>
 <g id="Слой_x0020_1">
  <metadata id="CorelCorpID_0Corel-Layer"/>
  <g id="_2405555446272">
   <path class="fil0" d="M18 0l0 180 27 0 0 -154 77 0 0 154 28 0 0 -180 -132 0zm209 167c11,14 27,16 33,16 27,0 55,-22 55,-61 0,-36 -25,-59 -55,-59 -11,0 -24,4 -33,16l0 -13 -27 0 0 175 27 0 0 -74zm30 -80c19,0 32,16 32,36 0,20 -13,36 -32,36 -17,0 -32,-12 -32,-35 0,-25 15,-37 32,-37zm98 -21l0 122 78 -74 0 66 26 0 0 -124 -78 75 0 -65 -26 0zm149 0l0 114 27 0 0 -43 4 -4 38 47 33 0 -52 -64 50 -50 -35 0 -38 41 0 -41 -27 0zm228 0l-86 0 0 70c0,4 0,10 -4,14 -3,4 -10,7 -18,5l0 25c12,2 27,-1 37,-12 9,-10 11,-23 11,-32l0 -45 33 0 0 89 27 0 0 -114zm128 13c-11,-14 -25,-16 -34,-16 -30,0 -55,23 -55,60 0,31 20,60 55,60 8,0 22,-2 34,-15l0 12 26 0 0 -114 -26 0 0 13zm-30 8c16,0 32,12 32,37 0,23 -16,35 -32,35 -20,0 -32,-16 -32,-36 0,-20 12,-36 32,-36zm112 -21l0 45c0,13 -2,23 -5,30 -3,7 -10,14 -21,14l0 57 25 0 0 -32 79 0 0 32 24 0 0 -57 -17 0 0 -89 -85 0zm58 89l-46 0c7,-5 13,-15 13,-34l0 -30 33 0 0 64zm75 25l26 0 0 -47 47 0 0 47 27 0 0 -114 -27 0 0 42 -47 0 0 -42 -26 0 0 114zm200 -117c-34,0 -61,25 -61,60 0,35 27,60 61,60 34,0 60,-25 60,-60 0,-35 -26,-60 -60,-60zm0 96c-21,0 -34,-14 -34,-36 0,-25 17,-36 34,-36 17,0 33,11 33,36 0,22 -12,36 -33,36zm100 -93l0 122 78 -74 0 66 26 0 0 -124 -78 75 0 -65 -26 0zm9 -49c6,23 28,32 43,32 16,0 38,-9 44,-32l-22 -6c-3,12 -10,18 -22,18 -6,0 -17,-2 -22,-18l-21 6zm203 163l92 0 0 32 25 0 0 -57 -19 0 0 -89 -27 0 0 89 -44 0 0 -89 -27 0 0 114zm227 -39c-2,5 -6,9 -10,13 -6,4 -11,5 -19,5 -6,0 -14,-1 -20,-7 -5,-5 -9,-15 -9,-23l81 0 0 -3c0,-12 -1,-33 -16,-48 -7,-7 -18,-15 -36,-15 -16,0 -29,6 -38,16 -12,12 -18,29 -18,46 0,17 6,33 16,44 11,10 24,14 39,14 12,0 24,-2 33,-8 7,-5 14,-13 19,-21l-22 -13zm-57 -33c2,-6 5,-11 9,-15 3,-3 9,-7 18,-7 9,0 14,3 18,6 4,4 7,10 8,16l-53 0zm120 72l26 0 0 -47 47 0 0 47 26 0 0 -114 -26 0 0 42 -47 0 0 -42 -26 0 0 114zm223 -89l0 -25 -93 0 0 25 33 0 0 89 27 0 0 -89 33 0zm57 76c12,14 28,16 34,16 27,0 55,-22 55,-61 0,-36 -25,-59 -55,-59 -11,0 -24,4 -34,16l0 -13 -26 0 0 175 26 0 0 -74zm31 -80c19,0 31,16 31,36 0,20 -12,36 -31,36 -17,0 -32,-12 -32,-35 0,-25 15,-37 32,-37zm-2188 438l27 0 11 -57 36 66 36 -66 12 57 27 0 -28 -124 -47 87 -47 -87 -27 124zm264 -100c-11,-14 -25,-16 -33,-16 -30,0 -56,22 -56,59 0,32 20,61 55,61 8,0 23,-2 34,-16l0 12 27 0 0 -113 -27 0 0 13zm-30 7c17,0 32,12 32,37 0,24 -15,36 -32,36 -19,0 -32,-17 -32,-36 0,-20 13,-37 32,-37zm102 93l155 0 0 -113 -27 0 0 89 -37 0 0 -89 -27 0 0 89 -37 0 0 -89 -27 0 0 113zm200 -113l0 122 78 -75 0 66 26 0 0 -124 -77 75 0 -64 -27 0zm150 113l26 0 0 -47 47 0 0 47 26 0 0 -113 -26 0 0 42 -47 0 0 -42 -26 0 0 113zm145 0l26 0 0 -47 47 0 0 47 27 0 0 -113 -27 0 0 42 -47 0 0 -42 -26 0 0 113zm200 -116c-34,0 -61,25 -61,60 0,34 27,60 61,60 34,0 60,-26 60,-60 0,-35 -26,-60 -60,-60zm0 96c-21,0 -34,-14 -34,-36 0,-26 17,-37 34,-37 17,0 33,11 33,37 0,22 -12,36 -33,36zm100 20l26 0 0 -89 43 0 0 -24 -69 0 0 113zm152 -116c-34,0 -60,25 -60,60 0,34 26,60 60,60 35,0 61,-26 61,-60 0,-35 -26,-60 -61,-60zm0 96c-20,0 -33,-14 -33,-36 0,-26 17,-37 33,-37 17,0 34,11 34,37 0,22 -13,36 -34,36zm218 -96c-34,0 -61,25 -61,60 0,34 27,60 61,60 34,0 61,-26 61,-60 0,-35 -27,-60 -61,-60zm0 96c-21,0 -34,-14 -34,-36 0,-26 17,-37 34,-37 17,0 34,11 34,37 0,22 -13,36 -34,36zm186 -171c-1,4 -5,11 -22,15l-18 4c-16,4 -26,12 -34,24 -13,19 -18,44 -18,78 0,16 1,41 19,59 8,7 22,15 42,15 34,0 61,-25 61,-61 0,-18 -7,-33 -17,-43 -9,-10 -22,-16 -39,-16 -12,0 -29,2 -39,16l0 0c0,-10 3,-23 9,-31 8,-11 19,-14 30,-17l17 -5c19,-5 32,-20 36,-38l-27 0zm-31 171c-21,0 -34,-14 -34,-36 0,-26 17,-37 34,-37 17,0 34,11 34,37 0,22 -13,36 -34,36zm92 82l29 0 91 -175 -30 0 -33 66 -32 -66 -32 0 49 95 -42 80zm212 -62l26 0 0 -113 -26 0 0 46c-6,2 -11,3 -18,3 -3,0 -9,0 -13,-3 -6,-3 -7,-9 -7,-15l0 -31 -27 0 0 36c0,8 1,19 11,27 10,8 21,9 30,9 4,0 13,-1 24,-3l0 44zm151 -38c-3,4 -6,9 -11,12 -5,4 -10,6 -18,6 -6,0 -14,-1 -20,-7 -6,-6 -9,-15 -10,-23l82 0 0 -4c0,-11 -2,-32 -16,-47 -7,-7 -18,-15 -36,-15 -17,0 -29,6 -38,15 -12,12 -19,29 -19,47 0,17 6,32 17,43 11,11 23,15 38,15 13,0 25,-3 34,-9 7,-5 14,-12 19,-21l-22 -12zm-57 -34c2,-5 5,-11 8,-14 4,-4 10,-8 19,-8 9,0 14,4 18,7 4,4 7,9 8,15l-53 0zm119 72l27 0 0 -47 47 0 0 47 26 0 0 -113 -26 0 0 42 -47 0 0 -42 -27 0 0 113zm146 -113l0 122 77 -75 0 66 27 0 0 -124 -78 75 0 -64 -26 0zm134 113l31 0 31 -42 6 0 0 42 26 0 0 -113 -42 0c-12,0 -23,1 -33,10 -9,8 -10,19 -10,26 0,8 2,16 9,23 4,5 10,8 18,9l-36 45zm68 -63l-16 0c-6,0 -11,-1 -14,-3 -3,-2 -6,-5 -6,-11 0,-5 3,-9 7,-11 3,-2 8,-3 13,-3l16 0 0 28zm54 98l17 7 34 -66 -24 -10 -27 69zm-2479 210c-11,-14 -25,-16 -34,-16 -30,0 -55,23 -55,60 0,31 20,60 55,60 8,0 22,-2 34,-15l0 12 26 0 0 -114 -26 0 0 13zm-31 8c17,0 33,12 33,36 0,24 -16,36 -33,36 -19,0 -31,-16 -31,-36 0,-20 12,-36 31,-36zm103 93l26 0 0 -48 47 0 0 48 26 0 0 -114 -26 0 0 42 -47 0 0 -42 -26 0 0 114zm228 -101c-11,-14 -25,-16 -34,-16 -30,0 -55,23 -55,60 0,31 20,60 55,60 8,0 22,-2 34,-15l0 12 26 0 0 -114 -26 0 0 13zm-30 8c16,0 32,12 32,36 0,24 -16,36 -32,36 -20,0 -32,-16 -32,-36 0,-20 12,-36 32,-36zm195 -21l-85 0 0 69c0,5 -1,11 -4,15 -4,4 -11,7 -19,5l0 25c12,1 27,-1 37,-12 10,-10 11,-23 11,-33l0 -45 34 0 0 90 26 0 0 -114zm46 0l0 122 77 -74 0 66 27 0 0 -124 -78 74 0 -64 -26 0zm164 29c4,-3 7,-5 10,-7 5,-3 10,-3 15,-3 4,0 9,0 13,3 2,1 5,4 5,9 0,6 -3,9 -5,10 -3,2 -9,3 -13,3l-10 0 0 22 12 0c6,0 14,0 19,5 2,2 3,5 3,9 0,4 -1,7 -4,10 -5,5 -13,5 -18,5 -6,0 -12,-1 -17,-4 -4,-3 -8,-7 -10,-12l-21 11c4,10 11,17 18,20 10,6 21,7 30,7 18,0 31,-4 39,-13 7,-6 10,-14 10,-25 0,-6 -1,-13 -7,-19 -4,-4 -10,-7 -17,-8 4,-2 8,-4 11,-8 4,-5 5,-10 5,-16 0,-10 -3,-17 -12,-23 -9,-7 -19,-8 -29,-8 -7,0 -17,1 -26,5 -8,3 -14,8 -18,13l17 14zm199 -16c-11,-14 -26,-16 -34,-16 -30,0 -55,23 -55,60 0,31 20,60 55,60 8,0 22,-2 34,-15l0 12 26 0 0 -114 -26 0 0 13zm-31 8c17,0 32,12 32,36 0,24 -15,36 -32,36 -19,0 -31,-16 -31,-36 0,-20 12,-36 31,-36zm175 -21l0 45c0,13 -1,22 -5,29 -3,7 -10,15 -20,15l0 57 24 0 0 -32 79 0 0 32 24 0 0 -57 -17 0 0 -89 -85 0zm59 89l-47 0c7,-5 13,-15 13,-34l0 -31 34 0 0 65zm157 -76c-10,-14 -25,-16 -33,-16 -30,0 -56,23 -56,60 0,31 20,60 55,60 8,0 23,-2 34,-15l0 12 27 0 0 -114 -27 0 0 13zm-30 8c17,0 32,12 32,36 0,24 -15,36 -32,36 -19,0 -32,-16 -32,-36 0,-20 13,-36 32,-36zm102 93l27 0 0 -48 46 0 0 48 27 0 0 -114 -27 0 0 42 -46 0 0 -42 -27 0 0 114zm145 0l27 0 0 -48 47 0 0 48 26 0 0 -114 -26 0 0 42 -47 0 0 -42 -27 0 0 114zm146 0l41 0c11,0 23,0 33,-10 5,-5 10,-14 10,-27 0,-7 -1,-17 -9,-25 -10,-11 -23,-12 -34,-12l-15 0 0 -40 -26 0 0 114zm26 -23l0 -28 12 0c4,0 10,0 14,3 3,2 6,5 6,11 0,7 -4,10 -6,11 -4,3 -9,3 -14,3l-12 0zm70 23l26 0 0 -114 -26 0 0 114zm57 0l32 0 34 -43 32 43 32 0 -48 -62 41 -52 -32 0 -25 33 -25 -33 -31 0 40 52 -50 62zm223 -114l0 122 78 -74 0 66 26 0 0 -124 -77 74 0 -64 -27 0zm300 5c-12,-7 -22,-8 -31,-8 -22,0 -36,8 -45,17 -8,8 -17,22 -17,44 0,20 8,34 16,42 11,12 24,17 43,17 17,0 28,-5 34,-9l0 -29c-9,10 -21,14 -32,14 -10,0 -18,-3 -24,-9 -5,-5 -10,-14 -10,-27 0,-13 5,-21 9,-26 5,-5 13,-10 25,-10 8,0 20,2 32,14l0 -30zm119 19l0 -24 -93 0 0 24 33 0 0 90 27 0 0 -90 33 0zm111 -11c-11,-14 -26,-16 -34,-16 -30,0 -55,23 -55,60 0,31 20,60 55,60 8,0 22,-2 34,-15l0 12 26 0 0 -114 -26 0 0 13zm-31 8c17,0 32,12 32,36 0,24 -15,36 -32,36 -19,0 -31,-16 -31,-36 0,-20 12,-36 31,-36zm181 3l0 -24 -93 0 0 24 33 0 0 90 27 0 0 -90 33 0zm31 -24l0 122 77 -74 0 66 27 0 0 -124 -78 74 0 -64 -26 0zm237 5c-12,-7 -22,-8 -31,-8 -22,0 -37,8 -46,17 -8,8 -17,22 -17,44 0,20 8,34 16,42 11,12 25,17 43,17 18,0 28,-5 35,-9l0 -29c-9,10 -22,14 -33,14 -9,0 -18,-3 -24,-9 -5,-5 -10,-14 -10,-27 0,-13 5,-21 10,-26 5,-5 12,-10 25,-10 8,0 20,2 32,14l0 -30zm118 19l0 -24 -93 0 0 24 34 0 0 90 26 0 0 -90 33 0zm31 -24l0 122 78 -74 0 66 26 0 0 -124 -77 74 0 -64 -27 0zm150 0l0 114 26 0 0 -43 4 -4 38 47 33 0 -52 -64 50 -50 -35 0 -38 41 0 -41 -26 0zm131 0l0 122 77 -74 0 66 27 0 0 -124 -78 74 0 -64 -26 0zm-3330 279l-99 0 0 180 99 0 0 -26 -72 0 0 -57 70 0 0 -25 -70 0 0 -46 72 0 0 -26zm43 66l0 114 53 0c5,0 17,-1 26,-8 6,-4 12,-12 12,-25 0,-11 -3,-18 -9,-22 -4,-4 -10,-7 -15,-8 9,-4 14,-13 14,-22 0,-12 -7,-19 -11,-22 -9,-6 -19,-7 -26,-7l-44 0zm26 45l0 -23 13 0c4,0 8,0 12,2 2,2 4,5 4,9 0,3 -1,7 -5,9 -1,1 -4,3 -10,3l-14 0zm0 47l0 -26 21 0c3,0 9,1 13,3 2,2 5,5 5,10 0,5 -3,9 -5,10 -5,3 -10,3 -14,3l-20 0zm131 9c12,14 28,16 34,16 27,0 55,-22 55,-60 0,-37 -25,-59 -55,-59 -11,0 -24,3 -34,15l0 -13 -26 0 0 176 26 0 0 -75zm31 -80c19,0 31,16 31,37 0,19 -12,36 -31,36 -17,0 -32,-12 -32,-36 0,-25 15,-37 32,-37zm152 -23c-34,0 -60,24 -60,59 0,35 26,60 60,60 35,0 61,-25 61,-60 0,-35 -26,-59 -61,-59zm0 96c-20,0 -33,-15 -33,-36 0,-26 17,-37 33,-37 17,0 34,11 34,37 0,21 -13,36 -34,36zm101 -94l0 114 26 0 0 -89 46 0 0 89 26 0 0 -114 -98 0zm223 76c-2,4 -6,9 -10,12 -6,4 -11,6 -18,6 -7,0 -14,-1 -21,-8 -5,-5 -9,-14 -9,-22l81 0 0 -4c0,-12 -1,-33 -16,-48 -7,-7 -18,-14 -36,-14 -16,0 -29,5 -38,15 -12,12 -18,29 -18,46 0,17 6,33 16,44 11,11 24,14 39,14 12,0 24,-2 33,-8 7,-5 14,-12 19,-21l-22 -12zm-56 -34c1,-6 4,-11 8,-15 3,-3 9,-7 18,-7 9,0 15,3 18,7 4,3 7,9 8,15l-52 0zm119 -42l0 123 77 -75 0 66 27 0 0 -124 -78 75 0 -65 -26 0zm8 -49c6,23 29,32 44,32 15,0 37,-9 44,-32l-22 -6c-4,12 -10,18 -22,18 -7,0 -18,-2 -22,-18l-22 6zm229 55c-12,-7 -22,-8 -31,-8 -22,0 -37,7 -46,16 -8,9 -17,23 -17,44 0,21 8,34 16,43 11,11 25,16 43,16 18,0 29,-4 35,-8l0 -30c-9,10 -22,15 -33,15 -9,0 -18,-4 -24,-9 -5,-6 -10,-14 -10,-28 0,-12 5,-21 10,-26 5,-5 13,-10 25,-10 8,0 20,2 32,14l0 -29zm37 -6l0 114 27 0 0 -42 4 -5 38 47 33 0 -52 -64 50 -50 -35 0 -38 41 0 -41 -27 0zm184 -2c-35,0 -61,24 -61,59 0,35 26,60 61,60 34,0 60,-25 60,-60 0,-35 -26,-59 -60,-59zm0 96c-21,0 -34,-15 -34,-36 0,-26 17,-37 34,-37 16,0 33,11 33,37 0,21 -13,36 -33,36zm100 20l26 0 0 -89 43 0 0 -25 -69 0 0 114zm152 -116c-34,0 -60,24 -60,59 0,35 26,60 60,60 34,0 61,-25 61,-60 0,-35 -27,-59 -61,-59zm0 96c-21,0 -34,-15 -34,-36 0,-26 17,-37 34,-37 17,0 34,11 34,37 0,21 -13,36 -34,36zm155 82l29 0 91 -176 -30 0 -33 67 -32 -67 -32 0 49 96 -42 80zm150 -62l26 0 0 -47 47 0 0 47 27 0 0 -114 -27 0 0 43 -47 0 0 -43 -26 0 0 114zm145 -114l0 123 78 -75 0 66 26 0 0 -124 -77 75 0 -65 -27 0zm150 0l0 114 53 0c5,0 17,-1 26,-8 6,-4 12,-12 12,-25 0,-11 -3,-18 -9,-22 -4,-4 -10,-7 -15,-8 9,-4 14,-13 14,-22 0,-12 -7,-19 -11,-22 -9,-6 -19,-7 -26,-7l-44 0zm26 45l0 -23 13 0c4,0 8,0 12,2 2,2 4,5 4,9 0,3 -1,7 -5,9 -1,1 -4,3 -10,3l-14 0zm0 47l0 -26 21 0c3,0 9,1 13,3 2,2 5,5 5,10 0,5 -3,9 -5,10 -5,3 -10,3 -14,3l-20 0zm184 -16c-2,4 -6,9 -10,12 -6,4 -11,6 -18,6 -7,0 -14,-1 -20,-8 -6,-5 -10,-14 -10,-22l81 0 0 -4c0,-12 -1,-33 -16,-48 -6,-7 -18,-14 -36,-14 -16,0 -29,5 -38,15 -12,12 -18,29 -18,46 0,17 6,33 17,44 10,11 23,14 38,14 12,0 24,-2 33,-8 8,-5 15,-12 19,-21l-22 -12zm-56 -34c1,-6 4,-11 8,-15 3,-3 9,-7 18,-7 9,0 15,3 18,7 4,3 7,9 8,15l-52 0zm145 59c12,14 28,16 34,16 27,0 55,-22 55,-60 0,-37 -25,-59 -55,-59 -11,0 -24,3 -34,15l0 -13 -26 0 0 176 26 0 0 -75zm31 -80c19,0 31,16 31,37 0,19 -12,36 -31,36 -17,0 -32,-12 -32,-36 0,-25 15,-37 32,-37zm186 -15c-13,-7 -23,-8 -31,-8 -23,0 -37,7 -46,16 -8,9 -17,23 -17,44 0,21 8,34 16,43 11,11 24,16 43,16 18,0 28,-4 35,-8l0 -30c-10,10 -22,15 -33,15 -10,0 -18,-4 -24,-9 -5,-6 -10,-14 -10,-28 0,-12 5,-21 9,-26 5,-5 13,-10 25,-10 9,0 20,2 33,14l0 -29zm37 -6l0 123 78 -75 0 66 26 0 0 -124 -78 75 0 -65 -26 0zm228 25l0 -25 -93 0 0 25 33 0 0 89 26 0 0 -89 34 0zm107 51c-2,4 -6,9 -11,12 -5,4 -10,6 -18,6 -6,0 -14,-1 -20,-8 -5,-5 -9,-14 -9,-22l81 0 0 -4c0,-12 -1,-33 -16,-48 -7,-7 -18,-14 -36,-14 -17,0 -29,5 -38,15 -12,12 -18,29 -18,46 0,17 6,33 16,44 11,11 23,14 39,14 12,0 24,-2 33,-8 7,-5 14,-12 19,-21l-22 -12zm-57 -34c2,-6 5,-11 9,-15 3,-3 9,-7 18,-7 9,0 14,3 18,7 4,3 7,9 8,15l-53 0zm198 -17l0 -25 -93 0 0 25 33 0 0 89 26 0 0 -89 34 0zm111 -11c-11,-14 -26,-16 -34,-16 -30,0 -55,22 -55,59 0,31 20,60 55,60 8,0 22,-1 34,-15l0 12 26 0 0 -114 -26 0 0 14zm-31 7c17,0 32,12 32,37 0,24 -15,36 -32,36 -19,0 -31,-17 -31,-36 0,-21 12,-37 31,-37zm-3293 325l0 113 53 0c5,0 17,0 26,-7 6,-5 13,-12 13,-26 0,-10 -4,-17 -9,-22 -5,-4 -10,-6 -16,-7 9,-5 14,-13 14,-23 0,-11 -7,-18 -11,-21 -8,-7 -19,-7 -26,-7l-44 0zm26 44l0 -23 13 0c4,0 8,0 12,3 3,1 4,4 4,8 0,3 0,7 -5,10 0,0 -4,2 -10,2l-14 0zm0 48l0 -26 21 0c4,0 9,0 13,3 3,1 5,4 5,10 0,5 -3,8 -5,10 -4,2 -10,3 -14,3l-20 0zm306 -149c-16,-10 -32,-13 -48,-13 -25,0 -46,6 -65,24 -15,14 -29,37 -29,70 0,25 8,48 29,68 10,10 31,25 64,25 12,0 31,-3 49,-14l0 -32c-10,9 -27,21 -49,21 -38,0 -65,-30 -65,-68 0,-39 26,-68 65,-68 10,0 29,2 49,20l0 -33zm124 70c-11,-14 -25,-16 -34,-16 -30,0 -55,23 -55,59 0,32 20,61 55,61 8,0 22,-2 34,-16l0 12 26 0 0 -113 -26 0 0 13zm-30 8c16,0 32,11 32,36 0,24 -16,36 -32,36 -20,0 -32,-16 -32,-36 0,-20 12,-36 32,-36zm102 92l26 0 0 -47 47 0 0 47 27 0 0 -113 -27 0 0 42 -47 0 0 -42 -26 0 0 113zm145 -113l0 113 26 0 0 -42 5 -4 37 46 34 0 -52 -64 49 -49 -35 0 -38 40 0 -40 -26 0zm212 24l0 -24 -93 0 0 24 33 0 0 89 27 0 0 -89 33 0zm39 46l65 0 0 -28 -65 0 0 28zm112 -136l0 179 27 0 0 -154 77 0 0 154 28 0 0 -179 -132 0zm262 141c-3,4 -6,9 -11,12 -5,5 -11,6 -18,6 -6,0 -14,-1 -20,-7 -6,-6 -9,-15 -10,-23l82 0 0 -3c0,-12 -2,-33 -16,-48 -7,-7 -19,-15 -37,-15 -16,0 -28,6 -38,15 -12,12 -18,29 -18,47 0,17 6,33 17,43 11,11 23,15 38,15 12,0 24,-3 34,-9 7,-4 14,-12 19,-21l-22 -12zm-57 -34c1,-5 4,-11 8,-14 4,-4 10,-7 19,-7 8,0 14,3 18,6 4,4 7,9 8,15l-53 0zm197 -17l0 -24 -92 0 0 24 33 0 0 89 26 0 0 -89 33 0zm108 51c-3,4 -6,9 -11,12 -5,5 -11,6 -18,6 -6,0 -14,-1 -20,-7 -6,-6 -9,-15 -10,-23l82 0 0 -3c0,-12 -2,-33 -16,-48 -7,-7 -19,-15 -37,-15 -16,0 -28,6 -38,15 -12,12 -18,29 -18,47 0,17 6,33 17,43 11,11 23,15 38,15 12,0 24,-3 34,-9 7,-4 14,-12 19,-21l-22 -12zm-57 -34c1,-5 4,-11 8,-14 4,-4 10,-7 19,-7 8,0 14,3 18,6 4,4 7,9 8,15l-53 0zm146 59c11,15 27,17 33,17 27,0 55,-23 55,-61 0,-36 -25,-59 -55,-59 -11,0 -24,4 -33,15l0 -12 -27 0 0 175 27 0 0 -75zm30 -79c19,0 32,16 32,36 0,20 -13,36 -32,36 -17,0 -32,-12 -32,-36 0,-25 15,-36 32,-36z"/>
   <path class="fil0" d="M1862 1370c-2,5 -5,11 -22,15l-19 4c-15,4 -25,12 -34,25 -13,19 -17,44 -17,78 0,15 1,40 19,58 8,7 22,15 42,15 34,0 60,-25 60,-61 0,-18 -6,-33 -16,-43 -10,-10 -22,-16 -40,-16 -11,0 -28,2 -38,16l-1 0c1,-9 4,-23 10,-31 8,-11 19,-14 29,-17l18 -5c18,-5 32,-19 36,-38l-27 0zm-31 171c-21,0 -34,-14 -34,-36 0,-26 17,-36 34,-36 16,0 33,10 33,36 0,22 -13,36 -33,36zm92 82l29 0 90 -175 -29 0 -33 66 -32 -66 -32 0 48 96 -41 79zm176 -75c12,15 28,17 34,17 27,0 55,-23 55,-61 0,-36 -25,-59 -55,-59 -11,0 -24,4 -34,15l0 -12 -26 0 0 175 26 0 0 -75zm31 -79c19,0 31,16 31,36 0,20 -12,36 -31,36 -17,0 -32,-12 -32,-36 0,-25 15,-36 32,-36zm98 92l26 0 0 -89 43 0 0 -24 -69 0 0 113zm177 -38c-2,4 -6,9 -11,12 -5,5 -10,6 -18,6 -6,0 -14,-1 -20,-7 -5,-6 -9,-15 -10,-23l82 0 0 -3c0,-12 -2,-33 -16,-48 -7,-7 -18,-15 -36,-15 -17,0 -29,6 -38,15 -12,12 -18,29 -18,47 0,17 5,33 16,43 11,11 23,15 38,15 13,0 25,-3 34,-9 7,-4 14,-12 19,-21l-22 -12zm-57 -34c2,-5 5,-11 8,-14 4,-4 10,-7 19,-7 9,0 14,3 18,6 4,4 7,9 8,15l-53 0z"/>
  </g>
 </g>
</svg>
