<svg xmlns="http://www.w3.org/2000/svg" xml:space="preserve" width="3151px" height="1347px" version="1.1" style="shape-rendering:geometricPrecision; text-rendering:geometricPrecision; image-rendering:optimizeQuality; fill-rule:evenodd; clip-rule:evenodd"
viewBox="0 0 3174 1357"
 xmlns:xlink="http://www.w3.org/1999/xlink">
 <defs>
  <style type="text/css">
   <![CDATA[
    .fil1 {fill:#FEFEFE}
    .fil0 {fill:#A8D4AF;fill-rule:nonzero}
   ]]>
  </style>
 </defs>
 <g id="Слой_x0020_1">
  <metadata id="CorelCorpID_0Corel-Layer"/>
  <g id="_2405235948240">
   <path class="fil0" d="M1713 1324c4,14 -4,28 -18,32 -13,4 -28,-4 -32,-18l-347 -1217 -346 1217c-4,14 -19,22 -33,18 -13,-4 -21,-18 -17,-32l371 -1305c3,-8 9,-15 18,-18 14,-4 29,4 33,18l371 1305z"/>
   <path class="fil0" d="M2162 678c0,14 -11,26 -26,26 -14,0 -26,-12 -26,-26 0,-29 -12,-56 -31,-76 -20,-19 -46,-31 -76,-31 -30,0 -55,10 -73,28 -18,17 -28,42 -28,71 0,21 8,46 29,69 17,19 43,36 79,47 54,17 104,41 139,76 32,32 51,71 51,120 -1,58 -22,106 -56,140 -36,36 -86,57 -141,57 -54,0 -103,-22 -139,-58 -36,-36 -58,-85 -58,-139 0,-15 12,-26 26,-26 15,0 27,11 27,26 0,40 16,76 42,102 26,26 62,42 102,42 41,0 78,-14 104,-41 25,-25 40,-61 41,-103 0,-34 -13,-61 -35,-83 -29,-28 -72,-49 -118,-63 -46,-14 -80,-37 -103,-63 -30,-32 -43,-70 -43,-103 0,-44 17,-81 44,-108 28,-27 66,-43 110,-43 44,0 84,18 113,47 28,28 46,68 46,112z"/>
   <path class="fil0" d="M2317 599c-15,0 -26,-12 -26,-26 0,-14 11,-26 26,-26l518 0c15,0 26,12 26,26 0,14 -11,26 -26,26l-233 0 0 544c0,14 -12,26 -26,26 -14,0 -26,-12 -26,-26l0 -544 -233 0z"/>
   <path class="fil0" d="M52 1143c0,15 -12,26 -26,26 -15,0 -26,-12 -26,-26l7 -598c0,-14 12,-26 26,-26 10,1 18,6 22,13l330 559 323 -559c7,-12 23,-16 36,-9 8,5 13,14 12,24l0 596c0,14 -11,26 -26,26 -14,0 -25,-12 -25,-26l0 -501 -297 513c-2,4 -5,8 -10,10 -12,8 -28,4 -35,-9l-305 -517 -6 504z"/>
   <path class="fil1" d="M3128 951c0,2 3,17 4,34 1,18 1,41 -2,60 -4,24 -13,48 -30,66 -20,21 -51,31 -79,31 -28,0 -57,-10 -77,-30 -18,-18 -25,-42 -25,-67 0,-14 3,-28 7,-40 10,-25 32,-34 57,-33 12,1 34,3 43,12 11,13 9,38 4,51 0,2 -2,8 -10,9 -4,0 -14,0 -19,-2 -3,0 -4,-4 -4,-7 0,-6 4,-13 4,-18 0,-3 -2,-5 -5,-6 -6,-2 -22,-7 -30,4 -3,4 -7,18 -6,28 2,13 9,22 16,27 8,5 21,8 34,9 15,1 31,-2 40,-9 18,-14 21,-30 23,-51 4,-35 -11,-68 -47,-80 -53,-20 -117,-8 -139,50 -20,51 -13,113 26,153 42,44 115,51 169,30 40,-16 66,-44 80,-84 8,-23 11,-47 12,-71 0,-12 -1,-23 -1,-32 -1,-9 -3,-20 -4,-27 -1,-5 -5,-5 -6,-6l-26 -5c-3,-1 -8,-1 -9,4l0 0z"/>
  </g>
 </g>
</svg>
