<svg width="54" height="54" viewBox="0 0 54 54" fill="none" xmlns="http://www.w3.org/2000/svg">
<path d="M4.5 9C4.5 8.40326 4.73705 7.83097 5.15901 7.40901C5.58097 6.98705 6.15326 6.75 6.75 6.75H47.25C47.8467 6.75 48.419 6.98705 48.841 7.40901C49.2629 7.83097 49.5 8.40326 49.5 9C49.5 9.59674 49.2629 10.169 48.841 10.591C48.419 11.0129 47.8467 11.25 47.25 11.25H6.75C6.15326 11.25 5.58097 11.0129 5.15901 10.591C4.73705 10.169 4.5 9.59674 4.5 9V9ZM6.75 29.25H47.25C47.8467 29.25 48.419 29.0129 48.841 28.591C49.2629 28.169 49.5 27.5967 49.5 27C49.5 26.4033 49.2629 25.831 48.841 25.409C48.419 24.9871 47.8467 24.75 47.25 24.75H6.75C6.15326 24.75 5.58097 24.9871 5.15901 25.409C4.73705 25.831 4.5 26.4033 4.5 27C4.5 27.5967 4.73705 28.169 5.15901 28.591C5.58097 29.0129 6.15326 29.25 6.75 29.25V29.25ZM6.75 47.25H47.25C47.8467 47.25 48.419 47.0129 48.841 46.591C49.2629 46.169 49.5 45.5967 49.5 45C49.5 44.4033 49.2629 43.831 48.841 43.409C48.419 42.9871 47.8467 42.75 47.25 42.75H6.75C6.15326 42.75 5.58097 42.9871 5.15901 43.409C4.73705 43.831 4.5 44.4033 4.5 45C4.5 45.5967 4.73705 46.169 5.15901 46.591C5.58097 47.0129 6.15326 47.25 6.75 47.25V47.25Z" fill="#A8D4AF"/>
</svg>
