<?xml version="1.0" encoding="UTF-8"?>
<!DOCTYPE svg PUBLIC "-//W3C//DTD SVG 1.1//EN" "http://www.w3.org/Graphics/SVG/1.1/DTD/svg11.dtd">
<!-- Creator: CorelDRAW X8 -->
<svg xmlns="http://www.w3.org/2000/svg" xml:space="preserve" width="5071px" height="2852px" version="1.1" style="shape-rendering:geometricPrecision; text-rendering:geometricPrecision; image-rendering:optimizeQuality; fill-rule:evenodd; clip-rule:evenodd"
viewBox="0 0 9217 5185"
 xmlns:xlink="http://www.w3.org/1999/xlink">
 <defs>
  <style type="text/css">
   <![CDATA[
    .str0 {stroke:#7688A1;stroke-width:4.29388;stroke-opacity:0.321569}
    .str1 {stroke:#7688A1;stroke-width:4.29388;stroke-opacity:0.741176}
    .fil5 {fill:none}
    .fil2 {fill:none}
    .fil1 {fill:none;fill-rule:nonzero}
    .fil4 {fill:none}
    .fil3 {fill:none;fill-rule:nonzero}
    .fil0 {fill:#0D2F6D}
   ]]>
  </style>
   <clipPath id="id0">
    <path d="M0 0l9217 0 0 5185 -9217 0 0 -5185z"/>
   </clipPath>
 </defs>
 <g id="Слой_x0020_1">
  <metadata id="CorelCorpID_0Corel-Layer"/>
  <polygon class="fil0" points="0,0 9217,0 9217,5185 0,5185 "/>
  <g style="clip-path:url(#id0)">
   <g id="_2405235937360">
    <g>
     <polygon id="1" class="fil1 str0" points="11606,1338 11542,1275 11529,1197 11443,1149 11410,1077 11314,1052 11264,992 11165,992 11101,947 11006,973 10932,946 10847,996 10768,989 10699,1059 10622,1072 10573,1158 10501,1191 10476,1287 10416,1337 10417,1436 10371,1500 10397,1595 10370,1669 10420,1754 10413,1832 10483,1902 10497,1979 10582,2028 10615,2100 10711,2124 10761,2185 10860,2184 10924,2230 11019,2203 11093,2231 11178,2181 11257,2188 11326,2118 11404,2104 11452,2019 11524,1985 11549,1890 11609,1840 11609,1741 11654,1677 11628,1582 11655,1508 11605,1423 11612,1344 "/>
     <g>
      <path class="fil2 str0" d="M11718 1291c-25,-25 -51,-50 -76,-75 -5,-31 -11,-62 -16,-93 -34,-19 -68,-38 -102,-57 -13,-29 -26,-57 -39,-86 -38,-9 -76,-19 -114,-29 -20,-24 -40,-48 -60,-72 -39,0 -78,0 -117,1 -25,-18 -51,-36 -76,-54 -38,10 -76,21 -113,31 -30,-11 -59,-22 -88,-32 -34,19 -68,39 -101,59 -31,-3 -63,-6 -94,-9 -27,28 -55,56 -82,84 -31,5 -62,11 -92,16 -20,34 -39,68 -58,102 -29,13 -57,26 -85,39 -10,38 -20,76 -30,114 -24,20 -48,40 -72,60 0,39 1,78 1,117 -18,25 -36,51 -54,76 10,38 21,76 31,113 -11,30 -21,59 -32,88 20,34 39,68 59,101 -3,31 -6,62 -8,94 28,27 55,55 83,82 6,31 11,62 16,92 34,20 68,39 102,58 13,29 26,57 39,85 38,10 76,20 114,30 20,24 40,48 60,72 39,0 78,-1 117,-1 26,18 51,36 77,54 37,-11 75,-21 113,-31 29,10 58,21 87,32 34,-20 68,-39 102,-59 31,3 62,5 93,8 27,-28 55,-55 82,-83 31,-6 62,-11 93,-16 19,-34 38,-68 57,-102 29,-13 57,-26 85,-39 10,-38 20,-76 30,-114 24,-20 48,-40 72,-60 0,-39 -1,-78 -1,-117 18,-26 36,-51 54,-77 -10,-37 -21,-75 -31,-113 11,-29 22,-58 32,-88 -19,-33 -39,-67 -59,-101 3,-31 6,-62 9,-93 -3,-2 -5,-5 -8,-7z"/>
      <path class="fil2 str0" d="M11830 1244c-29,-29 -59,-58 -88,-87 -6,-36 -12,-72 -19,-107 -39,-23 -78,-45 -118,-67 -15,-33 -30,-66 -45,-99 -44,-12 -88,-23 -132,-34 -23,-28 -46,-56 -69,-84 -46,1 -91,1 -136,1 -30,-21 -59,-42 -89,-62 -43,12 -87,24 -131,36 -34,-13 -68,-25 -102,-38 -39,23 -78,46 -117,69 -36,-3 -72,-7 -108,-10 -32,32 -63,65 -95,97 -36,6 -72,12 -107,18 -23,40 -45,79 -67,119 -33,15 -66,30 -99,45 -11,44 -23,88 -34,132 -28,23 -56,46 -84,69 1,45 1,91 1,136 -20,30 -41,59 -62,89 12,43 24,87 36,131 -12,34 -25,68 -38,101 23,40 46,79 69,118 -3,36 -6,72 -10,108 33,32 65,63 97,95 6,36 13,71 19,107 39,22 78,45 118,67 15,33 30,66 45,99 44,11 88,23 132,34 23,28 46,56 69,84 46,-1 91,-1 136,-2 30,21 59,42 89,63 44,-12 87,-24 131,-36 34,12 68,25 102,37 39,-22 78,-45 117,-68 36,3 72,6 108,10 32,-33 64,-65 95,-97 36,-6 72,-13 107,-19 23,-39 45,-79 67,-118 33,-15 66,-30 99,-45 11,-44 23,-88 34,-132 28,-23 56,-46 84,-69 -1,-46 -1,-91 -1,-136 21,-30 41,-59 62,-89 -12,-44 -24,-87 -36,-131 13,-34 25,-68 38,-102 -23,-39 -46,-78 -69,-117 3,-36 6,-72 10,-108 -3,-3 -6,-6 -9,-8z"/>
      <path class="fil2 str0" d="M11942 1196c-33,-33 -67,-66 -100,-99 -7,-40 -14,-81 -21,-121 -45,-26 -90,-51 -134,-77 -18,-37 -35,-74 -52,-112 -50,-13 -100,-26 -150,-39 -26,-31 -52,-63 -79,-95 -51,1 -103,1 -154,2 -34,-24 -67,-48 -101,-72 -50,14 -99,28 -149,42 -39,-15 -77,-29 -116,-43 -44,26 -89,52 -133,78 -41,-4 -82,-7 -123,-11 -36,37 -72,73 -108,110 -41,7 -82,14 -122,21 -26,45 -51,90 -76,134 -38,18 -75,35 -113,52 -12,50 -25,100 -38,150 -32,26 -64,52 -95,79 0,51 0,103 1,154 -24,34 -48,67 -71,101 13,50 27,99 41,149 -14,39 -29,77 -43,116 26,44 52,88 78,133 -3,41 -7,82 -11,123 37,36 74,72 110,108 7,41 14,81 21,122 45,25 90,51 135,76 17,38 34,75 51,112 50,13 100,26 150,39 26,32 53,64 79,95 51,0 103,-1 154,-1 34,24 68,48 101,71 50,-13 100,-27 149,-41 39,14 77,29 116,43 44,-26 89,-52 133,-78 41,3 82,7 123,11 36,-37 72,-74 109,-110 40,-7 81,-14 121,-21 26,-45 51,-90 76,-135 38,-17 75,-34 113,-51 13,-50 26,-100 38,-150 32,-26 64,-53 95,-79 0,-51 0,-103 -1,-155 24,-33 48,-67 71,-100 -13,-50 -27,-100 -41,-149 15,-39 29,-77 43,-116 -26,-44 -52,-89 -78,-133 4,-41 7,-82 11,-123 -3,-3 -6,-7 -10,-10z"/>
      <path class="fil2 str0" d="M12054 1149c-37,-37 -75,-74 -112,-111 -8,-45 -16,-91 -24,-136 -50,-29 -100,-57 -150,-86 -20,-42 -39,-83 -58,-125 -56,-15 -112,-29 -168,-44 -29,-35 -59,-71 -88,-106 -58,0 -116,1 -174,1 -37,-27 -75,-53 -112,-80 -56,16 -112,31 -167,46 -44,-16 -87,-31 -130,-47 -50,29 -100,58 -149,87 -46,-4 -92,-8 -138,-12 -41,41 -81,82 -122,123 -45,8 -91,16 -136,24 -28,50 -57,100 -85,150 -42,19 -84,39 -126,58 -15,56 -29,112 -44,168 -35,29 -71,59 -106,88 0,58 1,116 1,173 -26,38 -53,76 -79,113 15,56 30,112 46,167 -16,43 -32,87 -48,130 29,50 58,99 87,149 -4,46 -8,92 -12,138 41,40 82,81 123,122 8,45 16,90 24,136 50,28 100,57 150,85 20,42 39,84 58,126 56,15 112,29 168,44 29,35 59,70 88,106 58,0 116,-1 174,-1 37,26 75,53 113,79 55,-15 111,-30 166,-46 44,16 87,32 130,48 50,-29 100,-58 149,-88 46,5 92,9 138,13 41,-41 81,-82 122,-123 45,-8 91,-16 136,-24 29,-50 57,-100 86,-150 41,-20 83,-39 125,-58 15,-56 29,-112 44,-168 35,-29 71,-59 106,-88 0,-58 -1,-116 -1,-174 26,-37 53,-75 80,-113 -16,-55 -31,-111 -46,-167 15,-43 31,-86 47,-129 -29,-50 -58,-100 -87,-149 4,-46 8,-92 12,-138 -3,-4 -7,-7 -11,-11z"/>
      <path class="fil2 str0" d="M12167 1102c-42,-41 -84,-82 -125,-123 -9,-50 -17,-101 -26,-151 -56,-32 -111,-63 -167,-95 -21,-46 -43,-93 -64,-139 -62,-16 -124,-32 -186,-48 -32,-39 -65,-79 -98,-118 -64,0 -128,1 -192,1 -41,-29 -83,-58 -125,-88 -61,17 -123,34 -185,51 -48,-17 -95,-35 -143,-53 -55,33 -110,65 -166,97 -50,-4 -101,-9 -152,-14 -45,46 -90,91 -135,137 -50,9 -101,17 -151,26 -31,56 -63,111 -94,167 -47,21 -93,43 -140,64 -16,62 -32,124 -48,186 -39,32 -78,65 -118,98 1,64 1,128 2,192 -30,41 -59,83 -89,125 17,61 34,123 51,185 -17,47 -35,95 -53,143 33,55 65,110 98,165 -5,51 -10,102 -14,153 45,45 91,90 136,135 9,50 18,100 26,151 56,31 111,63 167,94 21,47 43,93 64,140 62,16 124,32 186,48 33,39 65,78 98,118 64,-1 128,-1 192,-2 41,30 83,59 125,89 61,-17 123,-34 185,-52 48,18 96,36 143,53 56,-32 111,-64 166,-97 51,5 101,10 152,14 45,-45 90,-91 135,-136 50,-9 101,-18 151,-26 32,-56 63,-112 95,-167 46,-22 92,-43 139,-64 16,-62 32,-124 48,-186 39,-33 79,-65 118,-98 -1,-64 -1,-128 -2,-192 30,-42 59,-83 89,-125 -17,-62 -34,-123 -51,-185 17,-48 35,-96 53,-144 -33,-55 -65,-110 -97,-165 4,-51 9,-101 14,-152 -4,-4 -8,-8 -12,-12z"/>
      <path class="fil2 str0" d="M12279 1054c-46,-44 -92,-89 -137,-134 -10,-56 -19,-111 -29,-166 -61,-35 -122,-69 -183,-104 -23,-51 -47,-102 -70,-152 -68,-18 -136,-36 -204,-53 -36,-44 -71,-87 -107,-130 -71,1 -141,1 -211,2 -46,-32 -91,-65 -137,-97 -68,19 -135,37 -203,56 -52,-19 -105,-39 -158,-58 -60,35 -120,71 -181,106 -56,-5 -111,-10 -167,-15 -50,50 -99,100 -148,150 -55,10 -111,19 -166,29 -34,61 -69,122 -104,183 -50,23 -101,47 -152,70 -18,68 -36,136 -53,204 -43,36 -86,71 -129,107 0,70 1,141 1,211 -32,45 -64,91 -97,137 19,68 38,135 56,203 -19,52 -39,105 -58,157 36,61 71,121 107,182 -6,56 -11,111 -16,167 50,49 100,99 150,148 10,55 19,110 29,166 61,34 122,69 183,103 23,51 47,102 70,153 68,18 136,35 204,53 36,43 72,86 107,129 71,0 141,-1 211,-1 46,32 91,64 137,97 68,-19 135,-38 203,-56 53,19 105,38 158,58 60,-36 121,-71 181,-107 56,5 112,11 167,16 50,-50 99,-100 148,-150 55,-10 111,-19 166,-29 34,-61 69,-122 104,-183 51,-23 101,-47 152,-70 18,-68 36,-136 53,-204 43,-36 87,-72 130,-108 -1,-70 -1,-140 -2,-210 32,-46 65,-91 97,-137 -19,-68 -37,-135 -56,-203 19,-53 39,-105 58,-158 -35,-60 -71,-121 -106,-181 5,-56 10,-112 15,-167 -5,-5 -9,-9 -13,-14z"/>
      <path class="fil2 str0" d="M12391 1007c-50,-49 -100,-98 -149,-146 -11,-61 -21,-121 -31,-181 -67,-37 -133,-75 -199,-113 -26,-55 -52,-111 -77,-166 -74,-19 -148,-38 -222,-58 -39,-47 -78,-94 -117,-140 -76,0 -153,1 -229,1 -50,-35 -100,-70 -149,-105 -74,20 -148,40 -221,61 -57,-21 -115,-42 -172,-64 -66,39 -131,78 -197,116 -61,-5 -122,-11 -182,-16 -54,54 -108,109 -161,163 -60,10 -121,21 -181,31 -37,67 -75,133 -113,199 -55,26 -110,51 -166,77 -19,74 -38,148 -57,222 -47,39 -94,78 -141,117 0,76 1,153 2,229 -36,50 -71,99 -106,149 20,74 41,147 61,221 -21,57 -42,114 -63,172 38,65 77,131 116,197 -6,61 -11,122 -17,182 54,54 109,108 163,161 11,60 21,120 31,181 67,37 133,75 200,113 25,55 51,110 76,166 74,19 148,38 222,57 39,47 78,94 117,141 76,0 153,-1 229,-2 50,36 100,71 149,106 74,-20 148,-41 221,-61 58,21 115,42 172,63 66,-38 131,-77 197,-116 61,6 122,11 183,17 53,-54 107,-109 160,-163 61,-11 121,-21 181,-31 37,-67 75,-133 113,-200 55,-25 111,-51 166,-76 19,-74 38,-148 58,-222 47,-39 93,-78 140,-117 0,-76 -1,-153 -1,-229 35,-50 70,-100 105,-150 -20,-73 -41,-147 -61,-220 21,-58 42,-115 63,-172 -38,-66 -77,-132 -116,-197 6,-61 12,-122 17,-183 -5,-4 -9,-9 -14,-14z"/>
      <path class="fil2 str0" d="M12503 960c-54,-53 -108,-106 -161,-159 -11,-65 -23,-130 -34,-195 -72,-40 -143,-81 -215,-122 -28,-60 -55,-120 -83,-180 -80,-20 -160,-41 -240,-62 -42,-51 -84,-101 -126,-152 -83,0 -166,1 -248,2 -54,-38 -108,-76 -162,-114 -79,22 -159,44 -238,66 -62,-23 -124,-46 -186,-69 -71,42 -142,84 -213,126 -66,-6 -132,-13 -197,-19 -58,59 -116,118 -174,177 -65,11 -130,22 -195,34 -41,71 -82,143 -123,215 -60,28 -120,55 -179,83 -21,80 -42,160 -63,240 -50,42 -101,84 -152,126 1,83 1,166 2,248 -38,54 -76,108 -114,162 22,79 44,159 66,238 -23,62 -46,124 -69,186 42,71 84,142 126,213 -6,66 -12,132 -18,197 59,58 117,116 176,174 12,65 23,130 34,195 72,41 144,82 215,123 28,60 56,119 83,179 80,21 160,42 240,63 42,50 84,101 127,152 82,-1 165,-1 247,-2 54,38 108,76 162,114 79,-22 159,-44 239,-66 61,23 123,46 185,69 71,-42 142,-84 214,-126 65,6 131,12 197,18 58,-59 116,-118 174,-176 65,-12 130,-23 195,-34 40,-72 81,-144 122,-215 60,-28 120,-56 180,-83 20,-80 41,-160 62,-240 51,-42 101,-84 152,-127 -1,-82 -1,-165 -2,-247 38,-54 76,-108 114,-162 -22,-79 -44,-159 -66,-239 23,-62 46,-123 69,-185 -42,-71 -84,-142 -126,-214 6,-65 12,-131 18,-197 -5,-5 -10,-10 -15,-15z"/>
      <path class="fil2 str0" d="M12615 913c-58,-57 -115,-114 -173,-171 -12,-70 -24,-140 -36,-210 -77,-43 -155,-87 -232,-131 -30,-64 -59,-129 -89,-193 -86,-23 -172,-45 -258,-67 -45,-55 -91,-109 -136,-164 -89,1 -178,1 -266,2 -58,-41 -116,-82 -174,-122 -86,23 -171,47 -257,70 -66,-24 -133,-49 -199,-73 -77,45 -153,90 -230,135 -70,-7 -141,-13 -212,-20 -62,63 -124,127 -187,190 -70,12 -139,24 -209,36 -44,77 -88,155 -132,232 -64,30 -129,59 -193,89 -22,86 -45,172 -67,258 -55,45 -109,90 -164,136 1,89 2,177 2,266 -41,58 -81,116 -122,174 23,85 47,171 71,257 -25,66 -49,133 -74,199 45,77 90,153 135,230 -7,70 -13,141 -20,212 64,62 127,124 190,187 12,69 24,139 36,209 78,44 155,88 232,132 30,64 59,129 89,193 86,22 172,45 258,67 45,54 91,109 136,164 89,-1 178,-2 267,-2 57,40 115,81 173,122 86,-23 171,-47 257,-71 66,25 133,49 199,74 77,-45 153,-90 230,-135 70,7 141,13 212,20 62,-64 124,-127 187,-190 70,-12 140,-24 209,-36 44,-78 88,-155 132,-232 64,-30 129,-60 193,-89 22,-86 45,-172 67,-258 55,-45 109,-91 164,-136 -1,-89 -2,-178 -2,-267 41,-57 82,-115 122,-173 -23,-86 -47,-171 -70,-257 24,-66 49,-133 73,-199 -45,-77 -90,-153 -135,-230 7,-71 13,-141 20,-212 -6,-5 -11,-11 -17,-16z"/>
      <path class="fil2 str0" d="M12727 865c-62,-60 -123,-121 -185,-182 -13,-75 -26,-150 -39,-224 -82,-47 -165,-94 -248,-141 -31,-69 -63,-138 -95,-207 -92,-24 -184,-48 -276,-71 -48,-59 -97,-117 -145,-176 -95,1 -190,2 -286,3 -61,-44 -123,-88 -185,-132 -92,26 -183,51 -275,76 -71,-26 -142,-52 -213,-79 -82,49 -164,97 -246,145 -76,-7 -151,-14 -227,-21 -66,68 -133,135 -200,203 -75,13 -149,26 -224,39 -47,82 -94,165 -141,248 -69,31 -138,63 -207,95 -23,92 -47,184 -71,276 -59,48 -117,97 -175,145 0,95 1,190 2,285 -44,62 -88,124 -131,186 25,92 50,183 75,275 -26,71 -52,142 -78,213 48,82 96,164 144,246 -7,76 -14,151 -21,227 68,66 136,133 203,200 13,75 26,149 39,224 83,47 165,94 248,141 32,69 63,138 95,207 92,23 184,47 276,71 48,59 97,117 146,175 95,0 190,-1 285,-2 62,44 123,88 185,131 92,-25 184,-50 275,-75 71,26 142,52 214,78 81,-48 163,-96 245,-144 76,7 151,14 227,21 67,-68 133,-136 200,-203 75,-13 150,-26 224,-39 47,-83 94,-165 141,-248 69,-32 138,-63 207,-95 24,-92 48,-184 71,-276 59,-49 117,-97 176,-146 -1,-95 -2,-190 -3,-285 44,-62 88,-124 132,-185 -26,-92 -51,-184 -76,-275 26,-71 52,-143 78,-214 -48,-82 -96,-163 -144,-245 7,-76 14,-151 21,-227 -6,-6 -12,-12 -18,-18z"/>
      <path class="fil2 str0" d="M12839 818c-66,-65 -131,-130 -197,-194 -14,-80 -28,-160 -41,-239 -88,-50 -176,-100 -264,-150 -34,-74 -68,-147 -102,-220 -98,-26 -196,-51 -294,-77 -52,-62 -103,-124 -155,-186 -101,0 -202,1 -304,2 -66,-47 -132,-93 -198,-140 -97,27 -195,54 -292,81 -76,-28 -152,-56 -228,-84 -87,51 -174,103 -261,154 -81,-8 -161,-15 -242,-22 -71,72 -142,144 -213,216 -80,14 -159,28 -239,41 -50,88 -100,176 -150,264 -73,34 -147,68 -220,102 -26,98 -51,196 -77,294 -62,51 -124,103 -186,155 1,101 1,202 2,304 -46,66 -93,132 -140,197 27,98 54,196 81,293 -28,76 -56,152 -84,228 52,87 103,174 154,261 -7,81 -15,161 -22,242 72,71 144,142 216,213 14,80 28,159 41,239 88,50 177,100 265,150 33,73 67,147 101,220 98,26 196,51 294,76 52,63 103,125 155,187 101,-1 203,-1 304,-2 66,46 132,93 198,140 97,-27 195,-54 292,-81 76,28 152,56 228,84 87,-52 174,-103 261,-154 81,7 161,15 242,22 71,-72 142,-144 213,-216 80,-14 160,-28 239,-42 50,-88 100,-176 150,-264 73,-33 147,-67 220,-101 26,-98 51,-196 77,-294 62,-52 124,-103 186,-155 -1,-101 -1,-203 -2,-304 47,-66 93,-132 140,-198 -27,-97 -54,-195 -81,-292 28,-76 56,-152 84,-228 -51,-87 -103,-174 -154,-262 8,-80 15,-161 22,-241 -6,-6 -12,-13 -19,-19z"/>
      <path class="fil2 str0" d="M12951 771c-70,-69 -139,-138 -209,-207 -15,-84 -29,-169 -44,-253 -93,-53 -187,-106 -280,-159 -36,-78 -72,-156 -108,-234 -104,-27 -208,-54 -312,-81 -55,-66 -110,-132 -165,-198 -107,1 -214,2 -322,2 -70,-49 -140,-99 -210,-148 -103,29 -207,57 -311,86 -80,-30 -160,-60 -241,-89 -93,54 -185,109 -278,163 -85,-8 -171,-16 -256,-24 -75,77 -151,154 -226,230 -85,15 -169,29 -254,44 -53,93 -106,187 -159,280 -78,36 -156,72 -234,108 -27,104 -54,208 -81,312 -66,55 -132,110 -198,164 1,108 2,215 3,323 -50,70 -99,140 -149,210 29,103 57,207 86,310 -30,81 -59,161 -89,242 54,92 109,185 163,278 -8,85 -16,170 -23,256 76,75 153,151 229,226 15,85 29,169 44,254 93,53 187,106 280,159 36,78 72,156 108,234 104,27 208,54 312,81 55,66 110,132 165,198 107,-1 215,-2 322,-3 70,50 140,99 210,149 104,-29 207,-58 311,-86 80,30 161,59 241,89 93,-54 185,-109 278,-163 85,8 171,16 256,23 76,-76 151,-153 226,-229 85,-15 170,-30 254,-44 53,-93 106,-187 159,-280 78,-36 156,-72 234,-108 27,-104 54,-208 81,-312 66,-55 132,-110 198,-165 -1,-107 -2,-215 -2,-322 49,-70 98,-140 148,-210 -29,-104 -57,-207 -86,-311 30,-80 59,-161 89,-241 -54,-93 -109,-185 -163,-278 8,-85 16,-171 24,-256 -7,-7 -14,-14 -21,-20z"/>
      <path class="fil2 str0" d="M13063 724c-74,-73 -147,-146 -221,-219 -16,-89 -31,-179 -46,-268 -99,-56 -198,-112 -297,-168 -38,-83 -76,-165 -114,-248 -110,-28 -220,-57 -330,-85 -58,-70 -116,-140 -174,-210 -114,1 -227,2 -341,3 -74,-53 -148,-105 -222,-157 -110,30 -219,60 -329,91 -85,-32 -170,-63 -255,-95 -98,58 -196,115 -294,173 -90,-8 -181,-17 -271,-25 -80,81 -160,162 -239,243 -90,16 -179,31 -269,46 -56,99 -112,198 -168,297 -82,38 -165,76 -247,114 -29,110 -58,220 -86,330 -70,58 -140,116 -210,174 1,114 2,227 3,341 -52,74 -105,148 -157,222 30,110 61,219 91,329 -32,85 -63,170 -94,255 57,98 115,196 172,294 -8,90 -16,181 -25,271 81,80 162,160 243,239 16,90 31,179 47,269 98,56 197,112 296,168 38,82 76,165 114,247 110,29 220,57 330,86 58,70 116,140 174,209 114,0 228,-1 341,-2 74,52 148,105 222,157 110,-30 219,-61 329,-91 85,32 170,63 255,94 98,-57 196,-115 294,-172 90,8 181,16 271,25 80,-81 160,-162 240,-243 89,-16 179,-31 268,-47 56,-98 112,-197 168,-296 83,-38 165,-76 248,-114 28,-110 57,-220 85,-330 70,-58 140,-116 210,-174 -1,-114 -2,-228 -3,-341 52,-74 105,-148 157,-222 -30,-110 -60,-220 -91,-329 32,-85 63,-170 95,-255 -58,-98 -116,-196 -173,-294 8,-90 17,-181 25,-271 -7,-7 -14,-14 -22,-21z"/>
      <path class="fil2 str0" d="M13175 676c-77,-76 -155,-153 -233,-230 -16,-94 -33,-189 -49,-283 -104,-59 -208,-118 -313,-177 -40,-87 -80,-174 -120,-261 -116,-30 -232,-60 -348,-91 -61,-73 -122,-147 -184,-221 -119,1 -239,2 -359,3 -78,-55 -156,-110 -235,-165 -115,32 -231,63 -346,95 -90,-33 -180,-66 -269,-99 -104,61 -207,121 -310,182 -96,-9 -191,-17 -286,-26 -84,85 -169,171 -253,256 -94,16 -188,33 -283,49 -59,104 -118,208 -177,313 -87,40 -174,80 -261,120 -30,116 -60,232 -90,348 -74,61 -148,122 -221,183 1,120 2,240 2,360 -55,78 -110,156 -165,234 32,116 64,232 96,347 -33,90 -67,180 -100,269 61,104 122,207 182,310 -9,95 -17,191 -26,286 85,84 171,168 256,253 17,94 33,188 49,283 104,59 209,118 313,177 40,87 80,174 120,261 116,30 232,60 348,90 61,74 122,148 184,221 120,-1 239,-2 359,-3 78,56 157,111 235,166 115,-32 231,-64 346,-96 90,33 180,67 270,100 103,-61 206,-122 309,-182 96,8 191,17 286,26 85,-86 169,-171 253,-256 94,-17 189,-33 283,-49 59,-104 118,-209 177,-313 87,-40 174,-80 261,-120 30,-116 60,-232 90,-348 74,-61 148,-123 221,-184 0,-120 -1,-240 -2,-359 55,-79 110,-157 165,-235 -32,-115 -64,-231 -95,-346 33,-90 66,-180 99,-270 -61,-103 -121,-206 -182,-309 9,-96 17,-191 26,-286 -7,-8 -15,-15 -23,-23z"/>
      <path class="fil2 str0" d="M13288 629c-82,-81 -164,-161 -246,-242 -17,-99 -34,-199 -51,-298 -110,-62 -220,-124 -329,-186 -43,-92 -85,-183 -127,-275 -122,-31 -244,-63 -366,-95 -64,-77 -129,-155 -193,-232 -126,1 -252,2 -378,3 -83,-58 -165,-116 -247,-174 -121,33 -243,67 -364,100 -95,-35 -189,-69 -284,-104 -108,63 -217,127 -325,191 -101,-9 -201,-18 -301,-28 -89,90 -177,180 -266,270 -99,17 -198,34 -298,51 -62,110 -124,220 -186,329 -92,42 -183,85 -275,127 -31,122 -63,244 -95,366 -77,64 -155,129 -232,193 1,126 2,252 3,378 -58,82 -116,165 -174,247 33,121 67,243 100,364 -34,95 -69,189 -104,284 64,108 128,217 191,325 -9,101 -18,201 -27,301 90,89 180,177 269,266 17,99 35,198 52,298 109,62 219,124 328,186 43,92 85,183 127,274 122,32 244,64 366,96 64,77 129,154 193,232 126,-1 252,-2 379,-3 82,58 164,116 246,174 121,-33 243,-67 365,-100 94,34 188,69 283,104 108,-64 217,-128 326,-191 100,9 200,18 300,27 89,-90 178,-180 266,-269 99,-18 199,-35 298,-52 62,-109 124,-219 186,-329 92,-42 183,-84 275,-126 31,-122 63,-244 95,-366 77,-64 155,-129 232,-193 -1,-126 -2,-253 -3,-379 58,-82 116,-164 174,-246 -33,-122 -67,-243 -100,-365 35,-94 69,-188 104,-283 -64,-108 -127,-217 -191,-326 9,-100 18,-200 27,-301 -8,-7 -15,-15 -23,-23z"/>
      <path class="fil2 str0" d="M13400 582c-86,-85 -172,-170 -258,-254 -18,-104 -36,-209 -54,-313 -115,-65 -230,-130 -345,-195 -44,-96 -89,-192 -133,-288 -128,-34 -256,-67 -384,-100 -67,-81 -135,-163 -203,-244 -132,1 -264,2 -397,3 -86,-61 -172,-122 -258,-183 -128,36 -255,71 -383,106 -99,-37 -198,-73 -297,-110 -114,67 -228,134 -342,201 -105,-9 -210,-19 -315,-29 -93,95 -186,189 -279,283 -104,18 -208,36 -312,54 -66,115 -131,230 -196,345 -96,44 -192,89 -288,133 -33,128 -67,256 -100,384 -81,67 -162,135 -244,203 1,132 2,264 3,396 -61,87 -122,173 -182,259 35,128 70,255 105,383 -36,99 -73,198 -109,297 67,114 133,228 200,342 -9,105 -19,210 -29,315 95,93 189,186 283,279 18,104 36,208 54,312 115,66 230,131 345,196 44,96 89,192 133,288 128,33 256,67 384,100 68,81 135,162 203,244 132,-1 264,-2 397,-3 86,61 172,121 258,182 128,-35 255,-70 383,-105 99,36 198,73 297,109 114,-67 228,-134 342,-200 105,9 210,19 316,28 92,-94 185,-188 278,-283 104,-17 208,-35 313,-53 65,-115 130,-230 195,-345 96,-45 192,-89 288,-133 34,-128 67,-256 100,-384 81,-68 163,-135 244,-203 -1,-132 -2,-264 -3,-397 61,-86 122,-172 183,-258 -36,-128 -71,-255 -106,-383 36,-99 73,-198 110,-297 -67,-114 -134,-228 -201,-342 9,-105 19,-210 29,-316 -9,-8 -17,-16 -25,-24z"/>
      <path class="fil2 str0" d="M13512 534c-90,-88 -180,-177 -270,-266 -19,-109 -38,-218 -57,-327 -120,-68 -240,-136 -361,-204 -46,-101 -93,-201 -139,-302 -134,-35 -268,-70 -402,-104 -71,-85 -141,-171 -212,-256 -139,1 -277,2 -416,3 -90,-63 -180,-127 -270,-191 -134,37 -267,74 -401,111 -104,-38 -207,-77 -311,-115 -119,70 -239,140 -358,210 -110,-10 -220,-20 -331,-30 -97,99 -194,197 -291,296 -109,19 -218,38 -327,56 -69,121 -137,241 -205,362 -101,46 -201,92 -302,139 -35,134 -69,268 -104,402 -85,71 -170,141 -255,212 1,139 2,277 3,416 -64,90 -128,180 -192,270 37,134 74,267 111,401 -38,104 -77,207 -115,311 70,119 140,239 210,358 -10,110 -20,220 -30,330 99,98 198,195 296,292 19,109 38,218 57,327 120,69 241,137 361,205 46,101 93,201 139,302 134,34 268,69 402,104 71,85 142,170 212,255 139,-1 277,-2 416,-3 90,64 180,128 271,191 133,-36 267,-73 400,-110 104,38 208,76 311,115 120,-70 239,-140 358,-211 110,11 221,21 331,31 97,-99 194,-198 291,-297 109,-18 218,-37 327,-56 69,-120 137,-241 205,-361 101,-46 201,-93 302,-139 35,-134 69,-268 104,-402 85,-71 171,-142 256,-212 -1,-139 -3,-277 -4,-416 64,-90 128,-180 192,-271 -37,-133 -74,-267 -111,-400 38,-104 77,-208 115,-311 -70,-120 -140,-239 -210,-358 10,-110 20,-221 30,-331 -9,-8 -17,-17 -26,-26z"/>
      <path class="fil2 str0" d="M13624 487c-94,-92 -188,-185 -282,-278 -20,-114 -39,-228 -59,-341 -126,-72 -252,-143 -378,-215 -48,-105 -96,-210 -145,-315 -140,-36 -280,-72 -420,-109 -74,-89 -148,-177 -222,-266 -144,1 -289,2 -434,3 -94,-67 -188,-133 -283,-200 -139,39 -279,77 -418,116 -109,-40 -217,-80 -325,-120 -125,73 -250,146 -374,219 -115,-10 -231,-21 -346,-31 -101,103 -203,206 -305,309 -113,20 -227,39 -341,59 -72,126 -143,252 -214,377 -105,49 -210,97 -315,146 -37,140 -73,280 -109,420 -89,74 -178,148 -267,222 1,144 2,289 3,434 -67,94 -133,188 -200,283 39,139 77,279 116,418 -40,109 -80,217 -120,325 73,125 146,250 220,374 -11,115 -22,230 -32,346 103,101 206,203 309,304 20,114 40,228 59,342 126,72 252,143 378,214 48,105 97,210 145,315 140,37 280,73 420,109 74,89 148,178 222,267 145,-1 289,-2 434,-3 94,66 189,133 283,200 139,-39 279,-77 418,-116 109,40 217,80 326,120 124,-73 249,-146 373,-220 116,11 231,21 346,32 101,-103 203,-206 305,-310 114,-19 227,-39 341,-58 72,-126 143,-252 214,-378 105,-48 210,-97 315,-145 37,-140 73,-280 110,-420 88,-74 177,-148 266,-222 -1,-145 -2,-289 -3,-434 67,-94 133,-189 200,-283 -39,-139 -77,-279 -116,-418 40,-109 80,-217 120,-326 -73,-124 -146,-249 -219,-374 10,-115 21,-230 31,-345 -9,-9 -18,-18 -27,-27z"/>
      <path class="fil2 str0" d="M13736 440c-98,-97 -196,-193 -294,-290 -21,-119 -41,-238 -62,-356 -131,-75 -262,-149 -393,-224 -51,-109 -101,-219 -152,-328 -146,-38 -292,-76 -438,-114 -77,-93 -154,-185 -231,-278 -151,1 -302,2 -453,3 -98,-69 -197,-139 -295,-208 -146,40 -291,80 -437,120 -113,-41 -226,-83 -339,-125 -130,77 -260,153 -390,229 -120,-11 -240,-22 -360,-33 -106,108 -212,216 -318,323 -119,21 -237,41 -356,61 -75,132 -149,263 -223,394 -110,51 -219,101 -329,152 -38,146 -76,292 -114,438 -92,77 -185,154 -278,231 1,151 2,302 4,453 -70,98 -139,197 -209,295 40,145 80,291 121,436 -42,113 -84,227 -126,340 77,130 153,260 230,390 -11,120 -22,240 -33,360 107,106 215,212 322,318 21,118 41,237 62,356 131,74 262,149 393,223 51,110 101,219 152,329 146,38 292,76 438,114 77,92 154,185 231,278 151,-1 302,-2 453,-4 99,70 197,139 295,209 146,-40 291,-81 437,-121 113,42 226,84 339,125 130,-76 260,-152 390,-229 120,11 240,22 360,33 106,-107 212,-215 318,-323 119,-20 237,-40 356,-61 75,-131 149,-262 224,-394 109,-50 219,-101 328,-151 38,-146 76,-292 114,-438 93,-77 185,-154 278,-231 -1,-151 -2,-302 -3,-453 69,-99 139,-197 208,-295 -40,-146 -80,-291 -120,-437 41,-113 83,-226 125,-339 -77,-130 -153,-260 -230,-390 11,-120 23,-240 34,-360 -10,-9 -19,-19 -29,-28z"/>
      <path class="fil2 str0" d="M13848 393c-102,-101 -204,-202 -306,-302 -22,-124 -43,-248 -64,-371 -137,-78 -273,-155 -410,-233 -53,-114 -105,-228 -158,-342 -152,-39 -304,-79 -456,-118 -80,-97 -160,-193 -241,-290 -157,1 -314,3 -471,4 -103,-73 -205,-145 -307,-217 -152,42 -303,83 -455,125 -117,-43 -235,-87 -353,-130 -135,79 -271,159 -406,239 -125,-12 -250,-23 -375,-35 -110,112 -221,224 -331,336 -124,22 -247,43 -371,64 -77,137 -155,273 -232,410 -114,53 -229,105 -343,158 -39,152 -79,304 -118,456 -97,80 -193,160 -290,241 2,157 3,314 4,471 -72,103 -145,205 -217,307 42,152 84,303 125,455 -43,117 -86,235 -130,353 80,135 159,271 239,406 -12,125 -23,250 -35,375 112,110 224,221 336,331 22,124 43,247 64,371 137,77 274,155 410,232 53,114 105,228 158,342 152,40 304,79 456,119 80,96 161,193 241,290 157,-2 314,-3 471,-4 103,72 205,145 308,217 151,-42 302,-84 454,-125 118,43 235,86 353,130 135,-80 271,-159 406,-239 125,12 250,23 375,35 110,-112 221,-224 331,-337 124,-21 247,-42 371,-63 78,-137 155,-274 233,-410 114,-53 228,-105 342,-158 39,-152 79,-304 118,-456 97,-80 193,-161 290,-241 -1,-157 -3,-314 -4,-471 73,-103 145,-205 217,-308 -42,-151 -83,-303 -125,-454 43,-118 87,-235 130,-353 -80,-135 -159,-271 -239,-406 12,-125 23,-250 35,-375 -10,-10 -20,-20 -30,-29z"/>
      <path class="fil2 str0" d="M13960 345c-106,-104 -212,-209 -318,-313 -22,-129 -45,-257 -67,-386 -142,-81 -284,-161 -426,-242 -54,-118 -109,-237 -164,-355 -158,-41 -316,-82 -474,-123 -83,-101 -167,-201 -250,-302 -164,2 -327,3 -490,4 -107,-75 -213,-150 -320,-225 -157,43 -315,87 -472,130 -122,-45 -245,-90 -367,-135 -141,82 -282,165 -422,248 -130,-12 -260,-24 -390,-36 -115,116 -229,233 -344,349 -129,22 -257,44 -386,67 -80,142 -161,284 -242,426 -118,54 -237,109 -355,164 -41,158 -82,316 -123,474 -101,83 -201,167 -301,250 1,164 2,327 3,490 -75,107 -150,213 -225,320 43,157 87,315 130,472 -45,122 -90,245 -135,367 82,141 165,281 248,422 -12,130 -24,260 -36,390 117,115 233,229 349,344 23,129 45,257 67,386 142,80 284,161 426,241 55,119 109,238 164,356 158,41 316,82 474,123 83,101 167,201 250,301 164,-1 327,-2 491,-3 106,75 212,150 319,225 157,-43 315,-87 472,-130 123,45 245,90 367,135 141,-83 282,-165 422,-248 130,12 260,24 390,36 115,-117 230,-233 344,-350 129,-22 257,-44 386,-66 81,-142 161,-284 242,-426 118,-55 237,-109 355,-164 41,-158 82,-316 123,-474 101,-84 201,-167 302,-251 -2,-163 -3,-326 -4,-490 75,-106 150,-212 225,-319 -43,-157 -87,-315 -130,-472 45,-123 90,-245 135,-367 -82,-141 -165,-282 -248,-422 12,-130 24,-260 36,-390 -10,-10 -21,-21 -31,-31z"/>
      <path class="fil2 str0" d="M14072 298c-110,-108 -220,-217 -330,-326 -23,-133 -46,-266 -69,-400 -148,-84 -295,-167 -443,-251 -56,-123 -113,-246 -170,-369 -164,-43 -328,-85 -492,-128 -87,-104 -173,-208 -260,-312 -169,1 -339,2 -509,4 -110,-78 -221,-157 -331,-235 -163,46 -327,91 -490,136 -127,-47 -254,-94 -381,-141 -146,86 -292,172 -439,258 -134,-13 -269,-25 -404,-37 -119,120 -238,241 -357,362 -134,23 -267,46 -401,69 -83,148 -167,295 -251,442 -123,57 -246,114 -369,171 -42,164 -85,328 -128,492 -104,86 -208,173 -312,260 1,169 2,339 4,509 -78,110 -156,220 -234,331 45,163 90,327 135,490 -47,127 -94,254 -141,381 86,146 172,292 258,438 -12,135 -25,270 -37,405 121,119 242,238 362,357 23,134 46,267 69,401 148,83 295,167 443,251 56,123 113,246 170,369 164,42 328,85 492,127 87,105 173,209 260,313 170,-1 339,-3 509,-4 110,78 221,156 331,234 164,-45 327,-90 490,-135 127,47 254,94 381,140 147,-85 293,-171 439,-257 135,12 269,25 404,37 119,-121 238,-242 357,-363 134,-23 267,-45 401,-68 83,-148 167,-295 251,-443 123,-56 246,-113 369,-170 42,-164 85,-328 128,-492 104,-87 208,-173 312,-260 -1,-170 -2,-339 -4,-509 78,-110 156,-221 235,-331 -46,-164 -91,-327 -136,-491 47,-127 94,-254 141,-381 -86,-146 -172,-292 -258,-438 13,-135 25,-269 37,-404 -10,-11 -21,-21 -32,-32z"/>
      <path class="fil2 str0" d="M14184 251c-114,-113 -228,-225 -342,-338 -24,-138 -48,-276 -72,-415 -153,-86 -305,-173 -458,-260 -59,-127 -118,-255 -177,-383 -170,-44 -340,-88 -510,-132 -90,-108 -180,-216 -269,-324 -176,1 -352,3 -528,4 -114,-81 -229,-162 -343,-243 -170,47 -339,94 -509,141 -131,-49 -263,-98 -395,-146 -151,89 -302,178 -454,267 -140,-13 -279,-26 -419,-39 -124,126 -247,251 -371,376 -138,24 -276,48 -415,72 -86,152 -173,305 -260,458 -127,59 -255,118 -382,177 -44,170 -89,340 -133,510 -108,90 -216,179 -324,269 2,176 3,352 4,528 -81,114 -162,229 -243,343 47,170 94,339 141,509 -49,131 -97,263 -146,395 89,151 178,302 267,454 -13,140 -26,279 -39,419 126,124 251,247 376,370 24,139 48,277 72,415 153,87 306,174 458,261 59,127 118,255 177,382 170,44 340,89 510,133 90,108 180,216 269,324 176,-2 352,-3 528,-4 114,81 229,162 343,242 170,-46 339,-93 509,-140 131,49 263,97 395,146 151,-89 303,-178 454,-267 140,13 280,26 419,38 124,-125 247,-250 371,-376 138,-23 276,-47 415,-71 86,-153 173,-306 260,-458 127,-59 255,-118 382,-177 45,-170 89,-340 133,-510 108,-90 216,-180 324,-270 -1,-175 -3,-351 -4,-527 81,-115 162,-229 243,-344 -47,-169 -94,-338 -141,-508 49,-131 97,-263 146,-395 -89,-151 -178,-303 -267,-454 13,-140 26,-280 39,-419 -11,-11 -23,-22 -34,-33z"/>
      <path class="fil2 str0" d="M14297 204c-119,-117 -237,-233 -355,-350 -25,-143 -50,-286 -74,-430 -158,-89 -317,-179 -475,-269 -61,-132 -122,-264 -183,-396 -176,-46 -352,-92 -528,-137 -93,-112 -186,-224 -279,-336 -182,2 -364,3 -546,4 -119,-83 -237,-167 -356,-251 -175,49 -350,97 -526,145 -136,-50 -273,-100 -409,-150 -157,92 -313,184 -470,276 -145,-13 -290,-27 -434,-40 -128,130 -256,260 -384,389 -143,25 -286,50 -429,74 -90,158 -180,317 -270,475 -132,61 -264,122 -396,183 -46,176 -91,352 -137,528 -112,93 -224,186 -336,279 2,182 3,364 5,546 -84,118 -168,237 -252,356 49,175 97,350 146,526 -51,136 -101,272 -151,409 92,157 184,313 276,470 -13,145 -27,290 -40,434 130,128 260,256 390,384 24,143 49,286 73,429 159,90 317,180 475,270 61,132 122,264 183,396 176,46 352,91 528,137 93,112 186,224 279,335 182,-1 364,-2 546,-4 119,84 237,168 356,252 175,-49 351,-97 526,-146 136,51 273,101 409,151 157,-92 313,-184 470,-276 145,13 290,26 435,40 127,-130 255,-260 383,-390 143,-24 286,-49 430,-73 89,-159 179,-317 269,-475 132,-61 264,-122 396,-183 46,-176 91,-352 137,-528 112,-93 224,-186 336,-279 -2,-182 -3,-364 -4,-546 83,-119 167,-237 251,-356 -49,-175 -97,-351 -145,-526 50,-136 100,-273 150,-409 -92,-157 -184,-314 -276,-470 13,-145 27,-290 40,-435 -12,-11 -23,-22 -34,-33z"/>
      <path class="fil2 str0" d="M14409 156c-123,-120 -245,-241 -367,-361 -26,-148 -51,-296 -77,-445 -163,-92 -327,-185 -491,-278 -63,-137 -126,-273 -189,-410 -182,-47 -364,-94 -546,-142 -96,-115 -192,-231 -288,-346 -189,1 -377,2 -565,4 -123,-87 -245,-173 -368,-260 -181,50 -363,100 -544,150 -141,-52 -282,-104 -423,-156 -162,95 -324,191 -486,286 -150,-14 -300,-28 -449,-41 -133,134 -265,268 -397,402 -148,26 -296,51 -444,77 -93,163 -186,327 -279,491 -136,63 -273,126 -409,189 -48,182 -95,364 -142,546 -116,96 -232,192 -347,288 1,189 3,377 4,565 -87,123 -173,245 -260,368 50,181 100,363 150,544 -52,141 -104,282 -156,423 96,162 191,324 286,486 -14,150 -27,300 -41,449 134,133 268,265 403,397 25,148 50,296 76,444 164,93 327,186 491,279 63,136 126,273 189,409 182,48 364,95 546,142 96,116 192,232 289,347 188,-1 376,-3 564,-4 123,87 245,173 368,260 182,-50 363,-100 544,-150 141,52 282,104 423,156 162,-96 324,-191 487,-286 149,14 299,27 449,41 132,-134 264,-268 396,-403 148,-25 296,-51 444,-76 93,-164 186,-327 279,-491 136,-63 273,-126 410,-189 47,-182 94,-364 141,-546 116,-96 232,-192 347,-289 -1,-188 -2,-376 -4,-564 87,-123 173,-246 260,-368 -50,-182 -100,-363 -150,-544 52,-141 104,-282 156,-423 -96,-162 -191,-324 -286,-487 14,-149 27,-299 41,-449 -12,-11 -24,-23 -35,-35z"/>
      <path class="fil2 str0" d="M14521 109c-127,-124 -253,-249 -379,-373 -27,-153 -53,-306 -79,-459 -169,-96 -338,-192 -507,-288 -66,-141 -131,-282 -196,-423 -188,-49 -376,-98 -564,-147 -99,-119 -199,-239 -298,-358 -194,1 -389,3 -583,4 -127,-89 -254,-179 -380,-268 -188,51 -375,103 -562,155 -146,-54 -292,-107 -437,-161 -168,98 -335,197 -503,295 -154,-14 -309,-28 -464,-43 -136,139 -273,278 -409,416 -153,27 -306,53 -459,79 -96,169 -192,338 -288,507 -141,65 -282,131 -423,196 -49,188 -98,376 -147,564 -119,99 -239,199 -358,298 1,194 3,389 4,583 -89,127 -179,254 -268,380 52,188 103,375 155,562 -54,146 -107,292 -161,437 98,168 197,335 295,503 -14,154 -28,309 -42,464 138,136 277,273 416,409 26,153 52,306 78,459 169,96 339,192 508,288 65,141 130,282 195,423 188,49 376,98 564,147 99,119 199,238 298,358 195,-2 389,-3 583,-5 127,90 254,179 380,269 188,-52 375,-104 563,-155 145,53 291,107 436,161 168,-99 335,-197 503,-295 154,14 309,28 464,42 136,-138 273,-277 409,-416 153,-26 306,-52 459,-79 96,-169 192,-338 288,-507 141,-65 282,-130 423,-195 49,-188 98,-376 147,-564 119,-99 239,-199 358,-298 -1,-195 -3,-389 -4,-583 89,-127 179,-254 268,-381 -52,-187 -103,-374 -155,-562 54,-145 107,-291 161,-437 -98,-167 -197,-334 -295,-502 14,-155 28,-309 43,-464 -13,-12 -25,-24 -37,-36z"/>
      <path class="fil2 str0" d="M14633 62c-131,-129 -261,-257 -391,-386 -28,-157 -55,-315 -82,-473 -174,-99 -349,-198 -523,-297 -67,-146 -134,-291 -202,-437 -194,-50 -388,-101 -582,-151 -102,-123 -205,-247 -307,-370 -201,2 -402,3 -602,5 -131,-93 -262,-185 -393,-277 -193,53 -386,106 -580,160 -150,-56 -300,-111 -451,-167 -172,102 -345,204 -518,305 -160,-15 -319,-29 -479,-44 -141,143 -281,286 -422,429 -158,27 -316,55 -474,82 -99,174 -198,349 -297,523 -146,67 -291,134 -437,202 -50,194 -100,388 -151,582 -123,102 -246,205 -370,307 2,201 3,402 5,602 -92,131 -185,262 -277,393 53,193 107,386 160,580 -55,150 -111,300 -166,450 101,173 203,346 304,519 -14,159 -29,319 -44,479 143,141 286,281 430,422 27,158 54,316 81,474 174,99 349,198 523,297 67,145 135,291 202,437 194,50 388,100 582,151 103,123 205,246 308,370 200,-2 401,-3 602,-5 130,92 261,185 392,277 193,-53 387,-107 580,-160 150,55 300,111 451,166 172,-101 345,-203 518,-304 160,14 319,29 479,44 141,-143 282,-287 422,-430 158,-27 316,-54 474,-81 99,-175 198,-349 297,-523 146,-68 291,-135 437,-202 50,-194 101,-388 151,-582 123,-103 247,-205 370,-308 -2,-200 -3,-401 -5,-602 93,-130 185,-261 277,-392 -53,-193 -106,-387 -160,-580 56,-150 111,-300 166,-451 -101,-173 -203,-345 -304,-518 14,-160 29,-319 44,-479 -13,-12 -26,-25 -38,-37z"/>
      <path class="fil2 str0" d="M14745 14c-135,-132 -269,-264 -403,-397 -28,-163 -56,-325 -84,-488 -180,-102 -360,-204 -540,-306 -69,-150 -138,-300 -208,-450 -200,-52 -400,-104 -600,-156 -106,-127 -211,-255 -317,-382 -207,2 -414,3 -621,5 -134,-95 -269,-190 -404,-286 -199,55 -399,111 -598,166 -155,-58 -310,-115 -465,-172 -178,105 -356,210 -534,314 -165,-15 -329,-30 -494,-45 -145,147 -290,295 -436,442 -162,28 -325,56 -488,84 -102,180 -204,360 -306,540 -150,69 -300,138 -450,208 -52,200 -104,400 -156,600 -127,106 -254,211 -381,317 1,207 3,414 4,621 -95,134 -190,269 -285,404 55,199 110,399 165,598 -57,155 -115,310 -172,465 105,178 210,356 314,534 -15,165 -30,329 -45,494 148,145 295,290 443,435 28,163 56,326 83,489 180,102 360,204 540,306 69,150 139,300 208,450 200,52 400,104 600,156 106,127 211,254 317,381 207,-1 414,-3 621,-4 135,95 269,190 404,285 199,-55 399,-110 598,-165 155,57 310,114 465,172 178,-105 356,-210 534,-314 165,15 329,30 494,45 145,-148 290,-295 436,-443 162,-28 325,-56 488,-84 102,-179 204,-359 306,-539 150,-69 300,-139 450,-208 52,-200 104,-400 156,-600 127,-106 254,-212 382,-317 -2,-207 -4,-414 -5,-621 95,-135 190,-269 285,-404 -55,-200 -110,-399 -165,-598 58,-155 115,-310 172,-465 -105,-178 -210,-356 -314,-534 15,-165 30,-330 45,-494 -13,-13 -26,-26 -39,-39z"/>
      <path class="fil2 str0" d="M14857 -33c-138,-136 -277,-273 -415,-409 -29,-168 -58,-335 -87,-503 -185,-105 -370,-210 -556,-315 -71,-155 -142,-309 -214,-464 -206,-54 -412,-107 -618,-161 -109,-131 -218,-261 -327,-392 -213,1 -426,3 -639,4 -139,-98 -277,-196 -416,-294 -206,57 -411,114 -616,170 -160,-58 -319,-117 -479,-176 -184,108 -367,215 -551,323 -169,-15 -338,-31 -508,-46 -150,151 -299,303 -449,455 -167,29 -335,58 -503,87 -105,185 -210,370 -315,556 -155,71 -309,142 -464,213 -53,207 -107,413 -160,619 -131,109 -262,218 -393,326 1,214 3,427 5,640 -98,139 -196,277 -295,416 57,206 114,411 171,616 -59,160 -118,319 -177,479 108,183 216,367 323,550 -15,170 -31,339 -46,509 152,149 304,299 456,449 28,167 57,335 86,503 185,105 371,210 556,315 71,155 142,309 214,464 206,53 412,107 618,160 109,131 218,262 327,393 213,-2 426,-3 639,-5 139,98 278,196 416,294 206,-56 411,-113 616,-170 160,59 320,118 479,177 184,-108 367,-216 551,-324 169,16 339,32 508,47 150,-152 299,-304 449,-456 168,-28 335,-57 503,-86 105,-185 210,-371 315,-556 155,-71 309,-142 464,-214 53,-206 107,-412 161,-618 130,-109 261,-218 392,-327 -1,-213 -3,-426 -5,-639 99,-139 197,-278 295,-416 -57,-206 -114,-411 -170,-617 58,-159 117,-319 176,-478 -108,-184 -216,-367 -323,-551 15,-169 31,-339 46,-508 -13,-13 -27,-27 -40,-40z"/>
      <path class="fil2 str0" d="M14969 -80c-142,-140 -285,-281 -427,-421 -30,-173 -60,-345 -89,-518 -191,-108 -382,-216 -572,-324 -74,-159 -147,-319 -221,-478 -212,-55 -424,-110 -636,-165 -112,-135 -224,-269 -336,-404 -219,2 -439,3 -658,5 -143,-101 -286,-202 -429,-303 -211,58 -422,117 -634,175 -164,-60 -328,-121 -492,-182 -189,111 -378,222 -567,333 -174,-16 -349,-32 -523,-48 -154,157 -308,313 -462,469 -173,30 -345,60 -518,89 -108,191 -216,382 -324,572 -159,74 -318,147 -477,220 -56,213 -111,425 -166,637 -134,112 -269,224 -404,336 2,219 3,439 5,658 -101,143 -202,286 -303,428 59,212 117,423 175,635 -60,164 -121,328 -181,492 111,189 222,378 333,567 -16,174 -32,349 -48,523 156,154 312,308 469,462 29,172 59,345 89,518 190,108 381,216 572,324 73,159 146,318 220,477 212,55 424,111 636,166 112,134 224,269 336,404 220,-2 439,-4 658,-5 143,101 286,202 429,303 211,-59 422,-117 634,-175 164,60 328,121 492,181 189,-111 378,-222 567,-333 174,16 349,32 523,48 154,-156 308,-312 462,-469 173,-29 345,-59 518,-89 108,-190 216,-381 324,-572 159,-73 318,-146 478,-220 55,-212 110,-424 165,-636 135,-112 269,-224 404,-336 -2,-220 -3,-439 -5,-658 101,-143 202,-286 303,-429 -59,-211 -117,-422 -175,-634 60,-164 121,-328 182,-492 -111,-189 -222,-378 -333,-567 16,-174 32,-349 48,-523 -14,-14 -28,-28 -42,-41z"/>
     </g>
     <polygon class="fil1 str0" points="15081,-127 14642,-560 14550,-1093 13962,-1426 13735,-1917 13081,-2087 12735,-2503 12059,-2498 11618,-2809 10966,-2629 10459,-2816 9877,-2474 9339,-2523 8864,-2041 8331,-1949 7998,-1361 7507,-1135 7337,-480 6921,-134 6927,542 6615,983 6795,1635 6608,2141 6951,2724 6901,3262 7384,3737 7475,4269 8063,4603 8290,5094 8944,5264 9290,5680 9966,5674 10407,5986 11059,5806 11566,5993 12148,5650 12686,5700 13161,5217 13694,5126 14027,4538 14518,4311 14688,3657 15104,3311 15099,2635 15410,2194 15230,1542 15417,1035 15074,453 15124,-85 "/>
     <polygon class="fil3 str1" points="8661,6545 8597,6482 8584,6404 8498,6355 8465,6284 8370,6259 8319,6198 8221,6199 8156,6154 8061,6180 7987,6153 7902,6202 7824,6195 7755,6266 7677,6279 7628,6365 7557,6398 7532,6493 7471,6544 7472,6642 7427,6707 7453,6802 7426,6876 7476,6961 7468,7039 7539,7108 7552,7186 7638,7235 7671,7306 7766,7331 7817,7392 7915,7391 7980,7436 8075,7410 8149,7437 8234,7387 8312,7395 8381,7324 8459,7311 8508,7225 8579,7192 8604,7097 8665,7046 8664,6948 8709,6883 8683,6788 8710,6714 8660,6629 8668,6551 "/>
     <g>
      <path class="fil4 str1" d="M8774 6497c-26,-25 -51,-50 -77,-75 -5,-30 -10,-61 -16,-92 -34,-19 -68,-39 -102,-58 -13,-28 -26,-57 -39,-85 -38,-10 -75,-20 -113,-29 -20,-24 -40,-48 -60,-73 -39,1 -78,1 -118,1 -25,-18 -51,-36 -76,-54 -38,11 -75,21 -113,32 -29,-11 -59,-22 -88,-33 -34,20 -67,40 -101,60 -31,-3 -62,-6 -93,-9 -28,28 -55,56 -83,84 -30,5 -61,10 -92,16 -19,34 -39,68 -58,102 -28,13 -57,26 -85,39 -10,38 -20,75 -29,113 -24,20 -48,40 -72,60 0,39 0,78 0,118 -18,25 -36,50 -54,76 11,38 21,75 32,113 -11,29 -22,59 -33,88 20,34 40,67 60,101 -3,31 -6,62 -9,93 28,28 56,55 84,83 5,30 10,61 16,92 34,19 68,38 102,58 13,28 26,56 39,85 38,10 75,19 113,29 20,24 40,48 60,72 39,0 78,0 118,-1 25,18 50,36 76,54 38,-10 75,-20 113,-31 29,11 59,22 88,33 34,-20 67,-40 101,-60 31,3 62,6 93,9 28,-28 55,-56 83,-84 30,-5 61,-10 92,-16 19,-34 38,-68 58,-102 28,-13 57,-26 85,-39 10,-38 20,-76 29,-113 24,-20 48,-40 72,-60 0,-39 0,-79 0,-118 18,-25 36,-51 54,-76 -11,-38 -21,-75 -32,-113 11,-29 22,-59 33,-88 -20,-34 -40,-67 -60,-101 3,-31 6,-62 9,-93 -3,-3 -5,-5 -7,-8z"/>
      <path class="fil4 str1" d="M8886 6450c-30,-29 -59,-58 -89,-87 -6,-36 -12,-71 -18,-107 -40,-22 -79,-45 -118,-67 -15,-33 -31,-66 -46,-99 -44,-11 -87,-22 -131,-34 -23,-28 -47,-55 -70,-83 -45,0 -90,0 -136,1 -29,-21 -59,-42 -88,-63 -44,12 -88,24 -131,36 -34,-12 -68,-25 -102,-37 -39,23 -78,46 -117,69 -36,-4 -72,-7 -108,-10 -32,32 -64,64 -96,97 -35,6 -71,12 -107,18 -22,39 -45,79 -67,118 -33,15 -66,31 -99,46 -11,44 -22,87 -34,131 -28,23 -55,47 -83,70 0,45 0,90 1,136 -21,29 -42,59 -63,88 12,44 24,88 36,131 -12,34 -25,68 -37,102 23,39 46,78 69,117 -4,36 -7,72 -10,108 32,32 64,64 97,96 6,35 12,71 18,107 39,22 79,44 118,67 15,33 31,66 46,98 44,12 87,23 131,35 23,27 47,55 70,83 45,0 90,-1 136,-1 29,21 59,42 88,63 44,-12 88,-24 131,-37 34,13 68,26 102,38 39,-23 78,-46 117,-69 36,4 72,7 108,10 32,-32 64,-64 96,-97 35,-6 71,-12 107,-18 22,-40 44,-79 67,-118 33,-16 66,-31 98,-46 12,-44 23,-88 35,-131 27,-24 55,-47 83,-70 0,-45 -1,-90 -1,-136 21,-29 42,-59 63,-88 -12,-44 -24,-88 -36,-131 12,-34 25,-68 37,-102 -23,-39 -46,-78 -69,-117 4,-36 7,-72 10,-108 -3,-3 -6,-6 -8,-9z"/>
      <path class="fil4 str1" d="M8998 6403c-34,-33 -67,-66 -101,-99 -7,-41 -14,-81 -21,-122 -44,-25 -89,-51 -134,-76 -17,-37 -35,-75 -52,-112 -50,-13 -99,-26 -149,-39 -27,-32 -53,-63 -79,-95 -52,0 -103,1 -155,1 -33,-23 -67,-47 -101,-71 -49,14 -99,27 -149,41 -38,-14 -77,-28 -115,-43 -45,27 -89,53 -134,79 -41,-4 -82,-8 -122,-12 -37,37 -73,74 -109,111 -41,7 -81,14 -122,21 -25,44 -51,89 -76,134 -37,17 -75,34 -112,52 -13,50 -26,99 -39,149 -32,27 -63,53 -95,79 0,52 1,103 1,155 -23,33 -47,67 -71,101 14,49 28,99 41,149 -14,38 -28,77 -42,115 26,45 52,89 78,133 -4,41 -8,82 -12,123 37,37 74,73 111,109 7,41 14,81 21,122 44,25 89,50 134,76 17,37 35,75 52,112 50,13 99,26 149,39 27,32 53,63 79,95 52,-1 103,-1 155,-1 33,23 67,47 101,71 49,-14 99,-28 149,-41 38,14 77,28 115,42 45,-26 89,-52 134,-78 40,4 81,8 122,11 37,-36 73,-73 109,-110 41,-7 81,-14 122,-21 25,-45 50,-89 76,-134 37,-17 75,-35 112,-52 13,-50 26,-100 39,-149 32,-27 63,-53 95,-79 -1,-52 -1,-103 -1,-155 23,-34 47,-67 71,-101 -14,-49 -28,-99 -41,-149 14,-38 28,-77 42,-115 -26,-45 -52,-89 -78,-134 4,-41 8,-82 11,-123 -3,-3 -6,-6 -9,-9z"/>
      <path class="fil4 str1" d="M9110 6356c-38,-37 -75,-74 -113,-111 -8,-46 -15,-91 -23,-137 -50,-28 -101,-57 -151,-85 -19,-42 -38,-84 -58,-126 -56,-14 -111,-29 -167,-43 -30,-36 -59,-71 -89,-107 -58,1 -115,1 -173,2 -38,-27 -75,-54 -113,-80 -56,15 -111,31 -167,46 -43,-16 -86,-32 -130,-48 -49,29 -99,59 -149,88 -46,-4 -92,-9 -138,-13 -40,41 -81,82 -121,124 -46,7 -91,15 -137,23 -28,50 -57,101 -85,151 -42,19 -84,38 -126,58 -14,56 -29,111 -43,167 -36,30 -71,59 -107,89 1,58 1,115 2,173 -27,38 -53,75 -80,113 15,56 31,111 46,167 -16,43 -32,86 -48,130 29,49 59,99 88,149 -4,46 -9,92 -13,138 41,40 83,81 124,121 8,46 15,91 23,136 50,29 101,57 151,86 19,42 38,84 58,126 56,14 111,29 167,43 30,36 59,71 89,107 58,-1 115,-1 173,-2 38,27 75,53 113,80 56,-15 111,-31 167,-46 43,16 86,32 130,48 49,-29 99,-59 149,-88 46,4 92,8 138,13 40,-41 81,-83 121,-124 46,-8 91,-15 137,-23 28,-50 56,-101 85,-151 42,-19 84,-38 126,-58 14,-56 29,-112 43,-167 36,-30 71,-59 107,-89 -1,-58 -1,-115 -2,-173 27,-38 53,-75 80,-113 -15,-56 -31,-111 -46,-167 16,-43 32,-86 48,-130 -29,-49 -59,-99 -88,-149 4,-46 9,-92 13,-138 -4,-3 -8,-7 -11,-10z"/>
      <path class="fil4 str1" d="M9222 6308c-42,-41 -83,-82 -125,-122 -8,-51 -17,-101 -26,-151 -55,-32 -111,-64 -167,-95 -21,-47 -42,-93 -64,-139 -62,-16 -123,-32 -185,-49 -33,-39 -66,-78 -98,-117 -64,0 -128,1 -192,1 -42,-29 -84,-59 -125,-88 -62,17 -124,34 -185,51 -48,-18 -96,-36 -144,-53 -55,32 -110,65 -165,97 -51,-5 -102,-9 -153,-14 -45,45 -90,91 -134,137 -51,8 -101,17 -151,26 -32,55 -64,111 -95,166 -46,22 -93,43 -139,65 -16,62 -32,123 -48,185 -40,33 -79,66 -118,98 0,64 1,128 1,192 -29,42 -59,84 -88,125 17,62 34,123 51,185 -18,48 -36,96 -53,144 32,55 65,110 97,165 -5,51 -9,102 -14,153 46,45 91,89 137,134 8,51 17,101 26,151 55,32 111,63 167,95 21,46 42,93 64,139 62,16 123,32 185,48 33,40 66,79 98,118 64,0 128,-1 192,-1 42,29 84,59 125,88 62,-17 124,-34 185,-51 48,18 96,35 144,53 55,-32 110,-65 165,-97 51,5 102,9 153,14 45,-46 90,-91 134,-137 51,-8 101,-17 151,-26 32,-55 63,-111 95,-167 46,-21 93,-42 139,-64 16,-62 32,-124 48,-185 40,-33 79,-66 118,-98 0,-64 -1,-128 -1,-192 29,-42 59,-84 88,-125 -17,-62 -34,-124 -51,-185 18,-48 35,-96 53,-144 -32,-55 -65,-110 -97,-165 5,-51 9,-102 14,-153 -4,-4 -8,-8 -12,-12z"/>
      <path class="fil4 str1" d="M9334 6261c-46,-45 -91,-90 -137,-135 -9,-55 -19,-110 -28,-165 -61,-35 -122,-70 -183,-104 -24,-51 -47,-102 -71,-153 -68,-18 -135,-35 -203,-53 -36,-43 -72,-86 -108,-129 -70,0 -140,1 -210,1 -46,-32 -92,-64 -138,-96 -67,18 -135,37 -202,56 -53,-20 -106,-39 -158,-59 -61,36 -121,71 -181,107 -56,-5 -112,-10 -168,-15 -49,50 -98,100 -148,150 -55,9 -110,19 -165,28 -35,61 -70,122 -104,183 -51,24 -102,47 -153,71 -17,68 -35,135 -53,203 -43,36 -86,72 -129,108 0,70 1,140 2,210 -33,46 -65,92 -97,138 18,67 37,135 56,202 -20,53 -39,105 -59,158 36,60 71,121 107,181 -5,56 -10,112 -15,168 50,49 100,98 150,148 9,55 19,110 28,165 61,35 122,69 183,104 24,51 47,102 71,153 68,17 135,35 203,53 36,43 72,86 108,129 70,-1 140,-1 210,-2 46,33 92,65 138,97 67,-18 135,-37 202,-56 53,20 106,39 158,58 61,-35 121,-71 181,-106 56,5 112,10 168,15 49,-50 98,-100 148,-150 55,-9 110,-19 165,-28 35,-61 69,-122 104,-183 51,-24 102,-47 153,-71 17,-68 35,-136 53,-203 43,-36 86,-72 129,-108 0,-70 -1,-140 -2,-210 33,-46 65,-92 97,-138 -18,-67 -37,-135 -56,-203 20,-52 39,-105 58,-157 -35,-61 -71,-121 -106,-181 5,-56 10,-112 15,-168 -4,-4 -9,-9 -13,-13z"/>
      <path class="fil4 str1" d="M9446 6214c-50,-49 -99,-98 -149,-147 -10,-60 -20,-120 -31,-180 -66,-38 -133,-76 -199,-113 -26,-56 -51,-111 -77,-166 -74,-20 -147,-39 -221,-58 -39,-47 -78,-94 -117,-141 -77,1 -153,1 -230,2 -49,-35 -99,-70 -149,-106 -74,21 -147,41 -221,61 -57,-21 -114,-42 -171,-63 -66,39 -132,77 -198,116 -60,-6 -121,-11 -182,-17 -54,55 -107,109 -161,164 -60,10 -120,20 -180,31 -38,66 -76,133 -113,199 -56,26 -111,51 -166,77 -20,74 -39,147 -58,221 -47,39 -94,78 -141,117 1,77 1,153 2,230 -35,49 -70,99 -106,149 21,73 41,147 61,221 -21,57 -42,114 -63,171 39,66 77,132 116,198 -5,60 -11,121 -17,182 55,54 109,107 164,161 10,60 20,120 31,180 66,38 133,75 199,113 26,56 51,111 77,166 74,20 147,39 221,58 39,47 78,94 117,141 77,-1 153,-1 230,-2 49,35 99,70 149,105 73,-20 147,-40 221,-61 57,22 114,43 171,64 66,-39 132,-78 198,-116 60,5 121,11 182,17 54,-55 107,-109 161,-164 60,-10 120,-20 180,-31 38,-66 75,-133 113,-199 56,-26 111,-51 166,-77 20,-74 39,-148 58,-221 47,-39 94,-78 141,-117 -1,-77 -1,-153 -2,-230 35,-49 70,-99 106,-149 -21,-74 -41,-147 -61,-221 21,-57 42,-114 63,-171 -39,-66 -77,-132 -116,-198 5,-61 11,-121 17,-182 -5,-5 -10,-9 -15,-14z"/>
      <path class="fil4 str1" d="M9558 6166c-53,-52 -107,-105 -161,-158 -11,-65 -22,-130 -33,-195 -72,-41 -144,-82 -216,-122 -27,-60 -55,-120 -83,-180 -80,-21 -159,-42 -239,-62 -43,-51 -85,-102 -127,-153 -83,1 -165,2 -248,2 -54,-38 -107,-76 -161,-114 -80,22 -159,44 -239,66 -62,-23 -124,-45 -186,-68 -71,42 -142,83 -213,125 -66,-6 -131,-12 -197,-18 -58,59 -116,118 -174,177 -65,11 -130,22 -195,33 -41,72 -82,144 -122,216 -60,27 -120,55 -180,83 -21,79 -42,159 -62,239 -51,42 -102,85 -153,127 1,83 2,165 2,248 -38,54 -76,107 -114,161 22,80 44,159 66,239 -23,62 -45,124 -68,186 42,71 83,142 125,213 -6,66 -12,131 -18,197 59,58 118,116 177,174 11,65 22,130 33,195 72,41 144,81 216,122 27,60 55,120 83,180 80,21 159,41 239,62 43,51 85,102 127,152 83,0 165,-1 248,-1 54,38 107,76 161,114 80,-22 159,-44 239,-66 62,23 124,45 186,68 71,-42 142,-83 213,-125 66,6 131,12 197,18 58,-59 116,-118 174,-177 65,-11 130,-22 195,-33 41,-72 81,-144 122,-216 60,-27 120,-55 180,-83 21,-80 42,-160 62,-239 51,-43 102,-85 153,-127 -1,-83 -2,-165 -2,-248 38,-54 76,-107 114,-161 -22,-80 -44,-159 -66,-239 23,-62 45,-124 68,-186 -42,-71 -83,-142 -125,-213 6,-66 12,-131 18,-197 -5,-5 -11,-10 -16,-16z"/>
      <path class="fil4 str1" d="M9670 6119c-57,-57 -115,-113 -173,-170 -12,-70 -24,-140 -36,-210 -77,-44 -154,-88 -232,-131 -29,-65 -59,-129 -89,-194 -86,-22 -171,-44 -257,-67 -46,-54 -91,-109 -137,-163 -88,0 -177,1 -266,2 -58,-41 -116,-82 -174,-123 -85,24 -171,47 -256,71 -67,-25 -133,-49 -200,-74 -76,45 -153,90 -229,135 -71,-6 -142,-13 -212,-19 -63,63 -125,126 -187,190 -70,12 -140,24 -210,36 -44,77 -88,154 -131,231 -65,30 -129,60 -194,90 -22,85 -44,171 -67,257 -54,46 -109,91 -163,136 0,89 1,178 2,267 -41,58 -82,116 -123,173 24,86 47,172 71,257 -25,67 -49,133 -74,200 45,76 90,153 135,229 -6,71 -13,141 -19,212 63,62 126,125 190,187 12,70 24,140 36,210 77,44 154,87 231,131 30,65 60,129 90,194 86,22 171,44 257,66 46,55 91,110 136,164 89,0 178,-1 267,-2 58,41 116,82 173,123 86,-24 172,-47 257,-71 67,24 133,49 200,73 76,-44 153,-89 229,-134 71,6 142,13 212,19 63,-63 125,-127 187,-190 70,-12 140,-24 210,-36 44,-77 87,-154 131,-232 65,-29 129,-59 194,-89 22,-86 44,-172 67,-257 54,-46 109,-91 163,-137 0,-88 -1,-177 -2,-266 41,-58 82,-116 123,-174 -24,-85 -47,-171 -71,-256 24,-67 49,-133 74,-200 -45,-76 -90,-153 -135,-229 6,-71 13,-142 19,-212 -5,-6 -11,-11 -17,-17z"/>
      <path class="fil4 str1" d="M9782 6072c-61,-61 -123,-122 -185,-183 -13,-74 -26,-149 -38,-224 -83,-47 -166,-94 -248,-140 -32,-69 -64,-138 -96,-207 -92,-24 -183,-48 -275,-72 -49,-58 -97,-117 -146,-175 -95,1 -190,1 -285,2 -62,-44 -124,-87 -186,-131 -91,25 -183,51 -275,76 -71,-26 -142,-53 -213,-79 -82,48 -164,96 -246,144 -75,-7 -151,-14 -226,-21 -67,68 -134,136 -200,204 -75,13 -150,25 -225,38 -47,83 -94,166 -140,248 -69,32 -138,64 -207,96 -24,91 -48,183 -72,275 -58,49 -117,97 -175,146 1,95 1,190 2,285 -44,62 -87,124 -131,186 25,91 51,183 76,275 -26,71 -53,142 -79,213 48,82 96,164 144,246 -7,75 -14,151 -20,226 67,67 135,134 203,200 13,75 25,150 38,225 83,47 166,93 248,140 32,69 64,138 96,207 91,24 183,48 275,72 49,58 97,117 146,175 95,-1 190,-2 285,-2 62,43 124,87 186,131 91,-25 183,-51 275,-76 71,26 142,53 213,79 82,-48 164,-96 246,-144 75,7 151,13 226,20 67,-67 134,-135 200,-203 75,-13 150,-26 225,-38 47,-83 93,-166 140,-248 69,-32 138,-64 207,-96 24,-92 48,-183 72,-275 58,-49 117,-98 175,-146 -1,-95 -2,-190 -2,-285 44,-62 87,-124 131,-186 -25,-91 -51,-183 -76,-275 26,-71 53,-142 79,-213 -48,-82 -96,-164 -144,-246 7,-75 13,-151 20,-226 -6,-6 -12,-12 -18,-18z"/>
      <path class="fil4 str1" d="M9895 6025c-66,-65 -132,-130 -198,-195 -14,-79 -27,-159 -41,-239 -88,-50 -176,-100 -264,-149 -34,-74 -68,-147 -102,-221 -98,-25 -195,-51 -293,-76 -52,-62 -104,-125 -156,-187 -101,1 -202,2 -303,3 -66,-47 -132,-94 -198,-140 -98,27 -195,54 -293,81 -76,-28 -152,-56 -227,-84 -88,51 -175,102 -262,153 -80,-7 -161,-14 -241,-22 -72,72 -143,145 -214,217 -79,13 -159,27 -239,41 -50,88 -100,176 -149,264 -74,34 -147,68 -221,102 -25,97 -51,195 -76,293 -62,52 -125,104 -187,155 1,102 2,203 3,304 -47,66 -94,132 -140,198 27,98 54,195 81,293 -28,76 -56,151 -84,227 51,87 102,175 153,262 -7,80 -14,161 -22,241 72,71 145,143 217,214 13,79 27,159 41,239 88,50 176,99 264,149 34,74 68,147 102,221 97,25 195,51 293,76 52,62 104,124 156,187 101,-1 202,-2 303,-3 66,47 132,94 198,140 98,-27 195,-54 293,-81 76,28 151,56 227,84 87,-51 175,-102 262,-154 80,8 161,15 241,23 71,-73 143,-145 214,-217 79,-14 159,-27 239,-41 50,-88 99,-176 149,-264 74,-34 147,-68 221,-102 25,-98 51,-195 76,-293 62,-52 124,-104 187,-156 -1,-101 -2,-202 -3,-303 47,-66 94,-132 140,-198 -27,-98 -54,-195 -81,-293 28,-76 56,-152 84,-227 -51,-88 -102,-175 -153,-262 7,-80 14,-161 22,-241 -7,-7 -13,-13 -19,-19z"/>
      <path class="fil4 str1" d="M10007 5977c-70,-68 -140,-137 -210,-206 -14,-84 -29,-169 -43,-254 -94,-53 -187,-106 -281,-159 -36,-78 -72,-155 -108,-233 -104,-27 -207,-54 -311,-81 -55,-66 -110,-132 -165,-198 -108,0 -215,1 -322,2 -70,-49 -140,-99 -210,-148 -104,28 -208,57 -311,85 -81,-29 -161,-59 -242,-89 -92,55 -185,109 -277,163 -86,-7 -171,-15 -257,-23 -75,77 -150,153 -226,230 -84,14 -169,29 -254,43 -53,94 -106,187 -159,281 -77,36 -155,72 -233,107 -27,104 -54,208 -81,312 -66,55 -132,110 -198,165 0,107 1,215 2,322 -49,70 -99,140 -148,210 28,104 57,208 85,311 -29,81 -59,161 -89,241 55,93 109,186 163,278 -7,86 -15,171 -23,256 77,76 153,151 230,227 14,84 29,169 43,253 94,53 187,106 281,159 36,78 72,156 108,234 103,27 207,54 311,81 55,66 110,132 165,198 108,0 215,-1 322,-2 70,49 140,99 210,148 104,-28 208,-57 311,-85 81,29 161,59 242,89 92,-55 185,-109 277,-164 86,8 171,16 257,24 75,-77 150,-153 226,-230 84,-14 169,-29 254,-43 53,-94 105,-187 158,-281 78,-36 156,-72 234,-108 27,-104 54,-207 81,-311 66,-55 132,-110 198,-165 0,-108 -1,-215 -2,-323 49,-70 99,-140 148,-210 -28,-103 -57,-207 -85,-310 29,-81 59,-161 89,-242 -55,-92 -109,-185 -164,-277 8,-86 16,-171 24,-257 -7,-6 -14,-13 -20,-20z"/>
      <path class="fil4 str1" d="M10119 5930c-74,-73 -148,-145 -222,-218 -15,-90 -31,-179 -46,-268 -99,-57 -198,-113 -296,-169 -38,-82 -77,-165 -115,-247 -109,-29 -219,-57 -329,-86 -58,-70 -117,-139 -175,-209 -113,1 -227,2 -341,2 -74,-52 -148,-104 -222,-157 -109,31 -219,61 -328,91 -86,-31 -171,-63 -256,-94 -98,57 -196,115 -293,173 -91,-9 -181,-17 -272,-25 -79,81 -159,162 -239,243 -90,15 -179,31 -268,46 -56,99 -113,198 -169,296 -82,38 -165,76 -247,114 -29,110 -57,220 -86,330 -69,58 -139,116 -209,175 1,113 2,227 2,341 -52,74 -104,148 -157,222 31,109 61,219 91,328 -31,85 -63,171 -94,256 58,98 115,196 173,293 -9,91 -17,181 -25,272 81,79 162,159 243,239 15,89 31,179 46,268 99,56 198,112 296,169 38,82 76,164 115,247 109,28 219,57 329,86 58,69 117,139 175,209 113,-1 227,-2 341,-3 74,53 148,105 222,157 109,-30 219,-60 328,-90 86,31 171,62 256,94 98,-58 196,-115 293,-173 91,9 181,17 272,25 79,-81 159,-162 239,-243 89,-15 179,-31 268,-46 56,-99 112,-198 169,-297 82,-38 164,-76 247,-114 28,-110 57,-219 86,-329 69,-59 139,-117 209,-175 -1,-113 -2,-227 -2,-341 52,-74 104,-148 156,-222 -30,-109 -60,-219 -90,-328 31,-86 63,-171 94,-256 -58,-98 -115,-196 -173,-294 9,-90 17,-180 25,-271 -7,-7 -14,-14 -21,-21z"/>
      <path class="fil4 str1" d="M10231 5883c-78,-77 -156,-154 -234,-230 -16,-95 -32,-189 -48,-283 -105,-59 -209,-119 -313,-178 -40,-87 -80,-174 -121,-261 -115,-30 -231,-60 -347,-90 -62,-74 -123,-147 -184,-221 -120,1 -240,2 -360,3 -78,-55 -156,-111 -234,-166 -116,32 -231,64 -347,96 -89,-33 -179,-66 -269,-99 -103,60 -207,121 -310,182 -95,-9 -190,-18 -286,-27 -84,86 -168,171 -252,257 -95,16 -189,32 -283,48 -59,105 -119,209 -178,313 -87,40 -174,80 -261,120 -30,116 -60,232 -90,348 -74,62 -147,123 -221,184 1,120 2,240 3,360 -55,78 -111,156 -166,234 32,116 64,231 96,347 -33,89 -66,179 -99,269 60,103 121,206 182,310 -9,95 -18,190 -27,286 86,84 171,168 257,252 16,95 32,189 48,283 105,59 209,118 313,178 40,87 80,174 120,260 116,31 232,61 348,91 62,74 123,147 184,221 120,-1 240,-2 360,-3 78,55 156,110 234,166 116,-32 231,-64 347,-96 89,33 179,66 269,99 103,-60 206,-121 310,-182 95,9 190,18 286,27 84,-86 168,-171 252,-257 95,-16 189,-32 283,-49 59,-104 119,-208 178,-312 87,-40 174,-80 261,-121 30,-116 60,-231 90,-347 74,-62 147,-123 221,-184 -1,-120 -2,-240 -3,-360 55,-78 110,-156 166,-234 -32,-116 -64,-231 -96,-347 33,-90 66,-179 99,-269 -60,-103 -121,-207 -182,-310 9,-95 18,-190 27,-286 -8,-7 -16,-15 -23,-22z"/>
      <path class="fil4 str1" d="M10343 5836c-82,-81 -164,-162 -246,-243 -17,-99 -34,-198 -51,-297 -110,-62 -219,-125 -329,-187 -42,-91 -84,-183 -127,-274 -121,-32 -243,-64 -365,-95 -65,-78 -129,-155 -194,-233 -126,1 -252,2 -378,3 -82,-58 -164,-116 -246,-174 -122,34 -243,67 -365,101 -94,-35 -189,-70 -283,-105 -109,64 -217,128 -326,192 -100,-10 -201,-19 -301,-28 -88,90 -177,180 -265,270 -100,17 -199,34 -298,51 -62,110 -125,219 -187,329 -91,42 -183,84 -274,126 -32,122 -64,244 -95,366 -78,65 -155,129 -233,194 1,126 2,252 3,378 -58,82 -116,164 -174,246 34,122 67,243 101,365 -35,94 -70,189 -105,283 64,109 128,217 192,326 -9,100 -19,201 -28,301 90,88 180,177 270,265 17,100 34,199 51,298 110,62 219,124 329,187 42,91 84,183 126,274 122,32 244,63 366,95 65,78 129,155 194,233 126,-1 252,-2 378,-3 82,58 164,116 246,174 122,-34 243,-67 365,-101 94,35 189,70 283,105 109,-64 217,-128 326,-192 100,9 201,19 301,28 88,-90 177,-180 265,-270 100,-17 199,-34 298,-51 62,-110 125,-219 187,-329 91,-42 183,-84 274,-127 32,-122 63,-243 95,-365 78,-65 155,-129 233,-194 -1,-126 -2,-252 -3,-378 58,-82 116,-164 174,-246 -34,-122 -67,-243 -101,-365 35,-94 70,-189 105,-283 -64,-109 -128,-218 -192,-326 9,-100 19,-201 28,-301 -8,-8 -16,-16 -24,-23z"/>
      <path class="fil4 str1" d="M10455 5788c-86,-84 -172,-169 -258,-254 -18,-104 -36,-208 -54,-312 -115,-65 -230,-131 -345,-196 -44,-96 -88,-192 -132,-288 -128,-33 -256,-66 -384,-100 -68,-81 -136,-162 -203,-243 -133,1 -265,2 -397,3 -86,-61 -173,-122 -259,-183 -127,35 -255,70 -382,106 -99,-37 -198,-74 -298,-110 -113,67 -227,134 -341,201 -106,-10 -211,-20 -316,-29 -93,94 -186,188 -279,283 -104,18 -208,36 -312,53 -65,116 -131,231 -196,346 -96,44 -192,88 -288,132 -33,128 -66,256 -99,384 -82,68 -163,136 -244,203 1,132 2,265 3,397 -61,86 -122,172 -183,259 35,127 70,255 106,382 -37,99 -73,198 -110,297 67,114 134,228 201,342 -10,105 -19,211 -29,316 94,93 189,186 283,279 18,104 36,208 54,312 115,65 230,130 345,196 44,96 88,192 132,288 128,33 256,66 384,99 68,82 136,163 203,244 132,-1 265,-2 397,-3 86,61 172,122 259,183 127,-35 255,-70 382,-106 99,37 198,73 297,110 114,-67 228,-134 342,-201 106,10 211,19 316,29 93,-94 186,-189 279,-283 104,-18 208,-36 312,-54 65,-115 131,-230 196,-345 96,-44 192,-88 288,-133 33,-127 66,-255 99,-383 82,-68 163,-136 244,-203 -1,-133 -2,-265 -3,-397 61,-86 122,-173 183,-259 -35,-127 -70,-255 -106,-382 37,-99 73,-198 110,-298 -67,-114 -134,-227 -201,-341 10,-106 19,-211 29,-316 -8,-8 -17,-16 -25,-25z"/>
      <path class="fil4 str1" d="M10567 5741c-90,-89 -180,-177 -270,-266 -19,-109 -37,-218 -56,-327 -121,-68 -241,-137 -361,-205 -47,-100 -93,-201 -139,-301 -134,-35 -268,-70 -402,-105 -71,-85 -142,-170 -213,-255 -138,1 -277,2 -415,3 -91,-64 -181,-127 -271,-191 -134,37 -267,74 -401,110 -103,-38 -207,-76 -311,-114 -119,70 -238,140 -358,210 -110,-10 -220,-20 -330,-30 -97,98 -195,197 -292,296 -109,19 -218,37 -327,56 -68,120 -137,241 -205,361 -100,47 -201,93 -301,139 -35,134 -70,268 -105,402 -85,71 -170,142 -255,213 1,138 2,277 3,415 -64,90 -127,181 -191,271 37,133 74,267 110,400 -38,104 -76,208 -114,312 70,119 140,238 210,358 -10,110 -20,220 -30,330 98,97 197,195 296,292 19,109 37,218 56,327 120,68 241,136 361,205 47,100 93,201 139,301 134,35 268,70 402,105 71,85 142,170 213,255 138,-1 277,-2 415,-3 91,64 181,127 271,191 134,-37 267,-74 401,-110 103,38 207,76 311,114 119,-70 238,-140 358,-210 110,10 220,20 330,30 97,-98 195,-197 292,-296 109,-19 218,-37 327,-56 68,-121 137,-241 205,-361 100,-47 201,-93 301,-139 35,-134 70,-268 105,-402 85,-71 170,-142 255,-213 -1,-138 -2,-277 -3,-415 64,-91 127,-181 191,-271 -37,-134 -74,-267 -110,-401 38,-103 76,-207 114,-311 -70,-119 -140,-238 -210,-358 10,-110 20,-220 30,-330 -8,-9 -17,-17 -26,-26z"/>
      <path class="fil4 str1" d="M10679 5694c-94,-93 -188,-186 -282,-278 -19,-114 -39,-228 -59,-342 -125,-71 -251,-143 -377,-214 -49,-105 -97,-210 -145,-315 -140,-36 -280,-73 -420,-109 -74,-89 -148,-178 -222,-267 -145,1 -290,2 -435,3 -94,-66 -188,-133 -282,-199 -140,38 -279,77 -419,115 -108,-40 -217,-80 -325,-120 -125,73 -249,147 -374,220 -115,-11 -230,-21 -345,-32 -102,103 -203,207 -305,310 -114,19 -228,39 -342,59 -71,125 -143,251 -214,377 -105,49 -210,97 -315,145 -36,140 -73,280 -109,420 -89,74 -178,148 -267,222 1,145 2,290 4,434 -67,95 -134,189 -200,283 38,140 77,279 115,419 -40,108 -80,217 -120,325 73,125 147,249 220,374 -11,115 -21,230 -32,345 103,102 207,203 310,305 19,114 39,228 59,342 125,71 251,142 377,214 49,105 97,210 145,315 140,36 280,73 420,109 74,89 148,178 222,267 145,-1 290,-2 434,-4 95,67 189,134 283,200 140,-38 279,-77 419,-115 108,40 217,80 325,120 125,-74 249,-147 374,-220 115,10 230,21 345,32 102,-104 203,-207 305,-310 114,-20 228,-39 342,-59 71,-126 143,-251 214,-377 105,-49 210,-97 315,-145 36,-140 73,-280 109,-420 89,-74 178,-148 267,-222 -1,-145 -2,-290 -4,-435 67,-94 134,-188 200,-282 -38,-140 -77,-279 -115,-419 40,-108 80,-217 120,-325 -74,-125 -147,-249 -220,-374 11,-115 21,-230 32,-345 -9,-9 -19,-18 -28,-27z"/>
      <path class="fil4 str1" d="M10791 5646c-98,-96 -196,-193 -294,-289 -20,-119 -41,-238 -61,-357 -131,-74 -263,-149 -394,-223 -50,-110 -101,-219 -151,-329 -146,-37 -292,-75 -438,-113 -78,-93 -155,-186 -232,-279 -151,2 -302,3 -453,4 -98,-70 -196,-139 -295,-209 -145,41 -291,81 -436,121 -113,-42 -226,-83 -339,-125 -130,76 -260,153 -390,229 -120,-11 -240,-22 -360,-33 -106,108 -212,215 -318,323 -119,20 -238,41 -357,61 -74,131 -149,263 -223,394 -109,50 -219,101 -329,151 -37,146 -75,292 -113,438 -93,77 -186,155 -279,232 2,151 3,302 4,453 -70,98 -139,196 -208,295 40,145 80,291 120,436 -42,113 -83,226 -125,339 76,130 153,260 229,390 -11,120 -22,240 -33,360 108,106 215,212 323,318 20,119 41,238 61,357 131,74 263,148 394,223 50,109 101,219 151,328 146,38 292,76 438,114 78,93 155,186 232,278 151,-1 302,-2 453,-3 98,69 196,139 295,208 145,-40 291,-80 436,-120 113,42 226,83 339,125 130,-76 260,-153 390,-229 120,11 240,22 360,33 106,-108 212,-215 318,-323 119,-20 238,-41 357,-61 74,-131 149,-263 223,-394 109,-50 219,-101 328,-151 38,-146 76,-292 114,-438 93,-78 186,-155 278,-232 -1,-151 -2,-302 -3,-453 69,-98 139,-196 208,-295 -40,-145 -80,-291 -120,-436 42,-113 83,-226 125,-339 -76,-130 -153,-260 -229,-390 11,-120 22,-240 33,-360 -10,-10 -19,-19 -29,-29z"/>
      <path class="fil4 str1" d="M10903 5599c-102,-100 -204,-201 -306,-302 -21,-123 -42,-247 -64,-371 -136,-77 -273,-155 -410,-232 -52,-114 -105,-228 -157,-342 -152,-40 -304,-79 -456,-119 -81,-96 -161,-193 -241,-289 -158,1 -315,2 -472,3 -102,-72 -205,-144 -307,-217 -151,42 -303,84 -454,126 -118,-44 -236,-87 -353,-130 -136,79 -271,159 -407,238 -125,-11 -249,-23 -374,-34 -111,112 -221,224 -332,336 -123,21 -247,42 -371,64 -77,136 -155,273 -232,410 -114,52 -228,105 -342,157 -40,152 -79,304 -119,456 -96,81 -193,161 -289,241 1,157 2,315 3,472 -72,102 -144,205 -217,307 42,151 84,303 126,454 -44,118 -87,236 -130,353 79,136 159,271 238,406 -11,125 -23,250 -34,375 112,111 224,221 336,331 21,124 42,248 64,371 136,78 273,155 410,233 52,114 105,228 157,342 152,40 304,79 456,119 81,96 161,193 241,289 157,-1 315,-2 472,-3 102,72 205,144 307,217 151,-42 303,-84 454,-126 118,44 236,87 353,130 136,-79 271,-159 406,-238 125,11 250,23 375,34 111,-112 221,-224 331,-336 124,-21 248,-42 372,-64 77,-136 155,-273 232,-410 114,-52 228,-105 342,-157 40,-152 79,-304 119,-456 96,-81 193,-161 289,-241 -1,-158 -2,-315 -3,-472 72,-102 144,-205 217,-307 -42,-151 -84,-303 -126,-454 44,-118 87,-236 130,-354 -79,-135 -159,-270 -238,-406 11,-125 23,-250 34,-375 -10,-9 -20,-19 -30,-29z"/>
      <path class="fil4 str1" d="M11016 5552c-107,-105 -213,-209 -319,-314 -22,-128 -44,-257 -66,-385 -142,-81 -284,-162 -426,-242 -55,-119 -110,-237 -164,-356 -158,-41 -316,-82 -474,-123 -84,-100 -167,-201 -251,-301 -163,1 -327,2 -490,4 -106,-75 -213,-151 -319,-226 -158,44 -315,87 -473,131 -122,-46 -244,-91 -367,-136 -140,83 -281,166 -422,248 -130,-12 -260,-24 -390,-36 -114,117 -229,233 -344,350 -128,22 -257,44 -385,66 -81,142 -162,284 -242,426 -119,55 -237,110 -356,164 -41,158 -82,316 -123,474 -100,84 -201,167 -301,251 1,163 3,327 4,490 -75,106 -151,213 -226,319 44,158 87,315 131,473 -46,122 -91,244 -136,367 83,140 166,281 248,422 -12,130 -24,260 -36,390 117,114 233,229 350,344 22,128 44,257 66,385 142,81 284,161 426,242 55,119 110,237 164,356 158,41 316,82 474,123 84,100 167,201 251,301 163,-1 327,-3 490,-4 106,75 213,151 319,226 158,-44 315,-87 473,-131 122,45 244,91 367,136 140,-83 281,-166 422,-248 130,12 260,24 390,35 114,-116 229,-232 344,-349 128,-22 257,-44 385,-66 81,-142 162,-284 242,-426 119,-55 237,-110 356,-164 41,-158 82,-316 123,-474 100,-84 201,-167 301,-251 -1,-163 -3,-327 -4,-490 75,-106 151,-213 226,-319 -44,-158 -87,-315 -131,-473 45,-122 91,-244 136,-367 -83,-140 -166,-281 -248,-422 12,-130 24,-260 36,-390 -11,-10 -21,-20 -31,-30z"/>
      <path class="fil4 str1" d="M11128 5505c-111,-109 -221,-217 -331,-326 -23,-133 -46,-267 -69,-400 -147,-84 -295,-168 -442,-251 -57,-123 -114,-246 -170,-369 -164,-43 -328,-86 -492,-128 -87,-104 -174,-209 -260,-313 -170,2 -340,3 -509,4 -111,-78 -221,-156 -332,-234 -163,45 -327,90 -490,135 -127,-46 -254,-93 -381,-140 -146,86 -292,171 -438,257 -135,-12 -270,-24 -405,-37 -119,121 -238,242 -357,363 -133,23 -267,46 -400,69 -84,147 -168,295 -251,442 -123,57 -246,114 -369,170 -43,164 -86,328 -128,492 -104,87 -208,174 -313,260 2,170 3,340 4,509 -78,111 -156,221 -234,332 45,163 90,326 135,490 -46,127 -93,254 -140,381 86,146 171,292 257,438 -12,135 -24,270 -37,405 121,119 242,238 363,357 23,133 46,267 69,400 147,84 295,167 442,251 57,123 114,246 170,369 164,43 328,85 492,128 87,104 174,208 260,313 170,-2 340,-3 509,-4 111,78 221,156 332,234 163,-45 326,-90 490,-135 127,46 254,93 381,140 146,-86 292,-172 438,-257 135,12 270,24 405,37 119,-121 238,-242 357,-363 133,-23 267,-46 400,-69 84,-147 168,-295 251,-442 123,-57 246,-114 369,-170 43,-164 85,-328 128,-492 104,-87 208,-174 313,-260 -2,-170 -3,-340 -4,-509 78,-111 156,-221 234,-332 -45,-163 -90,-327 -135,-490 46,-127 93,-254 140,-381 -86,-146 -172,-292 -257,-438 12,-135 24,-270 37,-405 -11,-10 -22,-21 -32,-31z"/>
      <path class="fil4 str1" d="M11240 5457c-114,-112 -229,-225 -343,-337 -24,-139 -48,-277 -71,-415 -153,-87 -306,-174 -459,-260 -59,-128 -117,-255 -176,-383 -170,-44 -340,-88 -510,-132 -90,-108 -180,-216 -270,-324 -176,1 -352,2 -527,4 -115,-81 -229,-162 -344,-243 -169,47 -339,93 -508,140 -132,-48 -264,-97 -395,-146 -152,89 -303,178 -454,267 -140,-12 -280,-25 -420,-38 -123,125 -247,251 -370,376 -138,24 -277,47 -415,71 -87,153 -174,306 -260,459 -128,59 -255,117 -383,176 -44,170 -88,340 -132,510 -108,90 -216,180 -324,270 1,176 2,351 4,527 -81,115 -162,229 -243,344 47,169 93,339 140,508 -48,132 -97,263 -145,395 88,152 177,303 266,454 -12,140 -25,280 -38,420 125,123 251,247 376,370 24,138 47,277 71,415 153,87 306,173 459,260 59,128 117,255 176,383 170,44 340,88 510,132 90,108 180,216 270,324 176,-1 352,-2 527,-4 115,81 229,162 344,243 169,-47 339,-94 508,-140 132,48 263,97 395,145 152,-89 303,-178 454,-266 140,12 280,25 420,38 123,-125 247,-251 370,-376 138,-24 277,-48 415,-71 87,-153 174,-306 260,-459 128,-59 255,-118 383,-176 44,-170 88,-340 132,-510 108,-90 216,-180 324,-270 -1,-176 -2,-352 -4,-527 81,-115 162,-229 243,-344 -47,-169 -93,-339 -140,-508 48,-132 97,-264 145,-395 -89,-152 -177,-303 -266,-454 12,-140 25,-280 38,-420 -11,-11 -22,-22 -33,-33z"/>
      <path class="fil4 str1" d="M11352 5410c-118,-116 -237,-233 -355,-349 -25,-144 -49,-287 -74,-430 -158,-90 -316,-180 -475,-269 -60,-132 -121,-264 -182,-396 -176,-46 -352,-92 -528,-138 -93,-112 -186,-223 -279,-335 -182,1 -365,3 -547,4 -118,-84 -237,-168 -355,-251 -176,48 -351,97 -527,145 -136,-50 -272,-101 -408,-151 -157,92 -314,184 -471,276 -144,-13 -289,-26 -434,-39 -128,129 -256,259 -383,389 -144,25 -287,49 -430,74 -90,158 -180,316 -269,475 -132,60 -264,121 -396,182 -46,176 -92,352 -138,528 -111,93 -223,186 -335,279 1,182 3,364 4,546 -84,119 -168,238 -251,356 48,176 97,351 145,526 -50,137 -101,273 -151,409 92,157 184,314 276,471 -13,144 -26,289 -39,434 129,128 259,255 389,383 25,143 49,287 74,430 158,90 316,179 475,269 60,132 121,264 182,396 176,46 352,92 528,138 93,111 186,223 279,335 182,-1 364,-3 546,-4 119,84 238,167 356,251 176,-48 351,-97 526,-145 137,50 273,100 409,151 157,-92 314,-184 471,-277 144,14 289,27 434,40 128,-129 255,-259 383,-389 144,-25 287,-49 430,-74 90,-158 180,-316 269,-475 132,-61 264,-121 396,-182 46,-176 92,-352 138,-528 111,-93 223,-187 335,-280 -1,-182 -3,-364 -4,-546 84,-118 167,-237 251,-355 -48,-176 -97,-351 -145,-527 50,-136 101,-272 151,-408 -92,-157 -184,-314 -277,-471 14,-144 27,-289 40,-434 -11,-11 -23,-23 -34,-34z"/>
      <path class="fil4 str1" d="M11464 5363c-122,-121 -245,-241 -367,-362 -25,-148 -51,-296 -76,-444 -164,-93 -328,-186 -491,-278 -63,-137 -126,-274 -189,-410 -182,-47 -364,-95 -546,-142 -97,-116 -193,-231 -289,-347 -188,2 -376,3 -565,4 -122,-86 -245,-173 -368,-260 -181,51 -362,101 -544,151 -141,-52 -282,-104 -423,-156 -162,95 -324,190 -486,286 -150,-14 -299,-28 -449,-42 -132,134 -264,269 -397,403 -148,25 -296,51 -444,76 -93,164 -186,328 -278,491 -137,63 -273,126 -410,189 -47,182 -95,364 -142,546 -116,97 -231,193 -347,289 2,188 3,376 4,565 -86,122 -173,245 -259,367 50,182 100,363 150,545 -52,141 -104,282 -156,423 95,162 190,324 286,486 -14,150 -28,299 -42,449 135,132 269,264 403,396 25,149 51,297 76,445 164,93 328,185 491,278 63,137 126,273 189,410 182,47 364,95 546,142 97,116 193,231 289,347 188,-2 376,-3 565,-5 122,87 245,174 368,260 181,-50 362,-100 544,-150 141,52 282,104 423,156 162,-95 324,-190 486,-286 150,14 299,28 449,42 132,-135 264,-269 396,-403 149,-25 297,-51 445,-76 93,-164 186,-328 278,-491 137,-63 273,-126 410,-189 47,-182 95,-364 142,-546 116,-97 231,-193 347,-289 -2,-188 -3,-377 -4,-565 86,-122 173,-245 259,-368 -50,-181 -100,-362 -150,-544 52,-141 104,-282 156,-423 -95,-162 -190,-324 -286,-486 14,-150 28,-299 42,-449 -12,-12 -24,-23 -36,-35z"/>
      <path class="fil4 str1" d="M11576 5316c-126,-125 -253,-249 -379,-374 -26,-153 -53,-306 -79,-459 -169,-96 -338,-192 -507,-287 -65,-142 -130,-283 -195,-424 -188,-49 -376,-97 -564,-146 -100,-120 -199,-239 -299,-359 -194,2 -388,3 -583,5 -127,-90 -253,-179 -380,-269 -187,52 -375,104 -562,156 -146,-54 -291,-108 -437,-162 -167,99 -335,197 -502,296 -155,-15 -310,-29 -464,-43 -137,139 -273,277 -410,416 -153,26 -306,53 -459,79 -96,169 -192,338 -287,507 -142,65 -283,130 -424,195 -48,188 -97,376 -146,564 -120,100 -239,199 -359,298 2,195 3,389 5,584 -90,126 -179,253 -269,380 52,187 104,375 156,562 -54,146 -108,291 -162,437 99,167 197,335 296,502 -15,155 -29,309 -43,464 139,137 277,273 416,410 26,153 53,306 79,459 169,96 338,191 507,287 65,141 130,282 195,424 188,48 376,97 564,146 100,120 199,239 298,358 195,-1 389,-2 584,-4 127,90 253,179 380,269 187,-52 375,-104 562,-156 146,54 291,108 437,161 167,-98 335,-196 502,-295 155,14 310,29 464,43 137,-139 273,-277 410,-416 153,-26 306,-53 459,-79 96,-169 192,-338 287,-507 141,-65 283,-130 424,-195 48,-188 97,-376 146,-564 120,-100 239,-199 359,-299 -2,-194 -3,-388 -5,-583 90,-127 179,-253 269,-380 -52,-187 -104,-375 -156,-562 54,-146 108,-291 162,-437 -99,-167 -197,-335 -296,-502 15,-155 29,-310 43,-464 -12,-12 -25,-24 -37,-36z"/>
      <path class="fil4 str1" d="M11688 5268c-130,-128 -261,-257 -391,-385 -27,-158 -54,-316 -81,-474 -175,-99 -349,-198 -524,-297 -67,-145 -134,-291 -201,-436 -194,-51 -388,-101 -582,-152 -103,-123 -206,-246 -308,-369 -201,1 -401,3 -602,4 -131,-92 -261,-184 -392,-277 -194,54 -387,107 -580,160 -151,-55 -301,-111 -451,-166 -173,102 -346,203 -519,305 -159,-15 -319,-30 -478,-44 -141,143 -282,286 -423,429 -158,27 -316,54 -474,81 -99,175 -198,349 -297,524 -145,67 -291,134 -436,201 -51,194 -101,388 -151,582 -124,103 -247,205 -370,308 1,201 3,401 4,602 -92,131 -184,261 -277,392 54,193 107,387 160,580 -55,151 -110,301 -166,451 102,173 203,346 305,519 -15,159 -30,319 -44,478 143,141 286,282 429,423 27,158 54,316 81,474 175,99 349,197 524,296 67,146 134,292 201,437 194,51 388,101 582,151 103,124 205,247 308,370 201,-1 401,-3 602,-4 131,92 261,184 392,277 194,-54 387,-107 580,-160 151,55 301,110 451,166 173,-102 346,-203 519,-305 159,15 319,30 478,44 141,-143 282,-286 423,-429 158,-27 316,-54 474,-81 99,-175 198,-349 296,-524 146,-67 292,-134 437,-201 51,-194 101,-388 151,-582 124,-103 247,-206 370,-308 -1,-201 -3,-401 -4,-602 92,-131 184,-262 277,-392 -54,-194 -107,-387 -160,-580 55,-151 110,-301 166,-451 -102,-173 -203,-346 -305,-519 15,-159 30,-319 44,-478 -12,-13 -25,-25 -38,-38z"/>
      <path class="fil4 str1" d="M11800 5221c-134,-132 -269,-265 -403,-397 -28,-163 -56,-326 -84,-489 -180,-102 -360,-204 -540,-306 -69,-150 -138,-300 -207,-450 -200,-52 -400,-104 -600,-156 -106,-127 -212,-254 -318,-381 -206,2 -413,3 -620,5 -135,-96 -270,-191 -405,-286 -199,55 -398,110 -598,165 -155,-57 -309,-114 -464,-171 -179,104 -357,209 -535,314 -164,-15 -329,-30 -493,-46 -146,148 -291,295 -436,443 -163,28 -326,56 -489,84 -102,180 -204,360 -306,539 -150,70 -300,139 -450,208 -52,200 -104,400 -156,600 -127,106 -254,212 -381,318 2,206 3,413 5,620 -96,135 -191,270 -286,404 55,200 110,399 165,599 -57,154 -114,309 -171,464 104,178 209,357 314,535 -15,164 -30,329 -46,493 148,146 295,291 443,436 28,163 56,326 84,488 180,102 360,204 540,307 69,150 138,300 207,450 200,52 400,104 600,156 106,127 212,254 318,381 206,-2 413,-3 620,-5 135,95 270,191 404,286 200,-55 399,-110 599,-165 154,57 309,114 464,171 178,-105 357,-209 535,-314 164,15 329,30 493,45 146,-147 291,-295 436,-442 163,-28 326,-56 489,-84 102,-180 204,-360 306,-540 150,-69 300,-138 450,-207 52,-200 104,-400 156,-600 127,-106 254,-212 381,-318 -2,-207 -3,-413 -5,-620 95,-135 191,-270 286,-405 -55,-199 -110,-398 -165,-598 57,-155 114,-309 171,-464 -104,-179 -209,-357 -314,-535 15,-164 30,-329 45,-493 -13,-13 -26,-26 -39,-39z"/>
      <path class="fil4 str1" d="M11912 5174c-138,-137 -277,-273 -415,-409 -29,-168 -58,-336 -86,-503 -186,-106 -371,-211 -556,-316 -72,-154 -143,-309 -214,-463 -206,-54 -412,-108 -618,-161 -109,-131 -218,-262 -327,-393 -213,2 -426,3 -639,5 -139,-98 -278,-196 -417,-294 -205,57 -411,113 -616,170 -159,-59 -319,-118 -479,-177 -183,108 -367,216 -550,324 -170,-16 -339,-31 -509,-47 -149,152 -299,304 -448,456 -168,29 -336,58 -503,86 -105,186 -211,371 -316,556 -154,72 -309,143 -463,214 -54,206 -107,412 -161,618 -131,109 -262,218 -393,327 2,213 3,426 5,639 -98,139 -196,278 -294,417 57,205 113,410 170,616 -59,159 -118,319 -177,479 108,183 216,367 324,550 -16,170 -31,339 -47,508 152,150 304,300 456,449 29,168 58,336 86,503 186,105 371,210 556,316 72,154 143,309 214,463 206,54 412,107 618,161 109,131 218,262 327,393 213,-2 426,-4 639,-5 139,98 278,196 417,294 205,-57 410,-113 616,-170 159,59 319,118 479,177 183,-108 367,-216 550,-324 170,16 339,31 508,47 150,-152 300,-304 449,-456 168,-29 336,-58 503,-87 105,-185 211,-370 316,-555 154,-72 309,-143 463,-214 54,-206 107,-412 161,-619 131,-108 262,-217 393,-326 -2,-213 -4,-426 -5,-639 98,-139 196,-278 294,-417 -57,-205 -113,-411 -170,-616 59,-160 118,-319 177,-479 -108,-183 -216,-367 -324,-550 16,-170 31,-339 47,-509 -14,-13 -27,-26 -41,-39z"/>
      <path class="fil4 str1" d="M12025 5126c-143,-140 -286,-280 -428,-421 -30,-172 -59,-345 -89,-517 -191,-108 -381,-217 -572,-325 -73,-159 -147,-318 -220,-477 -212,-55 -424,-110 -636,-165 -113,-135 -225,-270 -337,-405 -219,2 -438,4 -658,5 -142,-100 -285,-201 -428,-302 -211,58 -423,116 -634,175 -164,-61 -329,-121 -493,-182 -189,111 -378,222 -566,333 -175,-16 -349,-32 -524,-48 -154,156 -308,313 -462,469 -172,30 -345,59 -517,89 -108,191 -217,381 -325,572 -159,73 -318,147 -477,220 -55,212 -110,424 -165,636 -135,112 -270,225 -404,337 1,219 3,438 5,657 -101,143 -202,286 -303,429 58,211 116,423 175,634 -61,164 -121,329 -182,493 111,189 222,378 333,566 -16,175 -32,349 -48,524 156,154 313,308 469,462 30,172 59,345 89,517 191,108 381,216 572,325 73,159 147,318 220,477 212,55 424,110 636,165 113,135 225,270 337,404 219,-1 438,-3 658,-5 142,101 285,202 428,303 211,-58 423,-117 634,-175 164,61 329,121 493,182 189,-111 378,-222 566,-333 175,16 349,32 524,48 154,-156 308,-313 462,-469 172,-30 345,-59 517,-89 108,-191 217,-381 325,-572 159,-73 318,-147 477,-220 55,-212 110,-424 165,-637 135,-112 270,-224 404,-336 -1,-219 -3,-438 -5,-658 101,-142 202,-285 303,-428 -58,-212 -116,-423 -175,-634 61,-164 121,-329 182,-493 -111,-189 -222,-378 -333,-566 16,-175 32,-349 48,-524 -14,-13 -28,-27 -41,-41z"/>
     </g>
     <polygon class="fil3 str1" points="12137,5079 11697,4646 11605,4114 11017,3780 10791,3289 10137,3119 9791,2704 9114,2709 8674,2398 8022,2578 7515,2391 6932,2733 6394,2684 5919,3166 5387,3257 5053,3846 4562,4072 4392,4726 3977,5072 3982,5749 3671,6189 3851,6841 3664,7348 4006,7931 3957,8469 4439,8944 4530,9476 5119,9810 5345,10300 5999,10471 6345,10886 7022,10881 7462,11192 8114,11012 8621,11199 9204,10857 9742,10906 10217,10424 10749,10332 11083,9744 11574,9518 11744,8863 12159,8518 12154,7841 12465,7401 12285,6749 12472,6242 12130,5659 12179,5121 "/>
    </g>
   </g>
  </g>
  <polygon class="fil5" points="0,0 9217,0 9217,5185 0,5185 "/>
 </g>
</svg>
