<?xml version="1.0" encoding="UTF-8"?>
<!DOCTYPE svg PUBLIC "-//W3C//DTD SVG 1.1//EN" "http://www.w3.org/Graphics/SVG/1.1/DTD/svg11.dtd">
<!-- Creator: CorelDRAW X8 -->
<svg xmlns="http://www.w3.org/2000/svg" xml:space="preserve" width="4558px" height="3418px" version="1.1" style="shape-rendering:geometricPrecision; text-rendering:geometricPrecision; image-rendering:optimizeQuality; fill-rule:evenodd; clip-rule:evenodd"
viewBox="0 0 7446 5585"
 xmlns:xlink="http://www.w3.org/1999/xlink">
 <defs>
  <style type="text/css">
   <![CDATA[
    .str0 {stroke:#7688A1;stroke-width:3.85951;stroke-opacity:0.501961}
    .fil3 {fill:none}
    .fil2 {fill:none}
    .fil1 {fill:none;fill-rule:nonzero}
    .fil0 {fill:#0D2F6D}
   ]]>
  </style>
   <clipPath id="id0">
    <path d="M0 0l7446 0 0 5585 -7446 0 0 -5585z"/>
   </clipPath>
 </defs>
 <g id="Слой_x0020_1">
  <metadata id="CorelCorpID_0Corel-Layer"/>
  <polygon class="fil0" points="0,0 7446,0 7446,5585 0,5585 "/>
  <g style="clip-path:url(#id0)">
   <g id="_2405543882576">
    <g>
     <polygon id="1" class="fil1 str0" points="1568,-872 1518,-921 1507,-982 1440,-1020 1414,-1076 1340,-1095 1301,-1143 1223,-1142 1173,-1178 1099,-1157 1041,-1178 975,-1139 914,-1145 859,-1090 799,-1080 761,-1013 705,-987 685,-912 638,-873 639,-796 603,-746 624,-671 602,-614 641,-547 636,-486 691,-432 701,-371 768,-333 794,-277 869,-258 908,-210 985,-211 1035,-176 1110,-196 1167,-175 1234,-214 1295,-208 1349,-263 1410,-274 1448,-341 1504,-366 1523,-441 1570,-480 1570,-557 1605,-608 1585,-682 1606,-740 1567,-806 1573,-867 "/>
     <g>
      <path class="fil2 str0" d="M1655 -909c-19,-20 -39,-39 -59,-59 -4,-24 -8,-48 -13,-72 -26,-15 -53,-30 -79,-45 -10,-22 -21,-44 -31,-67 -29,-7 -59,-15 -89,-23 -15,-18 -31,-37 -46,-56 -31,0 -61,1 -92,1 -20,-14 -40,-28 -60,-42 -29,8 -59,16 -88,24 -23,-8 -46,-17 -69,-25 -26,15 -52,31 -79,46 -24,-2 -48,-4 -72,-7 -22,22 -43,44 -65,66 -24,4 -48,8 -72,12 -15,27 -30,53 -45,80 -22,10 -44,20 -67,31 -7,29 -15,59 -23,88 -18,16 -37,31 -56,47 0,31 0,61 1,92 -14,20 -28,39 -42,59 8,30 16,59 24,89 -9,23 -17,45 -25,68 15,27 31,53 46,79 -2,25 -4,49 -7,73 22,22 44,43 66,64 4,24 8,49 12,73 27,15 53,30 80,45 10,22 20,44 30,66 30,8 59,16 89,23 16,19 31,38 47,57 30,-1 61,-1 92,-1 19,14 39,28 59,42 30,-8 59,-16 89,-24 22,8 45,17 68,25 26,-15 53,-31 79,-46 24,2 49,4 73,6 21,-21 43,-43 64,-65 24,-4 48,-8 72,-12 16,-27 31,-54 46,-80 22,-10 44,-21 66,-31 8,-29 15,-59 23,-88 19,-16 38,-32 56,-47 0,-31 0,-61 0,-92 14,-20 28,-40 42,-60 -8,-29 -16,-58 -24,-88 8,-23 16,-46 25,-69 -16,-26 -31,-52 -47,-78 3,-25 5,-49 7,-73 -2,-2 -4,-4 -6,-6z"/>
      <path class="fil2 str0" d="M1743 -946c-23,-23 -46,-45 -69,-68 -5,-28 -10,-56 -14,-84 -31,-17 -62,-34 -93,-52 -12,-26 -23,-51 -35,-77 -35,-9 -69,-18 -103,-27 -18,-21 -36,-43 -54,-65 -36,0 -71,1 -106,1 -24,-16 -47,-33 -70,-49 -34,9 -68,19 -102,28 -27,-9 -53,-19 -80,-29 -30,18 -61,36 -91,54 -28,-3 -56,-5 -85,-8 -24,25 -49,50 -74,76 -28,4 -56,9 -84,14 -17,31 -35,62 -52,92 -26,12 -51,24 -77,36 -9,34 -18,68 -27,103 -22,18 -43,36 -65,54 0,35 1,71 1,106 -17,23 -33,46 -49,69 9,34 19,69 28,103 -10,26 -19,53 -29,79 18,31 36,61 54,92 -3,28 -6,56 -8,84 25,25 50,50 76,75 4,28 9,55 14,83 31,18 61,35 92,53 12,25 24,51 36,77 34,9 68,18 103,26 18,22 36,44 54,66 35,-1 71,-1 106,-1 23,16 46,32 69,49 34,-10 68,-19 103,-29 26,10 53,20 79,30 31,-18 61,-36 92,-54 28,3 56,5 84,8 25,-25 50,-51 75,-76 27,-5 55,-9 83,-14 18,-31 35,-62 53,-93 25,-11 51,-23 77,-35 8,-34 17,-69 26,-103 22,-18 44,-36 66,-54 -1,-36 -1,-71 -1,-106 16,-23 32,-46 49,-70 -10,-34 -19,-68 -29,-102 10,-26 20,-53 30,-79 -18,-31 -36,-61 -54,-92 3,-28 5,-56 8,-84 -3,-3 -5,-5 -7,-7z"/>
      <path class="fil2 str0" d="M1831 -983c-27,-26 -53,-51 -79,-77 -5,-32 -11,-64 -16,-95 -35,-20 -70,-40 -105,-60 -14,-29 -27,-58 -41,-87 -39,-11 -78,-21 -116,-31 -21,-24 -42,-49 -62,-74 -40,0 -81,1 -121,1 -26,-19 -52,-37 -79,-56 -38,11 -77,22 -116,33 -30,-12 -60,-23 -90,-34 -35,21 -70,41 -104,61 -33,-3 -65,-6 -97,-9 -28,29 -56,58 -84,87 -32,5 -64,10 -95,16 -20,35 -40,70 -60,105 -29,13 -58,27 -88,40 -10,39 -20,78 -30,117 -25,21 -49,41 -74,62 0,40 1,80 1,121 -19,26 -37,52 -56,78 11,39 22,78 32,117 -11,30 -22,60 -33,90 20,35 41,69 61,104 -3,32 -6,64 -9,96 29,28 58,57 86,85 6,32 11,63 17,95 35,20 70,40 105,60 13,29 27,58 40,87 39,10 78,20 117,31 21,24 41,49 62,74 40,-1 80,-1 120,-1 27,18 53,37 79,55 39,-10 78,-21 117,-32 30,11 60,22 90,34 35,-21 69,-41 104,-62 32,3 64,6 96,9 28,-28 57,-57 85,-86 32,-5 63,-11 95,-16 20,-35 40,-70 59,-105 30,-14 59,-27 88,-41 10,-38 20,-77 30,-116 25,-21 50,-42 75,-62 -1,-40 -1,-81 -1,-121 18,-26 37,-52 55,-79 -10,-38 -21,-77 -32,-116 11,-30 22,-60 33,-90 -20,-35 -40,-70 -61,-104 3,-32 6,-64 9,-96 -2,-3 -5,-5 -7,-8z"/>
      <path class="fil2 str0" d="M1918 -1020c-29,-29 -59,-58 -88,-86 -6,-36 -12,-71 -18,-107 -39,-22 -79,-44 -118,-67 -15,-32 -30,-65 -45,-98 -44,-11 -87,-23 -131,-34 -23,-28 -46,-55 -69,-83 -45,0 -90,1 -135,1 -30,-21 -59,-42 -89,-62 -43,12 -87,24 -130,36 -34,-13 -68,-25 -101,-38 -39,23 -78,46 -117,69 -36,-3 -72,-7 -108,-10 -31,32 -63,64 -95,96 -35,7 -71,13 -106,19 -22,39 -45,78 -67,117 -33,16 -65,31 -98,46 -11,43 -23,87 -34,131 -28,23 -55,46 -83,69 0,45 1,90 1,135 -21,29 -42,59 -62,88 12,44 24,87 36,131 -13,33 -25,67 -38,101 23,39 46,78 69,117 -4,35 -7,71 -10,107 32,32 64,64 96,95 6,36 13,71 19,107 39,22 78,44 117,66 15,33 30,66 46,99 43,11 87,22 130,34 24,27 47,55 70,83 45,-1 90,-1 135,-1 29,21 59,41 88,62 44,-12 87,-24 131,-36 33,12 67,25 101,37 39,-22 78,-45 116,-68 36,3 72,7 108,10 32,-32 63,-65 95,-97 36,-6 71,-12 107,-18 22,-39 44,-78 66,-118 33,-15 66,-30 98,-45 12,-44 23,-87 34,-131 28,-23 56,-46 84,-69 -1,-45 -1,-90 -1,-135 20,-30 41,-59 62,-88 -12,-44 -24,-87 -36,-131 12,-34 25,-67 37,-101 -23,-39 -45,-78 -68,-117 3,-36 6,-72 10,-107 -3,-3 -6,-6 -9,-9z"/>
      <path class="fil2 str0" d="M2006 -1057c-33,-32 -65,-64 -98,-96 -6,-39 -13,-78 -20,-118 -43,-24 -87,-49 -130,-74 -17,-36 -34,-72 -50,-108 -49,-13 -97,-25 -145,-38 -26,-31 -52,-61 -77,-92 -50,0 -100,1 -150,1 -32,-23 -65,-46 -98,-69 -48,13 -96,27 -144,40 -37,-14 -75,-28 -112,-41 -43,25 -86,50 -129,75 -40,-3 -80,-7 -120,-11 -35,36 -70,72 -105,107 -39,7 -78,14 -118,21 -24,43 -49,86 -74,130 -36,17 -72,33 -108,50 -13,48 -26,97 -38,145 -31,26 -62,51 -92,77 0,50 1,100 1,150 -23,32 -46,65 -69,97 13,48 27,97 40,145 -14,37 -28,74 -42,112 26,43 51,86 76,129 -3,40 -7,79 -11,119 36,35 72,70 107,105 7,40 14,79 20,118 44,25 87,50 131,74 17,37 33,73 50,109 48,13 97,25 145,38 25,30 51,61 77,92 49,-1 99,-1 149,-1 33,23 66,46 98,69 48,-14 96,-27 145,-40 37,14 74,27 112,41 43,-25 86,-50 129,-76 40,4 79,8 119,11 35,-35 70,-71 105,-107 40,-6 79,-13 118,-20 25,-43 50,-87 74,-130 36,-17 73,-34 109,-50 13,-49 25,-97 38,-145 30,-26 61,-51 92,-77 -1,-50 -1,-100 -1,-150 23,-32 46,-65 69,-97 -14,-49 -27,-97 -40,-145 13,-37 27,-75 41,-112 -25,-43 -50,-86 -76,-129 4,-40 8,-80 11,-119 -3,-4 -6,-7 -9,-10z"/>
      <path class="fil2 str0" d="M2093 -1094c-35,-35 -71,-70 -107,-105 -7,-43 -14,-86 -22,-129 -47,-27 -95,-54 -143,-81 -18,-40 -37,-80 -55,-120 -53,-14 -106,-27 -159,-41 -28,-34 -56,-67 -84,-101 -55,0 -110,1 -164,1 -36,-25 -72,-50 -108,-76 -52,15 -105,30 -158,44 -41,-15 -82,-30 -123,-45 -47,27 -95,55 -142,83 -43,-4 -87,-8 -131,-12 -38,39 -77,78 -115,117 -43,8 -86,15 -130,22 -27,48 -54,96 -81,143 -39,19 -79,37 -119,55 -14,53 -27,107 -41,160 -34,28 -68,56 -101,84 0,54 1,109 1,164 -25,36 -50,71 -76,107 15,53 29,106 44,159 -15,41 -30,82 -45,123 27,47 55,94 83,141 -4,44 -8,88 -12,131 39,39 78,77 117,116 8,43 15,86 22,129 48,27 96,54 143,81 19,40 37,80 55,120 53,13 106,27 159,41 28,34 56,67 84,101 55,-1 110,-1 165,-1 36,25 71,50 107,75 53,-14 106,-29 159,-43 41,15 82,30 123,45 47,-28 94,-55 141,-83 44,4 88,8 131,12 39,-39 77,-78 116,-117 43,-8 86,-15 129,-23 27,-47 54,-95 81,-143 40,-18 80,-36 119,-55 14,-53 28,-106 42,-159 33,-28 67,-56 101,-84 -1,-55 -1,-109 -1,-164 25,-36 50,-72 75,-107 -14,-53 -29,-106 -44,-159 16,-41 31,-82 46,-123 -28,-47 -56,-94 -83,-142 4,-43 8,-87 12,-130 -4,-4 -7,-7 -11,-11z"/>
      <path class="fil2 str0" d="M2181 -1131c-39,-38 -78,-76 -116,-114 -9,-47 -17,-94 -25,-141 -52,-30 -103,-59 -155,-88 -20,-44 -40,-87 -60,-130 -58,-15 -116,-30 -173,-45 -31,-37 -61,-74 -92,-110 -60,0 -119,1 -179,1 -39,-27 -78,-55 -117,-82 -57,16 -115,32 -172,47 -45,-16 -89,-33 -134,-49 -51,30 -103,60 -154,91 -48,-5 -95,-9 -143,-14 -42,43 -83,86 -125,128 -47,8 -94,16 -141,24 -30,52 -59,104 -88,156 -44,20 -87,40 -130,60 -15,58 -30,115 -45,173 -37,31 -74,61 -110,91 0,60 1,120 1,180 -27,38 -55,77 -82,116 16,58 31,115 47,173 -16,44 -33,89 -49,134 30,51 60,103 90,154 -4,47 -8,95 -13,142 43,42 85,84 128,126 8,47 16,94 24,141 52,29 104,59 156,88 20,43 40,87 60,130 57,15 115,30 173,45 30,37 61,73 91,110 60,-1 120,-1 179,-1 39,27 78,55 117,82 58,-16 115,-32 173,-48 44,17 89,33 134,50 51,-30 102,-61 154,-91 47,5 95,9 142,13 42,-42 84,-85 126,-127 47,-8 94,-16 141,-25 29,-51 59,-103 88,-155 43,-20 87,-40 130,-60 15,-58 30,-116 45,-173 37,-31 73,-61 110,-92 -1,-59 -1,-119 -2,-179 28,-39 55,-78 83,-116 -16,-58 -32,-115 -48,-173 17,-45 33,-89 50,-134 -31,-51 -61,-103 -91,-154 4,-48 9,-95 13,-143 -4,-3 -7,-7 -11,-11z"/>
      <path class="fil2 str0" d="M2268 -1168c-42,-41 -83,-82 -125,-123 -9,-51 -18,-102 -27,-153 -56,-32 -112,-63 -168,-95 -21,-47 -43,-94 -65,-141 -62,-16 -124,-32 -187,-48 -33,-40 -66,-80 -99,-119 -64,0 -129,1 -193,1 -42,-29 -84,-59 -126,-89 -63,17 -125,34 -187,52 -48,-18 -97,-36 -145,-54 -56,33 -111,65 -167,98 -51,-5 -102,-9 -154,-14 -45,46 -90,92 -136,138 -50,9 -101,17 -152,26 -32,56 -64,112 -95,168 -47,22 -94,44 -141,65 -16,63 -32,125 -48,187 -40,33 -80,66 -119,99 0,65 1,129 1,194 -30,42 -59,84 -89,126 17,62 34,124 51,187 -17,48 -35,96 -53,145 33,55 65,111 98,166 -5,52 -9,103 -14,154 46,46 92,91 138,136 9,51 17,102 26,153 56,31 112,63 168,95 22,47 44,94 65,140 63,17 125,33 187,49 33,40 66,79 99,119 65,0 129,-1 194,-1 42,29 84,59 126,89 62,-18 124,-35 187,-52 48,18 96,36 144,54 56,-33 112,-66 167,-98 52,4 103,9 154,14 45,-46 91,-92 136,-138 51,-9 102,-18 152,-26 32,-57 64,-113 96,-169 47,-21 93,-43 140,-65 17,-62 33,-124 49,-187 40,-33 79,-66 119,-99 -1,-64 -1,-129 -2,-193 30,-42 60,-84 90,-126 -18,-63 -35,-125 -52,-187 18,-48 36,-97 53,-145 -32,-55 -65,-111 -97,-167 4,-51 9,-102 14,-154 -4,-4 -8,-8 -13,-12z"/>
      <path class="fil2 str0" d="M2356 -1204c-45,-45 -90,-89 -135,-134 -10,-54 -19,-109 -28,-164 -61,-34 -121,-68 -181,-102 -24,-50 -47,-101 -70,-151 -67,-18 -134,-35 -201,-52 -36,-43 -71,-86 -107,-128 -69,0 -138,1 -208,1 -45,-32 -90,-64 -135,-96 -67,19 -134,37 -201,56 -52,-19 -104,-38 -156,-58 -60,35 -119,71 -179,106 -55,-5 -111,-10 -166,-16 -48,50 -97,99 -146,149 -54,9 -109,19 -164,28 -34,60 -68,121 -102,181 -51,23 -101,46 -151,70 -18,67 -35,134 -53,201 -42,35 -85,71 -127,106 0,70 1,139 1,208 -32,46 -64,91 -96,136 19,67 37,134 56,201 -19,52 -39,104 -58,156 35,59 70,119 106,179 -6,55 -11,110 -16,165 50,49 99,98 149,146 9,55 19,110 28,164 60,34 121,69 181,103 23,50 46,101 70,151 67,17 134,35 201,52 35,43 71,85 106,128 70,0 139,-1 208,-2 46,32 91,64 136,96 67,-18 134,-37 201,-55 51,19 103,38 155,57 60,-35 120,-70 180,-105 55,5 110,10 165,15 49,-49 98,-99 146,-148 55,-10 110,-19 164,-28 34,-61 69,-121 103,-181 50,-23 100,-47 151,-70 17,-67 35,-134 52,-201 43,-36 85,-71 128,-107 -1,-69 -1,-138 -2,-208 32,-45 64,-90 96,-135 -18,-67 -37,-134 -55,-201 19,-52 38,-104 57,-156 -35,-60 -70,-119 -105,-179 5,-55 10,-110 15,-166 -4,-4 -9,-8 -13,-12z"/>
      <path class="fil2 str0" d="M2444 -1241c-49,-48 -97,-95 -145,-143 -10,-58 -20,-117 -30,-175 -65,-37 -129,-73 -194,-110 -25,-54 -50,-108 -74,-162 -72,-18 -144,-37 -216,-56 -38,-45 -76,-91 -114,-136 -74,0 -148,1 -222,1 -49,-34 -97,-68 -145,-102 -72,20 -143,39 -215,59 -56,-20 -111,-41 -167,-61 -64,37 -128,75 -192,112 -59,-5 -118,-11 -177,-16 -52,53 -104,106 -156,159 -59,10 -117,20 -175,30 -37,64 -74,129 -110,194 -54,24 -108,49 -162,74 -18,72 -37,144 -56,215 -45,38 -91,76 -137,114 1,74 2,149 2,223 -34,48 -68,97 -102,145 19,72 39,143 59,215 -21,55 -41,111 -62,166 38,64 76,128 113,192 -5,59 -11,118 -16,177 53,52 106,105 159,157 10,58 20,117 30,175 64,37 129,73 193,110 25,54 50,107 75,161 72,19 144,38 215,56 38,46 76,92 114,137 74,0 149,-1 223,-2 48,35 97,69 145,103 71,-20 143,-40 215,-59 55,20 111,41 166,61 64,-37 128,-75 192,-113 59,6 118,11 177,17 52,-53 104,-106 157,-159 58,-10 116,-20 175,-30 36,-65 73,-129 110,-194 54,-25 107,-49 161,-74 19,-72 38,-144 56,-216 46,-38 91,-76 137,-113 -1,-75 -1,-149 -2,-223 34,-49 69,-97 103,-145 -20,-72 -40,-143 -59,-215 20,-55 41,-111 61,-167 -37,-64 -75,-128 -113,-191 6,-60 11,-119 17,-178 -5,-4 -10,-9 -14,-13z"/>
      <path class="fil2 str0" d="M2531 -1278c-51,-51 -103,-102 -154,-152 -11,-62 -21,-125 -32,-187 -69,-39 -138,-78 -206,-117 -27,-57 -53,-115 -80,-172 -76,-20 -153,-40 -229,-60 -41,-48 -81,-97 -122,-145 -79,0 -158,1 -237,1 -51,-36 -103,-72 -154,-109 -77,21 -153,42 -229,63 -59,-22 -118,-43 -178,-65 -68,40 -136,80 -204,120 -63,-6 -126,-12 -189,-18 -55,57 -111,113 -166,170 -63,10 -125,21 -187,32 -39,69 -78,137 -117,206 -57,27 -115,53 -172,79 -20,77 -40,153 -60,230 -48,40 -97,81 -146,121 1,79 2,158 2,237 -36,52 -73,103 -109,155 21,76 42,152 63,229 -22,59 -44,118 -65,177 40,68 80,137 120,205 -6,63 -12,125 -18,188 57,56 113,111 170,167 10,62 21,124 32,187 68,39 137,78 206,117 26,57 53,114 79,172 77,20 153,40 230,59 40,49 81,98 121,146 79,0 158,-1 237,-2 52,37 103,73 155,110 76,-21 152,-43 229,-64 59,22 118,44 177,66 68,-40 136,-80 205,-120 62,6 125,11 188,17 56,-56 111,-113 167,-169 62,-11 124,-21 187,-32 39,-69 78,-138 117,-206 57,-27 114,-53 172,-80 20,-76 39,-153 59,-229 49,-41 97,-81 146,-121 -1,-80 -1,-159 -2,-238 37,-51 73,-103 109,-154 -21,-76 -42,-153 -63,-229 22,-59 44,-118 66,-178 -40,-68 -80,-136 -120,-204 6,-63 11,-126 17,-189 -5,-5 -10,-9 -15,-14z"/>
      <path class="fil2 str0" d="M2619 -1315c-55,-54 -109,-108 -164,-161 -11,-67 -23,-133 -34,-199 -73,-41 -146,-82 -219,-124 -28,-61 -56,-122 -84,-183 -81,-21 -163,-42 -244,-63 -43,-51 -86,-103 -128,-155 -84,1 -168,2 -252,2 -55,-38 -110,-77 -164,-115 -81,22 -162,44 -243,67 -63,-24 -126,-47 -189,-70 -72,42 -144,85 -217,127 -66,-6 -133,-12 -200,-18 -59,60 -118,120 -177,180 -66,11 -132,22 -198,34 -41,73 -83,146 -124,219 -61,28 -122,56 -183,84 -21,81 -42,162 -63,243 -51,43 -103,86 -155,129 1,84 2,168 2,252 -38,55 -77,109 -116,164 23,81 45,162 67,243 -23,63 -46,125 -69,188 42,73 85,145 127,217 -6,67 -12,134 -18,200 60,59 120,118 179,177 12,66 23,132 34,198 73,42 146,83 219,125 29,60 57,121 85,182 81,21 162,42 243,64 43,51 86,103 129,154 84,0 168,-1 252,-2 54,39 109,78 164,116 81,-22 162,-44 243,-67 62,23 125,47 188,70 72,-43 145,-85 217,-128 67,6 134,13 200,19 59,-60 118,-120 177,-180 66,-11 132,-23 198,-34 42,-73 83,-146 124,-219 61,-28 122,-56 183,-84 21,-81 42,-162 63,-244 52,-43 104,-85 155,-128 -1,-84 -1,-168 -2,-252 39,-55 77,-110 116,-164 -22,-81 -45,-162 -67,-243 23,-63 46,-126 70,-188 -43,-73 -85,-145 -128,-217 6,-67 12,-134 19,-201 -6,-5 -11,-10 -16,-15z"/>
      <path class="fil2 str0" d="M2706 -1352c-57,-57 -115,-114 -173,-171 -12,-70 -24,-139 -36,-209 -77,-44 -154,-88 -231,-132 -30,-64 -60,-129 -90,-193 -85,-22 -171,-45 -257,-67 -46,-54 -91,-109 -136,-164 -89,1 -178,2 -267,2 -58,-40 -115,-81 -173,-122 -86,23 -171,47 -257,71 -67,-25 -133,-49 -200,-74 -76,45 -152,90 -229,135 -71,-7 -141,-13 -212,-19 -62,63 -124,126 -187,189 -70,12 -140,24 -209,36 -44,78 -88,155 -132,232 -64,30 -129,60 -193,89 -22,86 -45,172 -67,258 -55,45 -109,91 -164,136 1,89 2,178 2,266 -41,58 -81,116 -122,174 23,86 47,171 71,257 -25,66 -49,133 -74,199 45,77 90,153 135,230 -7,70 -13,141 -20,211 64,63 127,125 190,187 12,70 24,140 36,210 78,44 155,88 232,131 30,65 59,129 89,194 86,22 172,44 258,67 45,54 90,109 136,163 89,0 177,-1 266,-2 58,41 116,82 174,123 85,-24 171,-47 257,-71 66,25 133,49 199,74 76,-45 153,-90 229,-135 71,6 142,13 212,19 63,-63 125,-126 187,-190 70,-12 140,-24 210,-36 44,-77 88,-154 131,-231 65,-30 129,-60 194,-89 22,-86 44,-172 67,-258 54,-45 109,-91 163,-136 0,-89 -1,-178 -2,-267 41,-57 82,-115 123,-173 -24,-86 -48,-171 -71,-257 24,-66 49,-133 73,-199 -44,-77 -89,-153 -134,-230 6,-70 13,-141 19,-212 -5,-5 -11,-11 -17,-16z"/>
      <path class="fil2 str0" d="M2794 -1389c-61,-60 -122,-120 -183,-180 -12,-74 -25,-147 -38,-221 -81,-46 -163,-92 -244,-139 -31,-68 -63,-135 -94,-203 -91,-24 -181,-47 -272,-71 -48,-58 -95,-115 -143,-173 -94,1 -188,2 -281,3 -61,-44 -122,-87 -183,-130 -91,25 -181,50 -271,75 -70,-26 -140,-52 -210,-78 -81,48 -162,95 -242,143 -75,-7 -149,-14 -224,-21 -66,67 -131,134 -197,200 -74,13 -147,26 -221,38 -46,82 -93,163 -139,245 -68,31 -136,62 -204,94 -23,90 -47,181 -70,271 -58,48 -115,96 -173,144 1,94 2,187 2,281 -43,61 -86,122 -129,183 25,90 50,180 75,271 -26,70 -52,140 -78,210 48,81 95,161 142,242 -6,74 -13,149 -20,223 67,66 133,132 200,198 13,73 26,147 38,221 82,46 163,92 244,138 32,68 63,136 94,204 91,24 182,47 272,71 48,57 96,115 144,172 93,0 187,-1 281,-2 61,43 122,86 183,130 90,-25 180,-50 271,-75 70,26 140,52 210,77 81,-47 161,-94 242,-142 74,7 149,14 223,21 66,-67 132,-134 198,-201 73,-12 147,-25 221,-38 46,-81 92,-162 138,-244 68,-31 136,-63 204,-94 24,-90 47,-181 71,-272 57,-47 115,-95 172,-143 0,-94 -1,-187 -2,-281 43,-61 86,-122 129,-183 -25,-90 -49,-181 -74,-271 26,-70 51,-140 77,-210 -47,-81 -95,-162 -142,-242 7,-75 14,-149 21,-224 -6,-6 -12,-11 -18,-17z"/>
      <path class="fil2 str0" d="M2881 -1426c-64,-63 -128,-126 -192,-189 -13,-78 -26,-155 -40,-233 -85,-48 -171,-97 -257,-145 -32,-72 -65,-143 -98,-215 -96,-25 -191,-49 -286,-74 -51,-61 -101,-121 -151,-182 -99,1 -197,2 -296,3 -64,-46 -128,-91 -192,-136 -95,26 -190,52 -285,78 -74,-27 -148,-54 -221,-81 -85,49 -170,99 -255,149 -78,-7 -157,-14 -235,-21 -69,70 -138,140 -207,210 -78,14 -155,27 -233,40 -48,86 -97,171 -146,257 -71,33 -143,66 -214,99 -25,95 -50,191 -74,286 -61,50 -121,100 -182,151 1,98 2,197 2,295 -45,65 -90,129 -136,193 27,95 53,190 79,285 -27,73 -54,147 -82,221 50,85 100,170 150,254 -7,79 -14,157 -22,235 71,70 141,139 211,208 13,77 27,155 40,233 86,48 171,97 257,145 33,72 66,143 99,215 95,24 190,49 286,74 50,60 100,121 151,181 98,0 197,-1 295,-2 64,46 129,91 193,136 95,-26 190,-52 285,-78 73,27 147,54 221,81 85,-50 170,-100 254,-149 79,7 157,14 235,21 70,-70 139,-140 208,-210 77,-14 155,-27 232,-40 49,-86 98,-172 146,-257 72,-33 143,-66 214,-99 25,-96 50,-191 75,-286 60,-50 121,-101 181,-151 0,-99 -1,-197 -2,-296 45,-64 91,-128 136,-192 -26,-95 -52,-190 -79,-285 28,-74 55,-147 82,-221 -50,-85 -100,-170 -149,-255 7,-78 14,-156 21,-235 -6,-6 -12,-12 -19,-18z"/>
      <path class="fil2 str0" d="M2969 -1463c-67,-66 -134,-132 -201,-198 -14,-82 -28,-163 -42,-244 -90,-51 -180,-102 -270,-153 -35,-75 -69,-150 -104,-225 -100,-26 -200,-52 -300,-78 -53,-64 -105,-127 -158,-191 -103,1 -207,2 -310,3 -68,-48 -135,-96 -202,-143 -100,27 -199,55 -299,82 -77,-28 -155,-57 -232,-85 -89,52 -178,104 -267,157 -82,-8 -165,-15 -247,-23 -72,74 -145,147 -218,221 -81,14 -162,28 -244,42 -51,90 -102,180 -153,270 -74,34 -149,69 -224,103 -26,100 -52,200 -78,300 -64,53 -127,106 -191,159 1,103 2,206 2,310 -47,67 -95,134 -142,202 27,99 55,199 82,299 -28,77 -57,154 -85,232 52,89 104,178 157,267 -8,82 -16,164 -23,246 74,73 147,146 221,218 14,82 28,163 42,244 90,51 180,102 270,153 34,75 69,150 103,225 100,26 200,52 300,78 53,63 106,127 159,190 103,0 206,-1 310,-2 67,48 134,95 202,143 99,-28 199,-55 299,-83 77,29 154,57 232,86 89,-52 178,-105 267,-157 82,8 164,15 246,23 73,-74 146,-148 218,-221 81,-14 163,-28 244,-42 51,-90 102,-180 153,-270 75,-34 150,-69 225,-104 26,-100 52,-200 78,-300 63,-52 127,-105 190,-158 0,-103 -1,-207 -2,-310 48,-67 95,-135 143,-202 -28,-100 -55,-199 -83,-299 29,-77 57,-155 86,-232 -52,-89 -105,-178 -157,-267 7,-82 15,-165 23,-247 -7,-6 -13,-13 -20,-19z"/>
      <path class="fil2 str0" d="M3057 -1500c-71,-69 -141,-138 -211,-208 -15,-85 -30,-170 -44,-255 -94,-54 -188,-107 -283,-160 -36,-79 -72,-157 -108,-236 -105,-27 -209,-54 -314,-81 -55,-67 -111,-133 -166,-200 -108,1 -216,2 -325,3 -70,-50 -141,-100 -211,-150 -104,29 -209,58 -313,87 -81,-30 -162,-60 -243,-90 -93,55 -187,109 -280,164 -86,-8 -172,-16 -258,-23 -76,77 -152,154 -228,231 -85,15 -170,29 -255,44 -54,94 -107,188 -160,282 -79,36 -157,73 -236,109 -27,104 -54,209 -81,314 -67,55 -133,110 -200,166 1,108 2,216 3,324 -50,71 -100,141 -150,212 29,104 58,208 87,313 -30,81 -60,162 -90,243 55,93 109,186 164,279 -8,86 -16,172 -24,259 78,76 155,151 232,227 15,86 29,171 44,256 94,53 188,107 282,160 36,79 72,157 109,236 104,27 209,54 314,81 55,67 110,133 166,200 108,-1 216,-2 324,-3 71,50 141,100 212,149 104,-28 208,-57 313,-86 81,30 162,60 243,90 93,-55 186,-110 279,-164 86,7 172,15 258,23 76,-77 152,-154 228,-231 85,-15 171,-30 256,-44 53,-94 107,-188 160,-282 78,-37 157,-73 235,-109 28,-105 55,-209 82,-314 66,-55 133,-111 199,-166 0,-108 -1,-216 -2,-325 50,-70 100,-141 149,-211 -28,-104 -57,-209 -86,-313 30,-81 60,-162 90,-243 -55,-93 -110,-186 -165,-280 8,-86 16,-172 24,-258 -7,-6 -14,-13 -20,-20z"/>
      <path class="fil2 str0" d="M3144 -1537c-73,-72 -147,-145 -220,-217 -16,-89 -31,-178 -46,-267 -98,-56 -197,-111 -295,-167 -38,-82 -76,-164 -114,-246 -109,-29 -218,-57 -328,-85 -57,-70 -115,-139 -173,-209 -113,1 -226,2 -339,3 -74,-52 -147,-104 -221,-156 -109,30 -218,60 -327,90 -85,-31 -169,-63 -254,-94 -97,57 -195,115 -292,172 -90,-8 -180,-17 -270,-25 -79,81 -159,161 -238,242 -89,15 -178,30 -267,46 -56,98 -112,196 -167,295 -82,38 -164,75 -246,113 -29,110 -57,219 -86,328 -69,58 -139,116 -208,174 1,113 2,226 3,339 -52,73 -104,147 -157,221 31,109 61,218 91,327 -32,84 -63,169 -94,254 57,97 114,194 172,292 -9,90 -17,180 -25,270 81,79 161,158 242,238 15,89 30,178 46,267 98,55 196,111 295,167 37,82 75,164 113,246 109,28 219,57 328,85 58,70 116,139 173,209 114,-1 227,-2 340,-3 73,52 147,104 221,156 109,-30 218,-60 327,-90 84,31 169,62 254,94 97,-58 194,-115 292,-172 90,8 180,16 269,25 80,-81 159,-162 239,-242 89,-15 178,-31 267,-46 55,-98 111,-197 167,-295 82,-38 164,-76 246,-113 28,-110 57,-219 85,-329 70,-57 139,-115 208,-173 0,-113 -1,-226 -2,-339 52,-74 104,-147 156,-221 -30,-109 -60,-218 -90,-327 31,-85 62,-169 93,-254 -57,-97 -114,-195 -171,-292 8,-90 16,-180 25,-270 -8,-7 -15,-14 -22,-21z"/>
      <path class="fil2 str0" d="M3232 -1574c-77,-75 -154,-151 -230,-226 -16,-93 -32,-186 -48,-279 -103,-58 -205,-116 -308,-174 -39,-86 -78,-171 -118,-257 -114,-29 -228,-59 -342,-89 -60,-72 -121,-144 -181,-217 -118,1 -236,2 -354,3 -76,-54 -153,-109 -230,-163 -114,31 -227,63 -341,94 -88,-32 -177,-65 -265,-98 -102,60 -203,120 -305,179 -93,-8 -187,-17 -281,-25 -83,84 -166,168 -248,252 -93,16 -186,32 -279,48 -58,102 -116,205 -174,307 -86,40 -171,79 -257,119 -29,114 -59,228 -89,342 -72,60 -145,120 -217,180 1,118 2,236 3,354 -55,77 -109,154 -163,231 31,113 63,227 94,341 -33,88 -65,176 -98,265 60,101 120,203 179,304 -8,94 -17,188 -26,282 84,82 169,165 253,248 16,93 32,186 47,278 103,59 206,117 308,175 40,85 79,171 118,256 114,30 229,60 343,89 60,73 120,145 180,218 118,-1 236,-2 354,-3 77,54 154,109 231,163 113,-32 227,-63 341,-94 88,32 176,65 264,97 102,-59 204,-119 305,-179 94,9 188,18 281,26 83,-84 166,-168 249,-252 93,-16 185,-32 278,-48 58,-102 117,-205 175,-307 85,-40 171,-79 256,-119 30,-114 60,-228 89,-342 73,-60 145,-120 218,-181 -1,-118 -2,-236 -3,-354 54,-76 108,-153 163,-230 -32,-114 -63,-227 -94,-341 32,-88 65,-177 97,-265 -59,-101 -119,-203 -179,-304 9,-94 17,-188 26,-282 -7,-7 -15,-14 -22,-22z"/>
      <path class="fil2 str0" d="M3319 -1611c-79,-78 -159,-157 -239,-235 -17,-97 -33,-194 -50,-290 -107,-61 -213,-121 -320,-182 -41,-89 -82,-178 -123,-267 -119,-31 -238,-62 -357,-93 -62,-75 -125,-151 -188,-226 -123,1 -245,2 -368,3 -80,-57 -160,-113 -240,-170 -118,33 -237,66 -355,98 -92,-34 -184,-68 -276,-101 -106,62 -211,124 -317,186 -98,-9 -195,-18 -293,-27 -86,88 -172,175 -259,263 -96,16 -193,33 -289,49 -61,107 -122,214 -182,321 -89,41 -178,82 -267,123 -31,119 -62,237 -93,356 -75,63 -151,126 -226,188 1,123 2,246 3,369 -57,80 -113,160 -170,240 33,118 66,236 98,355 -34,92 -68,184 -102,275 63,106 125,212 187,318 -9,97 -18,195 -27,293 87,86 175,172 263,258 16,97 33,193 49,290 107,61 214,121 321,182 41,89 82,178 123,267 119,31 237,62 356,92 63,76 126,151 188,227 123,-1 246,-2 369,-3 80,56 160,113 240,169 118,-32 236,-65 355,-98 91,34 183,68 275,102 106,-62 212,-124 318,-186 97,9 195,18 292,27 87,-88 173,-175 259,-263 97,-17 193,-33 290,-50 60,-106 121,-213 182,-320 89,-41 178,-82 267,-123 31,-119 61,-238 92,-356 76,-63 151,-126 227,-189 -1,-122 -2,-245 -3,-368 56,-80 113,-160 169,-240 -32,-118 -65,-237 -98,-355 34,-92 68,-184 102,-276 -62,-105 -124,-211 -186,-317 9,-98 18,-195 27,-293 -8,-7 -16,-15 -24,-23z"/>
      <path class="fil2 str0" d="M3407 -1648c-83,-81 -166,-163 -249,-245 -17,-100 -34,-201 -52,-301 -111,-63 -222,-126 -333,-189 -42,-92 -85,-185 -128,-278 -123,-32 -247,-64 -370,-96 -65,-78 -130,-157 -196,-235 -127,1 -255,2 -383,3 -83,-59 -166,-118 -249,-176 -123,34 -246,68 -369,102 -96,-36 -191,-71 -287,-106 -110,64 -220,129 -330,194 -101,-10 -203,-19 -304,-28 -90,91 -179,182 -269,273 -100,17 -201,34 -301,51 -63,111 -126,222 -189,333 -93,43 -185,86 -278,128 -32,124 -64,247 -96,371 -78,65 -157,130 -235,195 1,128 2,256 3,383 -59,83 -118,167 -176,250 33,123 67,246 101,369 -35,95 -70,191 -105,286 64,110 129,220 193,330 -9,102 -18,203 -28,305 91,89 182,179 273,268 18,101 35,201 52,302 111,63 222,126 333,189 43,92 86,185 128,277 124,32 247,64 371,97 65,78 130,156 195,235 128,-1 255,-2 383,-3 83,59 166,117 250,176 123,-34 246,-68 369,-102 95,35 191,71 286,106 110,-65 220,-129 330,-194 102,10 203,19 305,28 89,-91 179,-182 268,-273 101,-17 201,-34 302,-52 63,-111 126,-222 188,-332 93,-43 186,-86 278,-129 32,-123 64,-246 96,-370 79,-65 157,-130 236,-196 -1,-127 -2,-255 -3,-382 58,-84 117,-167 176,-250 -34,-123 -68,-246 -102,-369 35,-95 71,-191 106,-287 -65,-110 -129,-219 -194,-329 9,-102 19,-203 28,-305 -8,-8 -16,-16 -24,-24z"/>
      <path class="fil2 str0" d="M3494 -1685c-86,-84 -172,-169 -258,-254 -18,-104 -36,-208 -54,-313 -115,-65 -230,-130 -345,-196 -44,-96 -89,-192 -133,-288 -128,-33 -256,-67 -385,-100 -67,-81 -135,-163 -203,-244 -132,1 -265,2 -397,3 -86,-61 -173,-122 -259,-183 -128,35 -255,71 -383,106 -99,-37 -198,-73 -298,-110 -114,67 -228,134 -342,201 -105,-10 -211,-19 -316,-29 -93,95 -186,189 -279,283 -104,18 -209,36 -313,54 -65,115 -131,231 -196,346 -96,44 -192,88 -288,133 -33,128 -67,256 -100,384 -81,68 -163,136 -244,203 1,133 2,265 3,398 -61,86 -122,172 -183,259 35,127 70,255 106,383 -37,99 -74,198 -110,297 67,114 134,228 201,343 -10,105 -19,210 -29,316 94,93 189,186 283,279 18,104 36,208 54,312 115,66 230,131 346,196 44,97 88,193 133,289 128,33 256,66 384,100 68,81 135,162 203,244 133,-1 265,-2 398,-3 86,61 172,122 258,183 128,-36 256,-71 384,-106 99,37 198,73 297,110 114,-67 228,-134 342,-201 106,9 211,19 317,29 93,-95 186,-189 279,-284 104,-18 208,-36 312,-53 66,-116 131,-231 196,-346 96,-44 193,-89 289,-133 33,-128 66,-256 100,-384 81,-68 162,-136 244,-204 -1,-132 -2,-264 -3,-397 61,-86 122,-173 183,-259 -36,-128 -71,-255 -106,-383 36,-99 73,-198 110,-298 -67,-114 -134,-228 -201,-342 9,-105 19,-211 29,-316 -9,-8 -17,-16 -26,-25z"/>
      <path class="fil2 str0" d="M3582 -1722c-89,-87 -178,-175 -268,-263 -18,-108 -37,-216 -55,-324 -120,-68 -239,-136 -359,-204 -46,-99 -92,-199 -138,-299 -132,-34 -265,-69 -398,-103 -70,-84 -140,-169 -211,-253 -137,1 -274,2 -412,3 -89,-63 -178,-126 -268,-190 -132,37 -265,73 -397,110 -103,-38 -206,-76 -309,-114 -118,70 -236,139 -354,209 -110,-10 -219,-20 -328,-30 -96,97 -193,195 -289,293 -108,19 -216,37 -325,56 -67,119 -135,239 -203,358 -99,46 -199,92 -299,138 -34,133 -69,266 -103,399 -85,70 -169,140 -253,210 1,138 2,275 3,412 -63,90 -127,179 -190,269 37,132 73,264 110,397 -38,103 -76,205 -114,308 70,118 139,237 209,355 -11,109 -21,218 -31,328 98,96 196,193 294,289 19,108 37,216 56,324 119,68 239,136 358,203 46,100 92,200 138,299 133,35 266,69 399,104 70,84 140,169 210,253 137,-1 275,-2 412,-3 90,63 179,126 268,189 133,-36 265,-73 398,-109 102,38 205,76 308,114 118,-70 237,-139 355,-209 109,10 218,20 328,30 96,-98 192,-196 289,-294 108,-18 216,-37 324,-55 68,-120 136,-239 203,-359 100,-45 199,-91 299,-137 35,-133 69,-266 104,-399 84,-70 168,-140 253,-210 -1,-138 -2,-275 -3,-412 63,-90 126,-179 189,-269 -36,-132 -73,-265 -109,-397 38,-103 76,-206 113,-308 -69,-119 -139,-237 -208,-355 10,-109 20,-219 30,-328 -9,-8 -17,-17 -26,-26z"/>
      <path class="fil2 str0" d="M3670 -1758c-93,-91 -185,-182 -278,-273 -19,-112 -38,-224 -57,-336 -124,-70 -248,-140 -371,-210 -48,-104 -95,-207 -143,-310 -137,-36 -275,-71 -412,-107 -73,-88 -146,-175 -218,-262 -143,1 -285,2 -427,3 -93,-65 -185,-131 -278,-196 -137,38 -274,75 -411,113 -107,-39 -213,-78 -319,-118 -123,72 -245,144 -368,216 -113,-10 -226,-21 -339,-31 -100,101 -200,203 -300,304 -111,19 -223,39 -335,58 -70,124 -141,247 -211,371 -103,47 -206,95 -309,143 -36,137 -72,275 -107,412 -88,73 -175,145 -262,218 1,142 2,284 3,427 -66,92 -131,185 -196,278 37,137 75,274 113,411 -39,106 -78,213 -118,319 72,123 144,245 216,367 -10,114 -21,227 -31,340 101,100 203,199 304,299 19,112 39,224 58,336 123,70 247,140 371,210 47,103 95,207 142,310 138,35 275,71 413,107 73,87 145,175 218,262 142,-1 284,-2 427,-3 92,65 185,131 277,196 137,-38 274,-76 412,-113 106,39 212,78 319,117 122,-72 245,-144 367,-215 113,10 227,20 340,31 99,-102 199,-203 299,-304 112,-20 224,-39 336,-58 70,-124 140,-247 210,-371 103,-48 206,-95 310,-143 35,-137 71,-275 107,-412 87,-73 174,-146 262,-218 -1,-143 -2,-285 -3,-427 65,-93 130,-185 196,-278 -38,-137 -76,-274 -114,-411 40,-106 79,-213 118,-319 -72,-123 -144,-245 -216,-368 11,-113 21,-226 32,-339 -9,-9 -18,-18 -27,-26z"/>
      <path class="fil2 str0" d="M3757 -1795c-95,-94 -191,-189 -286,-283 -20,-115 -40,-231 -60,-347 -128,-72 -256,-145 -384,-217 -49,-107 -98,-214 -147,-320 -143,-37 -285,-74 -427,-111 -75,-91 -150,-181 -225,-271 -147,1 -294,2 -442,3 -95,-68 -191,-135 -287,-203 -142,39 -283,78 -425,117 -110,-40 -220,-81 -330,-121 -127,74 -254,148 -380,223 -117,-11 -234,-22 -351,-32 -103,104 -207,209 -310,314 -116,20 -231,40 -347,60 -73,128 -145,255 -218,383 -106,50 -213,99 -320,148 -36,142 -73,284 -110,427 -91,75 -181,150 -271,225 1,147 2,294 3,441 -68,96 -135,192 -203,288 39,141 78,283 117,425 -40,110 -81,220 -122,330 75,127 149,253 224,380 -11,117 -22,234 -33,351 105,103 210,206 315,309 20,116 40,232 60,348 127,72 255,145 383,217 49,107 99,213 148,320 142,37 284,74 426,111 76,90 151,181 226,271 147,-1 294,-2 441,-3 96,67 192,135 287,203 142,-39 284,-79 426,-118 110,41 220,82 330,122 127,-74 253,-149 380,-223 117,11 234,21 351,32 103,-105 206,-210 309,-314 116,-20 232,-40 347,-60 73,-128 145,-256 218,-384 107,-49 213,-98 320,-147 37,-142 74,-285 111,-427 90,-75 181,-150 271,-225 -1,-147 -2,-294 -3,-441 67,-96 135,-192 203,-288 -40,-141 -79,-283 -118,-425 41,-110 81,-220 122,-330 -74,-127 -149,-254 -223,-380 11,-117 21,-234 32,-351 -9,-9 -19,-18 -28,-27z"/>
      <path class="fil2 str0" d="M3845 -1832c-99,-98 -198,-195 -296,-292 -21,-119 -41,-239 -62,-359 -132,-74 -264,-149 -396,-224 -51,-110 -102,-221 -153,-331 -147,-38 -294,-76 -440,-114 -78,-94 -156,-187 -233,-280 -152,1 -304,2 -456,3 -99,-70 -198,-140 -297,-210 -146,41 -293,81 -439,122 -114,-42 -228,-84 -341,-126 -131,77 -262,154 -393,230 -121,-11 -241,-22 -362,-33 -107,108 -213,217 -320,325 -120,21 -239,41 -359,62 -75,132 -150,264 -224,396 -111,51 -221,101 -331,152 -38,147 -76,294 -115,441 -93,78 -186,155 -279,233 1,152 2,304 3,456 -70,99 -140,198 -210,296 41,147 81,293 122,440 -42,113 -84,227 -126,341 77,131 153,262 230,392 -11,121 -22,242 -33,363 108,106 217,213 325,320 20,119 41,239 61,358 133,75 265,150 397,225 51,110 101,220 152,331 147,38 294,76 441,114 78,93 155,187 233,280 152,-1 304,-2 455,-3 99,70 198,139 297,209 147,-40 293,-80 440,-121 113,42 227,84 341,126 131,-77 261,-154 392,-231 121,11 242,23 363,34 106,-109 213,-217 320,-325 119,-21 239,-41 358,-62 75,-132 150,-264 225,-396 110,-51 220,-102 330,-153 39,-146 77,-293 115,-440 93,-78 187,-156 280,-233 -1,-152 -2,-304 -4,-456 70,-99 140,-198 210,-297 -40,-146 -81,-293 -121,-439 42,-114 84,-227 126,-341 -77,-131 -154,-262 -231,-393 11,-120 22,-241 34,-362 -10,-9 -20,-19 -29,-28z"/>
      <path class="fil2 str0" d="M3932 -1869c-102,-101 -203,-201 -305,-301 -21,-124 -43,-247 -64,-370 -136,-78 -272,-155 -409,-232 -52,-114 -105,-228 -157,-341 -152,-40 -303,-79 -455,-118 -80,-97 -160,-193 -240,-289 -157,1 -314,2 -470,3 -103,-72 -205,-144 -307,-216 -151,41 -302,83 -453,125 -117,-43 -235,-87 -352,-130 -135,79 -270,159 -405,238 -125,-12 -250,-23 -374,-34 -110,111 -220,223 -330,335 -124,21 -247,42 -370,63 -78,137 -155,273 -232,409 -114,53 -228,105 -341,158 -40,151 -79,303 -119,455 -96,80 -192,160 -289,240 2,157 3,313 4,470 -72,102 -144,204 -216,306 41,152 83,303 125,454 -44,117 -87,234 -130,352 79,135 158,270 238,405 -12,124 -23,249 -35,374 112,110 224,220 336,330 21,123 42,247 63,370 137,77 273,155 409,232 53,114 105,227 158,341 151,39 303,79 454,118 81,97 161,193 241,289 156,-1 313,-2 470,-3 102,72 204,144 306,216 151,-42 302,-83 454,-125 117,43 234,86 352,130 135,-80 270,-159 405,-238 124,11 249,23 374,34 110,-112 220,-223 330,-335 123,-21 247,-43 370,-64 77,-136 154,-272 232,-409 114,-52 227,-104 341,-157 39,-152 79,-303 118,-455 96,-80 193,-160 289,-240 -1,-157 -2,-314 -4,-470 73,-102 145,-205 217,-307 -42,-151 -84,-302 -125,-453 43,-117 86,-235 130,-352 -80,-135 -159,-270 -238,-405 11,-125 23,-249 34,-374 -10,-10 -20,-20 -30,-29z"/>
      <path class="fil2 str0" d="M4020 -1906c-105,-104 -210,-207 -315,-310 -22,-128 -44,-255 -66,-382 -140,-80 -281,-159 -421,-239 -54,-117 -108,-235 -162,-352 -157,-40 -313,-81 -469,-122 -83,-99 -166,-198 -248,-297 -162,1 -323,2 -485,3 -105,-74 -211,-149 -316,-223 -156,43 -311,86 -467,129 -121,-45 -242,-89 -363,-134 -139,82 -278,164 -418,246 -128,-12 -257,-24 -385,-36 -114,115 -227,231 -341,346 -127,22 -254,43 -381,65 -80,141 -160,281 -239,422 -117,54 -235,108 -352,162 -41,156 -81,313 -122,469 -99,83 -198,165 -298,248 2,161 3,323 4,485 -74,105 -149,210 -223,315 43,156 86,312 129,468 -45,121 -89,242 -134,363 82,139 164,278 245,417 -11,129 -23,257 -35,386 115,113 230,227 346,340 21,127 43,255 65,382 141,79 281,159 422,239 54,117 108,234 162,352 156,40 313,81 469,121 82,100 165,199 248,298 161,-1 323,-2 484,-3 106,74 211,148 316,223 156,-43 312,-86 468,-129 121,44 242,89 363,134 139,-82 278,-164 417,-246 129,12 257,24 386,36 113,-116 227,-231 340,-346 127,-22 254,-44 382,-66 79,-140 159,-281 239,-421 117,-54 234,-108 351,-162 41,-157 82,-313 122,-469 100,-83 199,-165 298,-248 -1,-162 -2,-323 -4,-485 75,-105 149,-210 224,-316 -43,-155 -86,-311 -129,-467 44,-121 89,-242 133,-363 -81,-139 -163,-278 -245,-417 12,-129 24,-258 36,-386 -11,-10 -21,-20 -31,-30z"/>
      <path class="fil2 str0" d="M4108 -1943c-109,-107 -217,-213 -325,-320 -23,-131 -45,-262 -68,-393 -144,-82 -289,-164 -434,-246 -55,-121 -111,-241 -167,-362 -161,-42 -322,-84 -483,-126 -85,-102 -170,-204 -255,-307 -167,2 -333,3 -499,4 -109,-76 -217,-153 -326,-230 -160,45 -321,89 -481,133 -125,-46 -249,-92 -374,-138 -143,85 -287,169 -430,253 -132,-12 -265,-24 -397,-36 -117,118 -234,237 -351,356 -131,22 -262,45 -393,67 -82,145 -164,290 -246,434 -121,56 -242,112 -362,167 -42,161 -84,322 -126,484 -102,85 -204,170 -307,255 2,166 3,333 4,499 -76,109 -153,217 -230,325 45,161 89,321 133,482 -46,124 -92,249 -138,374 84,143 169,286 253,430 -12,132 -24,264 -37,397 119,117 238,234 357,350 22,131 45,262 67,393 145,83 290,165 434,247 56,120 112,241 167,362 161,42 322,84 483,125 85,103 170,205 256,307 166,-1 332,-2 499,-4 108,77 217,154 325,230 161,-44 321,-88 482,-133 124,46 249,92 373,138 144,-84 287,-168 431,-252 132,12 264,24 397,36 117,-119 233,-237 350,-356 131,-22 262,-45 393,-67 82,-145 164,-290 247,-435 120,-55 241,-111 362,-167 42,-161 84,-322 125,-483 103,-85 205,-170 307,-255 -1,-166 -2,-333 -4,-499 77,-109 154,-217 230,-326 -44,-160 -88,-320 -133,-481 46,-125 92,-249 138,-374 -84,-143 -168,-287 -252,-430 12,-132 24,-265 36,-397 -10,-10 -21,-21 -31,-31z"/>
      <path class="fil2 str0" d="M4195 -1980c-111,-110 -223,-219 -334,-329 -23,-135 -46,-270 -69,-404 -149,-85 -298,-169 -447,-254 -58,-124 -115,-248 -172,-373 -166,-43 -332,-86 -497,-129 -88,-105 -175,-210 -263,-316 -171,2 -343,3 -514,4 -112,-79 -223,-157 -335,-236 -165,45 -330,91 -495,137 -128,-48 -257,-95 -385,-142 -147,86 -295,173 -443,260 -136,-13 -272,-25 -408,-38 -121,122 -241,244 -361,367 -135,23 -270,46 -405,69 -84,149 -168,298 -253,447 -124,57 -249,115 -373,172 -43,166 -86,331 -129,497 -105,88 -210,175 -316,263 2,171 3,342 4,514 -79,111 -157,223 -236,334 45,165 91,331 136,496 -47,128 -94,256 -142,385 87,147 174,295 261,442 -13,136 -26,273 -38,409 122,120 244,240 366,361 24,135 47,269 70,404 149,85 298,169 447,254 57,124 114,248 172,372 165,43 331,87 497,130 87,105 175,210 262,315 172,-1 343,-2 514,-4 112,79 224,158 335,237 165,-46 330,-91 496,-137 128,48 256,95 384,142 148,-87 295,-173 443,-260 136,13 272,25 409,38 120,-123 240,-245 361,-367 134,-23 269,-46 404,-69 85,-149 169,-298 253,-447 125,-57 249,-115 373,-172 43,-166 86,-332 129,-497 106,-88 211,-175 316,-263 -1,-171 -2,-342 -4,-514 79,-111 158,-223 237,-335 -46,-165 -91,-330 -137,-495 47,-128 95,-256 142,-385 -87,-147 -173,-295 -260,-442 12,-137 25,-273 38,-409 -11,-11 -22,-21 -33,-32z"/>
     </g>
     <polygon class="fil1 str0" points="4283,-2017 3939,-2355 3868,-2771 3408,-3032 3231,-3415 2720,-3548 2450,-3873 1922,-3869 1577,-4112 1068,-3971 672,-4117 217,-3850 -203,-3888 -574,-3512 -990,-3440 -1251,-2981 -1634,-2804 -1767,-2293 -2092,-2022 -2088,-1494 -2331,-1150 -2190,-640 -2336,-245 -2069,211 -2108,631 -1731,1002 -1659,1418 -1200,1678 -1023,2062 -512,2195 -242,2519 287,2515 631,2759 1141,2618 1536,2764 1991,2497 2412,2535 2783,2158 3199,2087 3459,1627 3843,1450 3976,939 4300,669 4296,141 4539,-204 4399,-713 4545,-1109 4277,-1564 4316,-1984 "/>
     <polygon class="fil1 str0" points="-732,3195 -783,3146 -793,3085 -860,3047 -886,2991 -960,2972 -1000,2925 -1077,2925 -1127,2890 -1201,2910 -1259,2889 -1325,2928 -1387,2922 -1441,2977 -1502,2988 -1540,3055 -1595,3080 -1615,3155 -1662,3194 -1662,3272 -1697,3322 -1677,3396 -1698,3454 -1659,3520 -1665,3581 -1610,3636 -1599,3696 -1532,3734 -1506,3790 -1432,3810 -1392,3857 -1315,3856 -1265,3892 -1191,3871 -1133,3893 -1067,3854 -1005,3859 -951,3804 -891,3794 -853,3727 -797,3701 -777,3626 -730,3587 -730,3510 -695,3460 -716,3385 -694,3328 -733,3261 -728,3200 "/>
     <g>
      <path class="fil2 str0" d="M-645 3158c-20,-19 -40,-39 -59,-58 -5,-24 -9,-48 -13,-72 -26,-16 -53,-31 -80,-46 -10,-22 -20,-44 -30,-66 -30,-8 -59,-16 -89,-23 -15,-19 -31,-38 -47,-56 -30,0 -61,0 -91,0 -20,-14 -40,-28 -60,-42 -29,8 -59,16 -88,24 -23,-8 -46,-16 -69,-25 -26,16 -53,31 -79,46 -24,-2 -48,-4 -73,-6 -21,22 -43,43 -64,65 -24,4 -48,8 -72,13 -15,26 -30,53 -45,79 -23,10 -45,21 -67,31 -8,29 -15,59 -23,89 -19,15 -37,31 -56,46 0,31 0,61 0,92 -14,20 -28,40 -42,60 8,29 17,59 25,88 -9,23 -17,46 -26,69 16,26 31,52 47,79 -3,24 -5,48 -7,72 22,22 44,43 65,65 4,24 9,48 13,72 26,15 53,30 79,45 11,22 21,44 31,67 30,7 59,15 89,23 15,18 31,37 47,56 30,0 61,-1 91,-1 20,14 40,28 60,42 29,-8 59,-16 88,-24 23,8 46,17 69,25 26,-15 52,-31 79,-46 24,2 48,4 73,7 21,-22 43,-44 64,-66 24,-4 48,-8 72,-12 15,-27 30,-53 45,-80 23,-10 45,-20 67,-30 8,-30 15,-60 23,-89 19,-16 37,-31 56,-47 0,-30 0,-61 -1,-92 15,-19 29,-39 43,-59 -8,-30 -17,-59 -25,-89 9,-22 17,-45 26,-68 -16,-27 -31,-53 -47,-79 2,-24 5,-49 7,-73 -2,-2 -4,-4 -6,-6z"/>
      <path class="fil2 str0" d="M-557 3121c-23,-22 -46,-45 -69,-68 -5,-27 -10,-55 -15,-83 -30,-18 -61,-35 -92,-53 -12,-25 -24,-51 -36,-77 -34,-9 -68,-17 -102,-26 -18,-22 -36,-44 -55,-66 -35,1 -70,1 -106,1 -23,-16 -46,-32 -69,-49 -34,10 -68,19 -102,29 -27,-10 -53,-20 -80,-30 -30,18 -61,36 -91,54 -29,-3 -57,-5 -85,-8 -25,26 -50,51 -74,76 -28,5 -56,10 -84,14 -17,31 -35,62 -52,93 -26,12 -52,23 -77,35 -9,34 -18,69 -27,103 -22,18 -44,36 -65,54 0,36 0,71 0,106 -16,24 -32,47 -48,70 9,34 18,68 28,102 -10,27 -20,53 -29,80 17,30 35,61 53,91 -2,28 -5,56 -7,84 25,25 50,50 75,75 5,28 10,56 15,84 30,17 61,35 92,52 12,26 24,51 35,77 35,9 69,18 103,27 18,22 36,43 54,65 36,0 71,-1 107,-1 23,16 46,33 69,49 34,-9 68,-19 102,-28 27,10 53,19 80,29 30,-18 61,-36 91,-54 28,3 57,6 85,8 25,-25 49,-50 74,-76 28,-4 56,-9 84,-14 17,-31 35,-61 52,-92 26,-12 52,-24 77,-36 9,-34 18,-68 27,-103 22,-18 43,-36 65,-54 0,-35 0,-71 -1,-106 17,-23 33,-46 49,-69 -9,-34 -19,-68 -28,-103 10,-26 20,-53 29,-79 -18,-31 -35,-61 -53,-92 2,-28 5,-56 7,-84 -2,-2 -4,-4 -6,-7z"/>
      <path class="fil2 str0" d="M-470 3084c-26,-25 -52,-51 -78,-77 -6,-32 -11,-63 -17,-95 -35,-20 -70,-40 -105,-59 -13,-30 -26,-59 -40,-88 -39,-10 -78,-20 -117,-30 -20,-25 -41,-50 -61,-75 -41,1 -81,1 -121,1 -26,-18 -53,-37 -79,-55 -39,10 -78,21 -116,32 -30,-11 -61,-22 -91,-34 -34,21 -69,41 -104,62 -32,-3 -64,-6 -96,-9 -28,28 -56,57 -85,86 -31,5 -63,11 -95,16 -20,35 -39,70 -59,105 -29,14 -59,27 -88,41 -10,39 -20,78 -30,116 -25,21 -50,42 -74,62 0,40 0,81 1,121 -19,26 -38,52 -56,79 11,38 21,77 32,116 -11,30 -22,60 -33,90 20,35 40,70 61,104 -3,32 -6,64 -9,97 29,28 57,56 86,84 6,32 11,64 16,95 35,20 70,40 105,60 14,29 27,58 41,88 39,10 78,20 117,30 20,25 41,49 61,74 41,0 81,-1 121,-1 26,19 53,37 79,56 39,-11 77,-22 116,-32 30,11 61,22 91,33 34,-20 69,-41 104,-61 32,3 64,6 96,9 28,-29 56,-58 85,-86 31,-6 63,-11 95,-17 19,-35 39,-70 59,-105 29,-13 59,-27 88,-40 10,-39 20,-78 30,-117 25,-21 50,-41 74,-62 0,-40 0,-80 -1,-120 19,-27 37,-53 56,-79 -11,-39 -21,-78 -32,-117 11,-30 22,-60 33,-90 -20,-35 -41,-69 -61,-104 3,-32 6,-64 9,-96 -3,-3 -5,-5 -8,-8z"/>
      <path class="fil2 str0" d="M-382 3048c-29,-29 -59,-58 -88,-87 -6,-36 -12,-71 -18,-107 -40,-22 -79,-44 -118,-66 -15,-33 -30,-66 -45,-99 -44,-11 -88,-22 -131,-34 -23,-27 -46,-55 -69,-83 -46,1 -91,1 -136,1 -29,-20 -59,-41 -88,-62 -43,12 -87,24 -130,36 -34,-12 -68,-25 -102,-37 -39,23 -77,45 -116,68 -36,-3 -72,-6 -108,-10 -32,32 -63,65 -95,97 -35,6 -71,12 -106,18 -23,39 -45,79 -67,118 -33,15 -66,30 -98,45 -12,44 -23,87 -34,131 -28,23 -56,46 -83,69 0,45 0,90 1,135 -21,30 -42,59 -63,89 12,43 24,87 36,130 -12,34 -25,68 -37,101 23,39 46,78 68,117 -3,36 -6,72 -9,108 32,31 64,63 96,95 6,35 12,71 18,106 40,22 79,45 118,67 15,33 30,65 45,98 44,11 88,23 131,34 23,28 46,55 69,83 45,0 91,-1 136,-1 29,21 58,42 88,62 43,-12 87,-24 130,-36 34,13 68,25 102,38 38,-23 77,-46 116,-69 36,4 72,7 108,10 31,-32 63,-64 95,-96 35,-6 71,-13 106,-19 23,-39 45,-78 67,-117 33,-15 65,-30 98,-46 12,-43 23,-87 34,-130 28,-24 56,-47 83,-70 0,-45 0,-90 -1,-135 21,-29 42,-59 63,-88 -12,-44 -24,-87 -36,-131 12,-33 25,-67 37,-101 -23,-39 -46,-78 -69,-116 4,-36 7,-72 10,-108 -2,-3 -5,-6 -8,-8z"/>
      <path class="fil2 str0" d="M-295 3011c-32,-32 -65,-64 -97,-96 -7,-40 -14,-79 -20,-118 -44,-25 -87,-50 -131,-74 -16,-36 -33,-73 -50,-109 -48,-13 -96,-25 -145,-38 -25,-30 -51,-61 -76,-92 -50,1 -100,1 -150,1 -33,-23 -65,-46 -98,-69 -48,14 -96,27 -144,40 -38,-13 -75,-27 -113,-41 -43,25 -86,50 -129,76 -39,-4 -79,-8 -119,-11 -35,35 -70,71 -105,107 -39,6 -79,13 -118,20 -25,43 -49,87 -74,130 -36,17 -72,34 -109,50 -12,49 -25,97 -37,145 -31,26 -62,51 -93,77 1,50 1,100 2,150 -23,32 -46,65 -69,98 13,48 26,96 40,144 -14,37 -28,75 -42,112 25,43 51,86 76,129 -4,40 -7,80 -11,120 36,35 71,70 107,105 7,39 13,78 20,118 44,24 87,49 131,74 16,36 33,72 50,108 48,13 96,26 145,38 25,31 51,61 76,92 50,0 100,-1 150,-1 33,23 65,46 98,69 48,-13 96,-27 144,-40 38,14 75,28 112,42 44,-26 87,-51 130,-76 39,3 79,7 119,11 35,-36 70,-72 105,-107 39,-7 79,-14 118,-21 25,-43 49,-86 74,-130 36,-17 72,-33 109,-50 12,-48 25,-97 37,-145 31,-25 62,-51 92,-77 0,-50 0,-99 -1,-149 23,-33 46,-66 69,-98 -13,-48 -26,-96 -40,-145 14,-37 28,-74 42,-112 -26,-43 -51,-86 -76,-129 4,-40 7,-79 11,-119 -3,-3 -6,-6 -10,-9z"/>
      <path class="fil2 str0" d="M-207 2974c-36,-35 -71,-71 -107,-106 -7,-43 -15,-86 -22,-129 -48,-27 -95,-54 -143,-81 -18,-40 -37,-80 -55,-119 -53,-14 -106,-28 -159,-42 -28,-33 -56,-67 -84,-101 -55,1 -110,1 -165,1 -35,-25 -71,-50 -107,-75 -53,14 -106,29 -158,44 -41,-16 -82,-31 -123,-46 -48,28 -95,56 -142,83 -44,-4 -87,-8 -131,-12 -38,39 -77,78 -115,118 -44,7 -87,14 -130,22 -27,47 -54,95 -81,143 -40,18 -79,36 -119,55 -14,53 -28,106 -42,159 -33,28 -67,56 -101,84 1,55 1,110 2,164 -26,36 -51,72 -76,108 15,52 29,105 44,158 -15,41 -31,82 -46,123 28,47 56,95 84,142 -4,43 -8,87 -12,131 39,38 78,77 117,115 7,43 15,86 22,129 48,28 95,55 143,82 18,39 37,79 55,119 53,14 106,27 159,41 28,34 56,68 84,101 55,0 110,-1 165,-1 35,25 71,50 107,76 53,-15 105,-29 158,-44 41,15 82,30 123,45 48,-27 95,-55 142,-83 44,4 87,8 131,12 38,-39 77,-78 115,-117 43,-8 87,-15 130,-22 27,-48 54,-96 81,-143 40,-19 79,-37 119,-55 14,-53 28,-106 41,-159 34,-28 68,-56 101,-84 0,-55 0,-110 -1,-165 25,-36 51,-71 76,-107 -15,-53 -29,-106 -44,-159 15,-41 30,-82 46,-123 -28,-47 -56,-94 -84,-141 4,-44 8,-88 12,-131 -3,-4 -7,-7 -10,-10z"/>
      <path class="fil2 str0" d="M-119 2937c-39,-38 -78,-77 -117,-115 -8,-47 -16,-94 -24,-141 -52,-29 -104,-59 -156,-88 -20,-43 -40,-87 -60,-130 -57,-15 -115,-30 -173,-45 -30,-37 -61,-73 -91,-110 -60,1 -120,1 -179,2 -39,-28 -78,-55 -117,-83 -57,16 -115,32 -172,48 -45,-17 -90,-33 -134,-50 -52,31 -103,61 -155,91 -47,-4 -94,-9 -142,-13 -42,42 -84,85 -126,127 -47,9 -94,17 -141,25 -29,52 -58,103 -88,155 -43,20 -86,40 -130,60 -15,58 -30,116 -45,173 -36,31 -73,61 -110,92 1,60 1,119 2,179 -28,39 -55,78 -83,116 16,58 32,116 48,173 -17,45 -33,89 -49,134 30,51 60,103 90,154 -4,48 -9,95 -13,143 43,42 85,83 128,125 8,47 16,94 24,141 52,30 104,59 156,88 20,44 39,87 59,130 58,15 116,30 174,45 30,37 61,74 91,110 60,0 119,-1 179,-1 39,27 78,55 117,82 57,-16 115,-31 172,-47 45,16 90,33 134,49 52,-30 103,-60 154,-90 48,4 95,8 143,13 42,-43 84,-85 126,-128 46,-8 93,-16 140,-24 30,-52 59,-104 89,-156 43,-20 86,-40 130,-60 15,-57 30,-115 45,-173 36,-30 73,-61 110,-91 -1,-60 -1,-120 -2,-179 28,-39 55,-78 83,-117 -16,-58 -32,-115 -48,-173 16,-44 33,-89 49,-134 -30,-51 -60,-102 -90,-154 4,-47 9,-95 13,-142 -4,-4 -8,-8 -11,-11z"/>
      <path class="fil2 str0" d="M-32 2900c-42,-42 -84,-83 -126,-124 -8,-51 -17,-102 -26,-152 -56,-32 -112,-64 -168,-96 -22,-47 -43,-94 -65,-140 -62,-17 -125,-33 -187,-49 -33,-40 -66,-79 -99,-119 -65,1 -129,1 -194,2 -42,-30 -84,-60 -126,-90 -62,18 -124,35 -186,52 -49,-18 -97,-36 -145,-53 -56,32 -111,65 -167,97 -51,-4 -103,-9 -154,-14 -45,46 -91,92 -136,138 -51,9 -101,18 -152,27 -32,56 -64,112 -96,168 -46,21 -93,43 -140,65 -16,62 -33,124 -49,187 -39,33 -79,66 -119,99 1,64 1,129 2,193 -30,42 -60,84 -89,126 17,63 34,125 51,187 -18,48 -35,97 -53,145 32,56 65,111 98,167 -5,51 -10,102 -14,154 46,45 92,90 138,136 8,50 17,101 26,152 56,32 112,64 168,95 22,47 43,94 65,141 62,16 125,32 187,48 33,40 66,80 99,119 65,0 129,-1 194,-1 42,30 84,59 126,89 62,-17 124,-34 186,-52 49,18 97,36 145,54 56,-33 111,-65 167,-98 51,5 103,9 154,14 45,-46 90,-92 136,-138 51,-9 101,-17 152,-26 32,-56 64,-112 96,-168 46,-22 93,-44 140,-65 16,-63 32,-125 49,-187 39,-33 79,-66 119,-99 -1,-65 -1,-129 -2,-194 30,-42 60,-84 89,-126 -17,-62 -34,-124 -51,-187 18,-48 35,-96 53,-145 -32,-55 -65,-111 -98,-166 5,-52 10,-103 14,-154 -4,-4 -8,-8 -12,-12z"/>
      <path class="fil2 str0" d="M56 2863c-45,-45 -90,-89 -136,-133 -9,-55 -18,-110 -28,-164 -60,-34 -120,-69 -181,-103 -23,-50 -46,-100 -69,-151 -67,-17 -135,-35 -202,-52 -35,-43 -71,-85 -106,-128 -69,1 -139,1 -208,2 -45,-32 -91,-64 -136,-96 -67,18 -133,37 -200,55 -52,-19 -104,-38 -156,-57 -60,35 -120,70 -179,105 -56,-5 -111,-10 -166,-15 -49,49 -97,99 -146,148 -55,10 -109,19 -164,28 -34,61 -68,121 -103,181 -50,24 -100,47 -151,70 -17,67 -34,134 -52,201 -42,36 -85,71 -128,107 1,69 1,138 2,208 -32,45 -64,90 -96,135 19,67 37,134 55,201 -19,52 -38,104 -57,156 35,60 70,119 105,179 -5,55 -10,110 -15,166 50,48 99,97 148,146 10,54 19,109 29,164 60,34 120,68 181,102 23,51 46,101 69,151 67,18 134,35 202,53 35,42 70,85 106,127 69,0 139,-1 208,-1 45,32 90,64 136,96 67,-19 133,-37 200,-56 52,19 104,39 156,58 60,-35 120,-70 179,-106 56,5 111,11 166,16 49,-50 97,-99 146,-149 55,-9 109,-19 164,-28 34,-60 68,-121 102,-181 51,-23 101,-46 151,-70 18,-67 35,-134 53,-201 42,-35 85,-71 128,-106 -1,-70 -1,-139 -2,-208 32,-46 64,-91 96,-136 -19,-67 -37,-134 -56,-201 20,-52 39,-103 58,-155 -35,-60 -70,-120 -105,-180 5,-55 10,-110 15,-165 -5,-5 -9,-9 -13,-13z"/>
      <path class="fil2 str0" d="M143 2826c-48,-48 -96,-95 -144,-143 -10,-58 -21,-116 -31,-175 -64,-36 -129,-73 -193,-110 -25,-54 -50,-107 -75,-161 -72,-19 -143,-38 -215,-56 -38,-46 -76,-91 -114,-137 -74,1 -148,1 -223,2 -48,-34 -96,-69 -145,-103 -71,20 -143,40 -214,59 -56,-20 -112,-41 -167,-61 -64,37 -128,75 -192,113 -59,-6 -118,-11 -177,-17 -52,53 -104,106 -156,159 -59,10 -117,20 -176,30 -36,65 -73,129 -109,194 -54,25 -108,50 -162,74 -19,72 -37,144 -56,216 -46,38 -91,76 -137,114 1,74 1,148 2,222 -34,49 -68,97 -103,145 20,72 40,143 60,215 -21,56 -41,111 -62,167 38,64 75,128 113,192 -6,59 -11,118 -16,177 52,52 105,104 158,156 10,58 20,117 30,175 65,37 130,74 194,110 25,54 50,108 75,162 71,18 143,37 215,56 38,45 76,91 114,136 74,0 148,-1 223,-1 48,34 96,68 145,102 71,-19 143,-39 214,-59 56,21 111,41 167,62 64,-38 128,-76 192,-113 59,5 118,11 177,16 52,-53 104,-106 156,-159 59,-10 117,-20 176,-30 36,-64 73,-129 109,-193 54,-25 108,-50 162,-75 19,-72 37,-144 56,-215 45,-38 91,-76 137,-114 -1,-74 -1,-149 -2,-223 34,-48 68,-97 103,-145 -20,-71 -40,-143 -60,-215 21,-55 41,-111 62,-166 -38,-64 -75,-128 -113,-192 5,-59 11,-118 16,-177 -4,-5 -9,-9 -14,-14z"/>
      <path class="fil2 str0" d="M231 2789c-52,-51 -103,-101 -154,-152 -11,-62 -22,-124 -32,-187 -69,-39 -138,-78 -207,-117 -26,-57 -53,-114 -79,-172 -77,-20 -153,-39 -230,-59 -40,-49 -80,-97 -121,-146 -79,1 -158,1 -237,2 -52,-37 -103,-73 -155,-109 -76,21 -152,42 -228,63 -60,-22 -119,-44 -178,-66 -68,40 -136,80 -204,120 -63,-6 -126,-11 -189,-17 -56,56 -111,113 -167,169 -62,11 -124,21 -186,32 -39,69 -78,138 -117,206 -58,27 -115,53 -172,80 -20,76 -40,153 -60,229 -49,41 -97,81 -146,122 1,79 1,158 2,237 -36,51 -73,103 -109,154 21,77 42,153 63,229 -22,59 -44,118 -66,178 40,68 80,136 120,204 -5,63 -11,126 -17,189 56,55 113,111 169,166 11,63 22,125 32,187 69,39 138,78 207,117 26,57 53,115 79,172 77,20 153,40 229,60 41,48 81,97 122,146 79,-1 158,-2 237,-2 52,36 103,73 155,109 76,-21 152,-42 228,-63 59,22 119,44 178,65 68,-40 136,-80 204,-120 63,6 126,12 189,18 55,-57 111,-113 167,-170 62,-10 124,-21 186,-32 39,-68 78,-137 117,-206 58,-26 115,-53 172,-79 20,-77 40,-153 60,-230 49,-40 97,-81 146,-121 -1,-79 -1,-158 -2,-237 36,-52 73,-103 109,-155 -21,-76 -42,-152 -63,-229 22,-59 44,-118 66,-177 -40,-68 -80,-136 -120,-205 5,-62 11,-125 17,-188 -5,-5 -10,-10 -15,-15z"/>
      <path class="fil2 str0" d="M318 2752c-54,-54 -109,-107 -163,-161 -12,-66 -23,-132 -34,-198 -73,-42 -146,-83 -219,-124 -28,-61 -56,-122 -84,-183 -82,-21 -163,-42 -244,-63 -43,-52 -86,-104 -129,-155 -84,0 -168,1 -252,2 -54,-39 -109,-77 -164,-116 -81,22 -161,45 -242,67 -63,-23 -126,-46 -189,-70 -72,43 -145,85 -217,128 -67,-6 -133,-13 -200,-19 -59,60 -118,120 -177,180 -66,11 -132,23 -198,34 -41,73 -83,146 -124,219 -61,28 -122,56 -183,84 -21,81 -42,163 -63,244 -52,43 -103,86 -155,128 1,84 1,168 2,252 -39,55 -77,110 -116,164 22,81 45,162 67,243 -23,63 -46,126 -69,189 42,72 84,144 127,216 -6,67 -12,134 -18,201 59,59 119,118 179,177 11,66 23,132 34,198 73,41 146,83 219,124 28,61 56,122 84,183 82,21 163,42 244,63 43,51 86,103 129,155 84,-1 168,-2 251,-2 55,38 110,77 165,116 80,-23 161,-45 242,-67 63,23 126,46 189,69 72,-42 144,-85 217,-127 66,6 133,12 200,18 59,-60 118,-120 177,-179 66,-12 132,-23 198,-35 41,-72 83,-145 124,-218 61,-29 122,-57 183,-85 21,-81 42,-162 63,-243 52,-43 103,-86 155,-129 -1,-84 -1,-168 -2,-252 39,-54 77,-109 116,-164 -23,-81 -45,-162 -67,-243 23,-62 46,-125 69,-188 -42,-72 -85,-145 -127,-217 6,-67 12,-134 18,-200 -5,-6 -10,-11 -16,-16z"/>
      <path class="fil2 str0" d="M406 2715c-58,-57 -115,-114 -173,-170 -12,-70 -24,-140 -36,-210 -77,-44 -155,-88 -232,-131 -29,-65 -59,-129 -89,-194 -86,-22 -172,-44 -258,-67 -45,-54 -90,-109 -136,-163 -88,0 -177,1 -266,2 -58,-41 -116,-82 -174,-123 -85,24 -171,47 -256,71 -67,-24 -133,-49 -200,-73 -76,44 -153,89 -229,134 -71,-6 -141,-13 -212,-19 -62,63 -125,126 -187,190 -70,12 -140,24 -210,36 -44,77 -87,154 -131,231 -65,30 -129,60 -193,90 -23,85 -45,171 -67,257 -55,46 -109,91 -164,136 1,89 1,178 2,267 -41,58 -82,115 -123,173 24,86 48,171 71,257 -24,67 -49,133 -73,200 45,76 90,152 135,229 -7,71 -13,141 -20,212 63,62 127,124 190,187 12,70 24,140 36,209 77,44 154,88 232,132 29,64 59,129 89,193 86,22 172,45 257,67 46,55 91,109 137,164 88,-1 177,-2 266,-2 58,41 116,81 174,122 85,-23 171,-47 256,-71 67,25 133,49 200,74 76,-45 153,-90 229,-135 71,7 141,13 212,20 62,-64 125,-127 187,-190 70,-12 140,-24 210,-36 43,-78 87,-155 131,-232 64,-30 129,-59 193,-89 23,-86 45,-172 67,-258 55,-45 109,-91 164,-136 -1,-89 -1,-177 -2,-266 41,-58 82,-116 122,-174 -23,-85 -47,-171 -70,-257 24,-66 49,-133 73,-199 -45,-77 -90,-153 -135,-229 7,-71 13,-142 20,-212 -6,-6 -11,-11 -17,-17z"/>
      <path class="fil2 str0" d="M494 2678c-61,-60 -122,-120 -183,-180 -13,-73 -25,-147 -38,-221 -81,-46 -163,-92 -244,-138 -32,-68 -63,-136 -94,-204 -91,-24 -181,-47 -272,-71 -48,-57 -96,-115 -144,-172 -93,0 -187,1 -281,2 -61,-43 -122,-86 -183,-129 -90,24 -180,49 -270,74 -70,-26 -141,-51 -211,-77 -80,47 -161,94 -242,142 -74,-7 -149,-14 -223,-21 -66,67 -132,134 -197,201 -74,12 -148,25 -221,38 -47,81 -93,163 -139,244 -68,31 -136,63 -204,94 -23,91 -47,181 -70,272 -58,48 -116,95 -173,143 1,94 1,188 2,281 -43,61 -86,122 -129,183 25,91 50,181 75,271 -26,70 -52,140 -78,210 47,81 95,162 142,242 -7,75 -14,149 -20,224 66,66 133,131 200,197 13,74 25,147 38,221 81,46 163,93 244,139 32,68 63,136 94,204 91,23 181,47 272,70 48,58 96,115 143,173 94,-1 188,-2 281,-2 61,43 122,86 183,129 91,-25 181,-50 271,-75 70,26 140,52 211,78 80,-48 161,-95 242,-142 74,6 149,13 223,20 66,-67 132,-133 197,-200 74,-13 148,-26 221,-38 47,-82 93,-163 139,-245 68,-31 136,-62 204,-93 23,-91 47,-182 70,-272 58,-48 115,-96 173,-144 -1,-93 -1,-187 -2,-281 43,-61 86,-122 129,-183 -25,-90 -50,-180 -75,-271 26,-70 52,-140 78,-210 -47,-81 -95,-161 -142,-242 7,-74 13,-149 20,-223 -6,-6 -12,-12 -17,-18z"/>
      <path class="fil2 str0" d="M581 2641c-64,-63 -128,-126 -192,-189 -13,-77 -27,-155 -40,-232 -86,-49 -171,-98 -257,-146 -33,-72 -66,-143 -99,-215 -95,-24 -190,-49 -286,-74 -50,-60 -100,-121 -151,-181 -98,0 -197,1 -295,2 -64,-45 -128,-91 -193,-136 -94,26 -189,52 -284,79 -74,-28 -148,-55 -222,-82 -84,50 -169,100 -254,149 -78,-7 -157,-14 -235,-21 -69,70 -138,140 -208,211 -77,13 -155,26 -232,40 -49,85 -97,171 -146,256 -71,33 -143,66 -214,99 -25,96 -50,191 -75,286 -60,51 -121,101 -181,151 1,99 1,197 2,296 -45,64 -91,128 -136,192 26,95 53,190 79,285 -27,74 -55,148 -82,221 50,85 100,170 150,255 -8,78 -15,156 -22,235 70,69 141,138 211,207 13,78 26,155 40,233 85,48 171,97 257,146 33,71 66,143 99,214 95,25 190,49 285,74 51,61 101,121 151,182 99,-1 197,-2 296,-2 64,45 128,90 192,136 95,-27 190,-53 285,-79 74,27 148,54 222,82 84,-50 169,-100 254,-150 78,7 157,14 235,22 69,-71 138,-141 208,-211 77,-13 155,-27 232,-40 49,-86 97,-171 146,-257 71,-33 143,-66 214,-99 25,-95 50,-190 74,-286 61,-50 121,-100 182,-151 -1,-98 -1,-197 -2,-295 45,-64 90,-129 136,-193 -26,-95 -53,-190 -79,-285 27,-73 55,-147 82,-221 -50,-85 -100,-170 -150,-254 7,-79 15,-157 22,-235 -6,-6 -13,-13 -19,-19z"/>
      <path class="fil2 str0" d="M669 2604c-67,-66 -135,-132 -202,-198 -14,-81 -28,-163 -42,-244 -90,-51 -179,-102 -269,-153 -35,-75 -69,-150 -104,-225 -100,-26 -200,-52 -300,-78 -53,-63 -106,-127 -158,-190 -104,0 -207,1 -311,2 -67,-48 -134,-95 -201,-143 -100,28 -200,55 -299,83 -78,-29 -155,-57 -233,-86 -89,52 -178,105 -267,157 -82,-8 -164,-15 -246,-23 -73,74 -145,148 -218,221 -81,14 -163,28 -244,42 -51,90 -102,180 -153,270 -75,35 -150,69 -225,104 -26,100 -52,200 -78,300 -63,52 -127,105 -190,158 1,103 1,207 2,310 -47,68 -95,135 -143,202 28,100 55,199 83,299 -29,77 -57,155 -86,232 53,89 105,178 157,267 -7,82 -15,165 -22,247 73,72 147,145 221,218 14,81 28,162 42,244 89,51 179,102 269,152 35,75 69,150 104,225 100,26 200,52 300,78 53,64 106,127 158,191 104,-1 207,-2 310,-3 68,48 135,96 202,143 100,-27 200,-55 299,-82 78,28 155,57 232,85 89,-52 178,-104 267,-157 83,8 165,16 247,23 73,-74 145,-147 218,-221 81,-14 162,-28 244,-42 51,-90 102,-180 153,-270 75,-34 150,-69 225,-103 26,-100 52,-200 78,-300 63,-53 127,-106 190,-159 -1,-103 -2,-206 -2,-310 47,-67 95,-134 142,-202 -27,-99 -55,-199 -82,-299 28,-77 57,-154 86,-232 -53,-89 -105,-178 -157,-267 7,-82 15,-164 22,-246 -6,-7 -13,-13 -19,-20z"/>
      <path class="fil2 str0" d="M756 2567c-70,-69 -140,-138 -211,-207 -14,-86 -29,-171 -44,-256 -94,-53 -188,-107 -282,-160 -36,-78 -72,-157 -108,-235 -105,-28 -210,-55 -314,-82 -56,-66 -111,-133 -166,-199 -109,0 -217,1 -325,2 -70,-50 -141,-100 -211,-149 -105,28 -209,57 -313,86 -81,-30 -162,-60 -243,-90 -94,55 -187,110 -280,165 -86,-8 -172,-16 -258,-24 -76,77 -152,154 -228,231 -85,15 -170,30 -256,44 -53,94 -106,188 -160,283 -78,36 -157,72 -235,108 -27,105 -55,209 -82,314 -66,55 -133,111 -199,166 1,108 1,216 2,325 -50,70 -99,141 -149,211 29,104 57,209 86,313 -30,81 -60,162 -89,243 54,93 109,187 164,280 -8,86 -16,172 -24,258 77,76 154,152 232,228 14,85 29,170 43,255 95,54 189,107 283,160 36,79 72,157 108,236 105,27 210,54 314,81 56,67 111,133 166,200 108,-1 217,-2 325,-3 70,50 141,100 211,150 105,-29 209,-58 313,-87 81,30 162,60 243,90 94,-55 187,-109 280,-164 86,8 172,16 258,24 76,-78 152,-155 228,-232 85,-15 170,-29 256,-44 53,-94 106,-188 160,-282 78,-36 157,-72 235,-109 27,-104 54,-209 82,-314 66,-55 133,-110 199,-166 -1,-108 -2,-216 -2,-324 49,-71 99,-141 149,-212 -29,-104 -58,-208 -86,-313 30,-81 59,-162 89,-243 -54,-93 -109,-186 -164,-279 8,-86 16,-172 24,-258 -7,-7 -14,-14 -21,-21z"/>
      <path class="fil2 str0" d="M844 2530c-74,-72 -147,-144 -221,-217 -15,-89 -30,-178 -45,-267 -99,-55 -197,-111 -295,-167 -38,-82 -76,-164 -114,-246 -109,-28 -219,-57 -328,-85 -58,-70 -115,-139 -173,-209 -113,1 -226,2 -339,3 -74,-52 -148,-104 -221,-156 -109,30 -218,60 -327,90 -85,-31 -170,-62 -254,-93 -98,57 -195,114 -292,171 -90,-8 -180,-16 -270,-25 -80,81 -159,162 -238,242 -89,16 -178,31 -267,46 -56,98 -112,197 -168,295 -82,38 -164,76 -246,114 -28,109 -56,218 -85,328 -69,57 -139,115 -208,173 1,113 1,226 2,339 -52,74 -104,147 -156,221 30,109 60,218 90,327 -31,85 -62,169 -93,254 57,97 114,195 171,292 -8,90 -16,180 -24,270 80,79 161,159 241,238 16,89 31,178 46,267 99,56 197,112 295,167 38,82 76,164 114,246 109,29 218,57 328,86 58,69 115,138 173,208 113,-1 226,-2 339,-3 74,52 148,104 221,156 109,-30 218,-60 327,-90 85,31 170,63 254,94 98,-57 195,-114 292,-172 90,9 180,17 270,25 80,-81 159,-161 238,-242 89,-15 178,-30 267,-46 56,-98 112,-196 167,-295 83,-37 165,-75 247,-113 28,-109 56,-219 85,-328 69,-58 139,-116 208,-173 -1,-114 -2,-227 -2,-340 52,-73 104,-147 156,-221 -30,-109 -60,-218 -91,-327 32,-84 63,-169 94,-254 -57,-97 -114,-194 -171,-292 8,-90 16,-180 24,-269 -7,-7 -14,-14 -21,-22z"/>
      <path class="fil2 str0" d="M931 2494c-76,-76 -153,-151 -229,-227 -16,-93 -32,-185 -48,-278 -103,-58 -205,-117 -308,-175 -39,-85 -79,-171 -118,-256 -114,-30 -228,-60 -342,-89 -61,-73 -121,-145 -181,-218 -118,1 -236,2 -354,3 -77,-54 -154,-108 -230,-163 -114,32 -228,63 -341,94 -89,-32 -177,-65 -265,-97 -102,59 -203,119 -305,179 -94,-9 -187,-17 -281,-26 -83,84 -166,168 -249,252 -92,16 -185,32 -278,48 -58,102 -116,205 -174,308 -86,39 -172,78 -257,118 -30,114 -59,228 -89,342 -72,60 -145,121 -217,181 1,118 1,236 2,354 -54,76 -108,153 -162,230 31,114 62,227 94,341 -33,88 -65,177 -98,265 60,101 119,203 179,305 -9,93 -17,187 -26,281 84,83 168,166 252,248 16,93 32,186 48,279 103,58 205,116 308,174 39,86 79,171 118,257 114,29 228,59 342,89 61,72 121,145 181,217 118,-1 236,-2 354,-3 77,55 153,109 230,163 114,-31 228,-63 341,-94 89,33 177,65 265,98 102,-60 203,-120 305,-179 94,8 187,17 281,26 83,-85 166,-169 249,-253 92,-16 185,-32 278,-48 58,-102 116,-205 174,-307 86,-40 171,-79 257,-118 30,-115 59,-229 89,-343 72,-60 145,-120 217,-180 -1,-118 -2,-236 -2,-354 54,-77 108,-154 162,-231 -31,-113 -62,-227 -94,-341 33,-88 65,-176 98,-264 -60,-102 -119,-204 -179,-305 9,-94 17,-188 26,-281 -8,-8 -15,-15 -23,-22z"/>
      <path class="fil2 str0" d="M1019 2457c-80,-79 -160,-158 -239,-236 -17,-97 -34,-193 -50,-290 -107,-61 -214,-121 -320,-182 -41,-89 -83,-178 -124,-267 -118,-31 -237,-61 -356,-92 -63,-76 -125,-151 -188,-227 -123,1 -246,2 -368,3 -80,-56 -160,-113 -240,-169 -119,32 -237,65 -355,98 -92,-34 -184,-68 -276,-102 -106,62 -212,124 -317,186 -98,-9 -196,-18 -293,-27 -86,88 -173,175 -259,263 -96,17 -193,33 -290,50 -60,107 -121,213 -181,320 -89,41 -178,82 -268,123 -30,119 -61,238 -92,357 -76,62 -151,125 -226,188 1,123 1,245 2,368 -56,80 -113,160 -169,240 33,118 65,237 98,355 -34,92 -68,184 -102,276 62,106 124,211 187,317 -9,98 -18,195 -27,293 87,86 175,172 262,259 17,96 33,193 50,289 107,61 214,122 320,182 41,89 82,178 124,267 118,31 237,62 356,93 63,75 125,151 188,226 123,-1 246,-2 368,-3 80,57 160,113 240,170 119,-33 237,-66 355,-98 92,34 184,68 276,102 106,-63 212,-125 317,-187 98,9 196,18 293,27 86,-87 173,-175 259,-263 96,-16 193,-33 290,-49 60,-107 121,-214 181,-321 89,-41 178,-82 267,-123 31,-119 62,-237 93,-356 75,-63 151,-126 226,-188 -1,-123 -2,-246 -3,-369 57,-80 114,-160 170,-240 -33,-118 -65,-236 -98,-355 34,-91 68,-183 102,-275 -62,-106 -124,-212 -187,-318 9,-97 18,-195 27,-293 -7,-7 -15,-15 -23,-22z"/>
      <path class="fil2 str0" d="M1107 2420c-83,-82 -166,-164 -249,-245 -17,-101 -35,-201 -52,-302 -111,-63 -222,-126 -333,-188 -43,-93 -85,-186 -128,-278 -123,-32 -247,-64 -370,-96 -66,-79 -131,-157 -196,-236 -128,1 -255,2 -383,3 -83,-59 -166,-117 -249,-176 -123,34 -246,68 -369,102 -96,-35 -191,-71 -287,-106 -110,65 -220,129 -330,194 -101,-9 -203,-19 -304,-28 -90,91 -180,182 -269,273 -101,17 -201,34 -301,52 -63,111 -126,222 -189,333 -93,42 -185,85 -278,128 -32,123 -64,247 -96,370 -79,65 -157,130 -235,196 1,127 1,255 2,383 -58,83 -117,166 -176,249 34,123 68,246 102,369 -35,96 -70,191 -106,287 65,110 130,220 194,329 -9,102 -19,203 -28,305 91,90 182,179 273,269 17,100 35,201 52,301 111,63 222,126 333,189 43,93 85,185 128,278 123,32 247,64 370,96 65,78 131,157 196,235 128,-1 255,-2 383,-3 83,59 166,118 249,176 123,-34 246,-67 369,-101 96,35 191,70 287,105 110,-64 220,-129 330,-193 101,9 203,18 304,28 90,-91 179,-182 269,-273 100,-18 201,-35 301,-52 63,-111 126,-222 189,-333 93,-43 185,-86 278,-128 32,-124 64,-247 96,-371 79,-65 157,-130 235,-195 -1,-128 -2,-255 -3,-383 59,-83 118,-166 177,-250 -34,-123 -68,-246 -102,-369 35,-95 70,-191 106,-286 -65,-110 -130,-220 -194,-330 9,-102 18,-203 28,-305 -8,-7 -16,-15 -24,-23z"/>
      <path class="fil2 str0" d="M1194 2383c-86,-85 -172,-170 -258,-255 -18,-104 -36,-208 -54,-312 -115,-66 -230,-131 -345,-196 -45,-96 -89,-193 -133,-289 -129,-33 -257,-66 -385,-100 -68,-81 -135,-162 -203,-244 -132,1 -265,2 -397,3 -87,-61 -173,-122 -259,-183 -128,36 -256,71 -383,106 -100,-36 -199,-73 -298,-110 -114,67 -228,134 -342,201 -106,-9 -211,-19 -316,-29 -93,95 -186,189 -279,284 -105,18 -209,36 -313,54 -65,115 -131,230 -196,345 -96,44 -192,89 -288,133 -34,128 -67,256 -100,385 -82,67 -163,135 -245,203 1,132 2,265 4,397 -61,86 -122,173 -183,259 35,128 70,255 105,383 -36,99 -73,198 -109,298 67,114 134,228 201,342 -10,105 -20,211 -29,316 94,93 189,186 283,279 18,104 36,209 54,313 115,65 230,130 345,196 45,96 89,192 133,288 128,33 257,67 385,100 67,81 135,163 203,244 132,-1 265,-2 397,-3 87,61 173,122 259,183 128,-35 256,-70 383,-106 99,37 199,74 298,110 114,-67 228,-134 342,-201 106,10 211,19 316,29 93,-94 186,-189 279,-283 105,-18 209,-36 313,-54 65,-115 131,-230 196,-346 96,-44 192,-88 288,-133 34,-128 67,-256 100,-384 82,-68 163,-135 244,-203 -1,-133 -2,-265 -3,-398 61,-86 122,-172 183,-259 -35,-127 -70,-255 -105,-383 36,-99 73,-198 109,-297 -67,-114 -134,-228 -201,-342 10,-106 20,-211 29,-317 -8,-8 -16,-16 -25,-24z"/>
      <path class="fil2 str0" d="M1282 2346c-89,-88 -179,-176 -268,-264 -19,-108 -37,-216 -56,-324 -119,-68 -239,-136 -358,-203 -46,-100 -92,-200 -138,-299 -133,-35 -265,-69 -398,-104 -70,-84 -141,-168 -211,-253 -137,1 -275,2 -412,3 -89,-63 -179,-126 -268,-189 -133,36 -265,73 -397,109 -103,-38 -206,-76 -309,-113 -118,69 -236,139 -355,208 -109,-10 -218,-20 -327,-30 -97,98 -193,196 -290,294 -108,18 -216,37 -324,55 -68,120 -135,239 -203,359 -100,46 -199,92 -299,137 -34,133 -69,266 -103,399 -85,70 -169,140 -254,211 1,137 3,274 4,412 -64,89 -127,178 -190,268 36,132 73,265 110,397 -38,103 -76,206 -114,309 69,118 139,236 208,354 -10,110 -20,219 -30,328 98,96 196,193 294,289 18,108 37,216 56,325 119,67 238,135 358,203 46,99 92,199 138,299 133,34 265,69 398,103 70,85 141,169 211,253 137,-1 274,-2 412,-3 89,63 179,127 268,190 133,-37 265,-73 397,-110 103,38 206,76 309,114 118,-70 236,-139 355,-209 109,10 218,21 327,31 97,-98 193,-196 290,-294 108,-19 216,-37 324,-56 67,-119 135,-239 203,-358 100,-46 199,-92 299,-138 34,-133 69,-266 103,-399 85,-70 169,-140 253,-210 -1,-137 -2,-275 -3,-412 64,-90 127,-179 190,-268 -37,-133 -73,-265 -110,-398 38,-102 76,-205 114,-308 -69,-118 -139,-237 -208,-355 10,-109 20,-218 30,-328 -9,-8 -18,-17 -26,-25z"/>
      <path class="fil2 str0" d="M1369 2309c-92,-91 -184,-182 -277,-273 -19,-112 -38,-224 -58,-336 -123,-70 -247,-140 -370,-210 -48,-103 -96,-206 -143,-310 -138,-35 -275,-71 -413,-107 -72,-87 -145,-175 -218,-262 -142,1 -284,2 -426,3 -93,-65 -186,-130 -278,-196 -137,38 -274,76 -411,114 -107,-40 -213,-79 -320,-118 -122,72 -245,144 -367,216 -113,-11 -226,-21 -339,-32 -100,102 -200,203 -300,305 -112,19 -224,38 -336,57 -70,124 -140,248 -210,371 -103,48 -206,95 -309,143 -36,137 -72,275 -108,412 -87,73 -174,146 -262,218 1,143 3,285 4,427 -66,93 -131,185 -197,278 38,137 76,274 114,411 -40,107 -79,213 -118,319 72,123 144,245 216,368 -11,113 -21,226 -31,339 101,100 202,200 304,300 19,111 38,223 57,335 124,70 248,140 371,211 48,103 96,206 143,309 138,36 275,72 413,107 72,88 145,175 218,262 142,-1 284,-2 426,-3 93,66 186,131 278,196 137,-37 274,-75 411,-113 107,39 213,78 320,118 122,-72 245,-144 367,-216 113,10 226,21 339,31 100,-101 200,-203 300,-304 112,-19 224,-39 335,-58 71,-123 141,-247 211,-371 103,-47 206,-95 309,-142 36,-138 72,-275 107,-413 88,-73 175,-145 263,-218 -2,-142 -3,-284 -4,-427 66,-92 131,-185 197,-277 -38,-137 -76,-275 -114,-412 39,-106 79,-213 118,-319 -72,-122 -144,-245 -216,-367 10,-113 21,-227 31,-340 -9,-8 -18,-17 -27,-26z"/>
      <path class="fil2 str0" d="M1457 2272c-96,-94 -191,-188 -287,-282 -20,-116 -40,-232 -59,-348 -128,-72 -256,-145 -384,-217 -49,-107 -98,-213 -148,-320 -142,-37 -284,-74 -426,-111 -75,-90 -151,-181 -226,-271 -147,1 -294,2 -441,3 -96,-67 -191,-135 -287,-203 -142,40 -284,79 -425,118 -110,-41 -221,-81 -331,-122 -126,74 -253,149 -380,223 -117,-11 -233,-21 -350,-32 -104,105 -207,210 -310,314 -116,20 -232,40 -347,60 -73,128 -145,256 -218,384 -106,49 -213,98 -320,147 -37,142 -74,285 -111,427 -90,75 -180,150 -271,225 1,147 3,294 4,442 -68,95 -136,191 -203,287 39,142 78,283 117,425 -41,110 -81,220 -122,330 75,127 149,254 223,380 -10,117 -21,234 -32,351 105,103 210,207 315,310 20,116 39,231 59,347 128,72 256,145 384,218 49,106 98,213 147,320 143,36 285,73 427,110 75,91 150,181 226,271 147,-1 294,-2 441,-3 96,68 191,135 287,203 142,-39 284,-78 425,-117 110,40 220,81 331,122 126,-75 253,-149 379,-224 117,11 234,22 351,33 104,-105 207,-210 310,-315 116,-20 231,-40 347,-60 73,-128 145,-255 218,-383 106,-49 213,-99 320,-148 37,-142 74,-284 111,-426 90,-76 180,-151 271,-226 -2,-147 -3,-294 -4,-441 68,-96 136,-192 203,-287 -39,-142 -78,-284 -117,-426 41,-110 81,-220 122,-330 -75,-127 -149,-253 -223,-380 10,-117 21,-234 32,-351 -10,-9 -19,-18 -28,-27z"/>
      <path class="fil2 str0" d="M1544 2235c-98,-97 -197,-194 -296,-292 -20,-119 -41,-239 -61,-358 -132,-75 -264,-150 -397,-225 -50,-110 -101,-220 -152,-331 -147,-38 -294,-76 -441,-114 -77,-93 -155,-187 -233,-280 -151,1 -303,2 -455,3 -99,-69 -198,-139 -297,-209 -147,40 -293,81 -439,121 -114,-42 -228,-84 -342,-126 -130,77 -261,154 -392,231 -121,-11 -242,-22 -362,-34 -107,109 -214,217 -320,325 -120,21 -239,41 -359,62 -75,132 -150,264 -225,396 -110,51 -220,102 -330,153 -38,147 -77,294 -115,440 -93,78 -186,156 -280,233 1,152 3,304 4,456 -70,99 -140,198 -210,297 40,146 81,293 121,439 -42,114 -84,228 -126,341 77,131 154,262 231,393 -11,121 -22,241 -33,362 108,107 216,213 325,320 20,120 41,239 61,359 132,75 264,149 396,224 51,111 102,221 153,331 147,38 294,76 441,114 77,94 155,187 232,280 152,-1 304,-2 456,-3 99,70 198,140 297,210 146,-41 293,-81 439,-122 114,42 228,84 341,126 131,-77 262,-153 393,-230 121,11 242,22 362,33 107,-108 214,-217 320,-325 120,-20 239,-41 359,-62 75,-132 150,-264 225,-396 110,-51 220,-101 330,-152 38,-147 77,-294 115,-441 93,-78 186,-155 280,-233 -1,-152 -3,-304 -4,-456 70,-98 140,-197 210,-296 -40,-147 -81,-293 -121,-440 42,-113 84,-227 126,-341 -77,-131 -154,-261 -231,-392 11,-121 22,-242 33,-363 -9,-9 -19,-19 -29,-28z"/>
      <path class="fil2 str0" d="M1632 2198c-102,-100 -204,-201 -306,-301 -21,-123 -42,-247 -63,-370 -136,-77 -273,-155 -409,-232 -52,-114 -105,-227 -157,-341 -152,-39 -304,-79 -455,-118 -80,-96 -160,-193 -241,-289 -156,1 -313,2 -470,4 -102,-73 -204,-145 -306,-217 -151,42 -302,84 -453,125 -118,-43 -235,-86 -352,-130 -135,80 -270,159 -405,238 -125,-11 -250,-23 -374,-34 -111,112 -221,223 -331,335 -123,21 -246,43 -370,64 -77,136 -154,272 -232,409 -113,52 -227,105 -341,157 -39,152 -79,303 -118,455 -96,80 -193,160 -289,240 1,157 3,314 4,470 -72,103 -145,205 -217,307 42,151 84,302 125,453 -43,117 -86,235 -129,352 79,135 158,270 238,405 -12,125 -23,249 -35,374 112,110 224,220 335,330 22,124 43,247 64,370 136,78 273,155 409,232 52,114 105,228 157,341 152,40 303,79 455,119 80,96 160,192 240,288 157,-1 314,-2 471,-3 102,72 204,144 306,216 151,-41 302,-83 453,-125 118,44 235,87 352,130 135,-79 270,-159 405,-238 125,12 250,23 374,35 110,-112 220,-224 331,-336 123,-21 246,-42 370,-63 77,-137 154,-273 231,-409 114,-53 228,-105 342,-158 39,-151 78,-303 118,-454 96,-81 192,-161 289,-241 -1,-156 -3,-313 -4,-470 72,-102 144,-204 217,-306 -42,-151 -84,-302 -126,-454 44,-117 87,-234 130,-352 -79,-135 -158,-270 -238,-405 12,-124 23,-249 35,-374 -10,-9 -20,-19 -30,-29z"/>
      <path class="fil2 str0" d="M1720 2161c-105,-103 -210,-207 -315,-310 -22,-127 -44,-254 -66,-382 -141,-79 -281,-159 -422,-239 -54,-117 -108,-234 -162,-351 -156,-41 -312,-82 -469,-122 -82,-100 -165,-199 -247,-298 -162,1 -324,2 -485,4 -106,-75 -211,-149 -316,-224 -156,43 -312,86 -467,129 -121,-44 -242,-89 -363,-133 -140,81 -279,163 -418,245 -128,-12 -257,-24 -385,-36 -114,116 -227,231 -341,346 -127,22 -254,44 -381,66 -80,140 -160,281 -239,421 -118,54 -235,108 -352,162 -41,157 -81,313 -122,469 -99,83 -199,166 -298,248 1,162 3,323 4,485 -75,105 -149,211 -223,316 43,156 86,311 129,467 -45,121 -90,242 -134,363 82,139 163,278 245,418 -12,128 -24,257 -35,385 115,114 230,227 345,341 22,127 44,254 66,381 140,80 281,159 421,239 55,117 109,235 163,352 156,40 312,81 469,122 82,99 165,198 247,298 162,-2 324,-3 485,-4 105,74 211,149 316,223 156,-43 311,-86 467,-129 121,45 242,89 363,134 139,-82 279,-164 418,-245 128,11 257,23 385,35 114,-115 227,-230 341,-346 127,-22 254,-43 381,-65 80,-141 160,-281 239,-422 118,-54 235,-108 352,-162 41,-156 81,-313 122,-469 99,-82 198,-165 298,-248 -1,-161 -3,-323 -4,-484 74,-106 149,-211 223,-316 -43,-156 -86,-312 -129,-468 45,-121 90,-242 134,-363 -82,-139 -163,-278 -245,-417 12,-129 23,-257 35,-386 -10,-10 -20,-20 -30,-30z"/>
      <path class="fil2 str0" d="M1807 2124c-108,-106 -216,-213 -324,-319 -23,-131 -45,-262 -68,-393 -145,-82 -289,-165 -434,-247 -56,-120 -111,-241 -167,-362 -161,-42 -322,-84 -483,-125 -85,-103 -170,-205 -255,-307 -167,1 -333,2 -500,4 -108,-77 -217,-154 -325,-230 -160,44 -321,88 -481,133 -125,-46 -250,-92 -374,-138 -144,84 -287,168 -430,252 -133,-12 -265,-24 -398,-36 -116,119 -233,237 -350,356 -131,23 -262,45 -393,68 -82,144 -164,289 -246,434 -121,55 -242,111 -363,167 -41,161 -83,322 -125,483 -102,85 -205,170 -307,255 1,166 3,333 4,499 -77,109 -153,217 -230,326 44,160 89,321 133,481 -46,125 -92,249 -138,374 84,143 168,287 253,430 -12,132 -25,265 -37,397 119,117 238,234 356,351 23,131 45,262 68,393 145,82 289,164 434,246 56,121 111,242 167,362 161,42 322,84 483,126 85,102 170,204 255,307 167,-2 333,-3 500,-4 108,76 217,153 325,230 160,-45 321,-89 481,-133 125,46 250,92 374,138 144,-84 287,-169 430,-253 133,12 265,24 397,36 117,-118 234,-237 351,-356 131,-22 262,-45 393,-67 82,-145 164,-290 246,-434 121,-56 242,-112 363,-167 41,-161 83,-322 125,-483 102,-85 205,-171 307,-256 -1,-166 -3,-332 -4,-499 77,-108 153,-217 230,-325 -44,-161 -89,-321 -133,-482 46,-124 92,-249 138,-374 -84,-143 -169,-286 -253,-430 12,-132 25,-264 37,-397 -11,-10 -21,-20 -32,-31z"/>
      <path class="fil2 str0" d="M1895 2087c-112,-109 -223,-219 -334,-329 -23,-134 -47,-269 -70,-404 -149,-85 -298,-169 -447,-253 -57,-125 -114,-249 -172,-373 -165,-43 -331,-86 -497,-129 -87,-106 -175,-211 -262,-316 -172,1 -343,2 -514,4 -112,-79 -223,-158 -335,-237 -165,46 -330,91 -495,137 -129,-47 -257,-95 -385,-142 -148,87 -295,173 -443,260 -136,-13 -272,-25 -409,-38 -120,123 -240,245 -360,367 -135,23 -270,46 -405,69 -84,149 -169,298 -253,447 -125,58 -249,115 -373,172 -43,166 -86,332 -129,497 -105,88 -211,175 -316,263 1,171 3,343 4,514 -79,112 -158,223 -237,335 46,165 92,330 137,495 -47,128 -95,257 -142,385 87,147 174,295 260,443 -12,136 -25,272 -37,408 122,121 244,241 366,361 23,135 46,270 70,405 149,84 298,168 446,253 58,124 115,249 172,373 166,43 332,86 498,129 87,105 175,210 262,316 171,-2 343,-3 514,-4 112,79 223,157 335,236 165,-45 330,-91 495,-136 129,47 257,94 385,142 148,-87 295,-174 443,-261 136,13 272,25 408,38 121,-122 241,-244 361,-366 135,-24 270,-47 405,-70 84,-149 169,-298 253,-447 124,-57 249,-114 373,-172 43,-165 86,-331 129,-497 105,-87 211,-175 316,-262 -1,-172 -3,-343 -4,-514 79,-112 158,-224 237,-335 -46,-165 -92,-330 -137,-496 47,-128 94,-256 142,-384 -87,-148 -174,-295 -260,-443 12,-136 25,-273 37,-409 -11,-10 -21,-21 -32,-32z"/>
     </g>
     <polygon class="fil1 str0" points="1982,2050 1639,1712 1567,1296 1108,1036 931,652 420,519 150,195 -379,199 -723,-45 -1232,96 -1628,-50 -2083,218 -2504,179 -2875,556 -3291,627 -3551,1087 -3935,1264 -4067,1775 -4392,2045 -4388,2573 -4631,2918 -4491,3427 -4637,3823 -4369,4278 -4408,4698 -4031,5069 -3960,5485 -3500,5746 -3323,6129 -2812,6262 -2542,6587 -2013,6583 -1669,6826 -1160,6685 -764,6831 -309,6564 111,6602 483,6226 898,6154 1159,5695 1542,5518 1675,5007 2000,4737 1996,4208 2239,3864 2099,3354 2245,2959 1977,2504 2016,2083 "/>
    </g>
   </g>
  </g>
  <polygon class="fil3" points="0,0 7446,0 7446,5585 0,5585 "/>
 </g>
</svg>
